<svg width="24" height="17" viewBox="0 0 24 17" fill="none" xmlns="http://www.w3.org/2000/svg">
<path d="M23.2613 0.382812H0.489502V16.6288H23.2613V12.0607C23.3644 11.9233 23.3987 11.7859 23.3987 11.5798C23.3987 11.3394 23.3644 11.202 23.2613 11.099" fill="url(#paint0_radial_1060_28130)"/>
<path d="M2.55042 6.7714L2.10392 5.741L1.65741 6.7714M12.2018 6.35924C12.0988 6.42794 11.9958 6.42794 11.8927 6.42794H11.1027V5.84404H11.8927C11.9958 5.84404 12.1331 5.84404 12.2018 5.87839C12.2705 5.91274 12.3392 5.98143 12.3392 6.11882C12.3392 6.22186 12.2705 6.3249 12.2018 6.35924ZM17.7316 6.7714L17.2851 5.741L16.8386 6.7714H17.7316ZM7.3933 7.90484H6.74072V5.84404L5.81335 7.90484H5.26381L4.33645 5.84404V7.90484H3.03127L2.79085 7.32095H1.45134L1.21091 7.90484H0.523973L1.65741 5.2945H2.61912L3.71821 7.76746V5.2945H4.74861L5.57293 7.08052L6.32856 5.2945H7.3933V7.90484ZM10.0037 7.90484H7.87415V5.2945H10.0037V5.84404H8.4924V6.3249H9.9693V6.87444H8.4924V7.38964H10.0037V7.90484ZM13.0262 6.01578C13.0262 6.42794 12.7514 6.63402 12.5796 6.70271C12.717 6.7714 12.8544 6.8401 12.8888 6.90879C12.9918 7.04618 12.9918 7.14922 12.9918 7.38964V7.90484H12.3392V7.56138C12.3392 7.38964 12.3392 7.18356 12.2362 7.04618C12.1331 6.94314 11.9958 6.94314 11.7553 6.94314H11.0684V7.90484H10.4158V5.2945H11.8927C12.2362 5.2945 12.4766 5.2945 12.6827 5.43188C12.9231 5.53492 13.0262 5.70666 13.0262 6.01578ZM14.0566 7.90484H13.404V5.2945H14.0566V7.90484ZM21.6472 7.90484H20.7541L19.552 5.94708V7.90484H18.2125L17.9721 7.32095H16.6326L16.3921 7.90484H15.6365C15.3274 7.90484 14.9152 7.83615 14.7091 7.63007C14.4687 7.42399 14.3657 7.11487 14.3657 6.63402C14.3657 6.2562 14.4344 5.87839 14.7091 5.60362C14.9152 5.39754 15.2243 5.2945 15.6708 5.2945H16.2891V5.84404H15.6708C15.4304 5.84404 15.293 5.87839 15.19 6.01578C15.087 6.11882 15.0183 6.3249 15.0183 6.59967C15.0183 6.87444 15.087 7.08052 15.19 7.21791C15.293 7.32095 15.4648 7.3553 15.6365 7.3553H15.9113L16.8043 5.2945H17.766L18.8651 7.76746V5.2945H19.8268L20.9602 7.11487V5.2945H21.6128V7.90484H21.6472ZM0.489624 8.42004H1.58872L1.82914 7.83615H2.37869L2.61912 8.42004H4.78296V7.97354L4.98904 8.42004H6.08813L6.29421 7.97354V8.42004H11.6523V7.45834H11.7553C11.824 7.45834 11.8584 7.45834 11.8584 7.59572V8.42004H14.6404V8.21396C14.8809 8.317 15.2243 8.42004 15.6708 8.42004H16.8386L17.0791 7.83615H17.6286L17.869 8.42004H20.1016V7.8705L20.445 8.42004H22.2311V4.7793H20.445V5.2258L20.2046 4.7793H18.3842V5.2258L18.1438 4.7793H15.6708C15.2587 4.7793 14.8809 4.84799 14.6061 4.98538V4.7793H12.8888V4.98538C12.717 4.81364 12.4423 4.7793 12.1675 4.7793H5.95074L5.53859 5.70666L5.12642 4.7793H3.16867V5.2258L2.96259 4.7793H1.2796L0.489624 6.49663V8.42004Z" fill="white"/>
<path d="M23.2611 10.3432H22.0933C21.9903 10.3432 21.8872 10.3432 21.8185 10.3776C21.7498 10.4119 21.7155 10.4806 21.7155 10.5493C21.7155 10.6524 21.7842 10.721 21.8529 10.7554C21.9216 10.7897 21.9903 10.7897 22.0933 10.7897H22.4368C22.7802 10.7897 23.0207 10.8584 23.158 10.9958C23.1924 11.0302 23.1924 11.0302 23.2267 11.0645M23.2611 12.0606C23.0894 12.2666 22.8146 12.404 22.4024 12.404H21.1659V11.8545H22.4024C22.5398 11.8545 22.6085 11.8545 22.6772 11.7858C22.7115 11.7514 22.7459 11.6828 22.7459 11.6141C22.7459 11.5454 22.7115 11.4767 22.6772 11.4423C22.6429 11.408 22.5742 11.3736 22.4368 11.3736C21.8529 11.3393 21.0972 11.408 21.0972 10.5493C21.0972 10.1715 21.3377 9.75934 22.0246 9.75934H23.2954V9.24414H22.1276C21.7842 9.24414 21.5094 9.31283 21.3377 9.45022V9.24414H19.586C19.3112 9.24414 18.9678 9.31283 18.8304 9.45022V9.24414H15.7048V9.45022C15.4644 9.27849 15.0522 9.24414 14.8462 9.24414H12.7854V9.45022C12.5793 9.27849 12.1671 9.24414 11.8923 9.24414H9.59112L9.07592 9.79369L8.59507 9.24414H5.1604V12.8849H8.56072L9.11027 12.3353L9.62547 12.8849H11.7206V12.0606H11.9267C12.2015 12.0606 12.5449 12.0606 12.8197 11.9232V12.9192H14.537V11.9575H14.6057C14.7088 11.9575 14.7088 11.9575 14.7088 12.0606V12.9192H19.9295C20.2729 12.9192 20.6164 12.8505 20.7881 12.6788V12.9192H22.4368C22.7802 12.9192 23.1237 12.8849 23.3641 12.7475V12.0606H23.2611ZM20.7194 11.0302C20.8568 11.1676 20.9255 11.3049 20.9255 11.5797C20.9255 12.1293 20.5821 12.404 19.9295 12.404H18.693V11.8545H19.9295C20.0669 11.8545 20.1355 11.8545 20.2042 11.7858C20.2386 11.7514 20.2729 11.6828 20.2729 11.6141C20.2729 11.5454 20.2386 11.4767 20.2042 11.4423C20.1699 11.408 20.1012 11.3736 19.9638 11.3736C19.3799 11.3393 18.6243 11.408 18.6243 10.5493C18.6243 10.1715 18.8647 9.75934 19.5516 9.75934H20.8225V10.3432H19.586C19.483 10.3432 19.3799 10.3432 19.3112 10.3776C19.2425 10.4119 19.2082 10.4806 19.2082 10.5493C19.2082 10.6524 19.2769 10.721 19.3456 10.7554C19.4143 10.7897 19.483 10.7897 19.586 10.7897H19.9295C20.3416 10.8241 20.582 10.8928 20.7194 11.0302ZM14.9492 10.8584C14.8462 10.8928 14.7431 10.9271 14.6401 10.9271H13.8501V10.3432H14.6401C14.7431 10.3432 14.8805 10.3432 14.9492 10.3776C15.0179 10.4119 15.0866 10.515 15.0866 10.618C15.0866 10.721 15.0179 10.8241 14.9492 10.8584ZM15.327 11.2019C15.4644 11.2362 15.6018 11.3393 15.6361 11.408C15.7392 11.5454 15.7392 11.6484 15.7392 11.8888V12.404H15.0866V12.0606C15.0866 11.8888 15.0866 11.6828 14.9835 11.5454C14.8805 11.4423 14.7431 11.4423 14.5027 11.4423H13.8158V12.404H13.1632V9.79369H14.6401C14.9492 9.79369 15.1896 9.79369 15.3957 9.93107C15.6018 10.0341 15.7392 10.2058 15.7392 10.515C15.7735 10.9271 15.4987 11.1332 15.327 11.2019ZM16.117 9.79369H18.2465V10.3432H16.7352V10.8241H18.2121V11.3736H16.7352V11.8888H18.2465V12.404H16.117V9.79369ZM11.8237 10.9958H10.9993V10.3432H11.8237C12.0641 10.3432 12.2015 10.4463 12.2015 10.6524C12.2015 10.8928 12.0641 10.9958 11.8237 10.9958ZM10.3467 12.1636L9.3507 11.0989L10.3467 10.0685V12.1636ZM7.8051 11.8545H6.22515V11.3393H7.63336V10.7897H6.22515V10.3432H7.83944L8.52637 11.0989L7.8051 11.8545ZM12.8884 10.6524C12.8884 11.3736 12.3388 11.5454 11.7893 11.5454H10.9993V12.404H9.76285L8.97288 11.5454L8.14856 12.404H5.6069V9.79369H8.1829L8.97288 10.6524L9.7972 9.79369H11.858C12.3389 9.79369 12.8884 9.93107 12.8884 10.6524Z" fill="white"/>
<defs>
<radialGradient id="paint0_radial_1060_28130" cx="0" cy="0" r="1" gradientUnits="userSpaceOnUse" gradientTransform="translate(4.50603 3.24244) scale(21.1567 20.6412)">
<stop stopColor="#9FD2F1"/>
<stop offset="0.0711" stopColor="#99D1F1"/>
<stop offset="0.1575" stopColor="#8BCBEF"/>
<stop offset="0.2516" stopColor="#71C5EE"/>
<stop offset="0.3514" stopColor="#52BBE9"/>
<stop offset="0.4546" stopColor="#1FACE3"/>
<stop offset="0.5" stopColor="#1DA4DD"/>
<stop offset="1" stopColor="#3079BB"/>
</radialGradient>
</defs>
</svg>
