<svg width="20" height="18" viewBox="0 0 20 18" fill="none" xmlns="http://www.w3.org/2000/svg">
<path d="M4.03521 12.7434C4.15497 12.8636 4.24674 13.0088 4.30398 13.1685C4.36122 13.3283 4.38252 13.4987 4.36635 13.6676C4.28507 14.4494 4.13133 15.2219 3.90714 15.9752C5.5167 15.6026 6.49975 15.171 6.94627 14.9449C7.19954 14.8166 7.4912 14.7862 7.76547 14.8595C8.55156 15.0699 9.36202 15.1754 10.1758 15.1733C14.7864 15.1733 18.2524 11.9346 18.2524 8.25049C18.2524 4.56638 14.7864 1.32764 10.1758 1.32764C5.56516 1.32764 2.09912 4.56753 2.09912 8.25049C2.09912 9.94428 2.81102 11.5158 4.03521 12.7434ZM3.46638 17.249C3.193 17.3032 2.91874 17.3528 2.64372 17.3979C2.41296 17.4348 2.23758 17.1948 2.32873 16.9802C2.4309 16.7385 2.5248 16.4934 2.61026 16.2452L2.61372 16.2337C2.89986 15.4029 3.13293 14.4476 3.21832 13.558C1.80259 12.1388 0.945312 10.2812 0.945312 8.25049C0.945312 3.78986 5.07825 0.173828 10.1758 0.173828C15.2733 0.173828 19.4062 3.78986 19.4062 8.25049C19.4062 12.7111 15.2733 16.3271 10.1758 16.3271C9.26151 16.3292 8.35098 16.2105 7.46779 15.9741C6.86781 16.2775 5.5767 16.8302 3.46638 17.249Z" fill="#828D9E"/>
<path d="M4.03521 12.7434C4.15497 12.8636 4.24674 13.0088 4.30398 13.1685C4.36122 13.3283 4.38252 13.4987 4.36635 13.6676C4.28507 14.4494 4.13133 15.2219 3.90714 15.9752C5.5167 15.6026 6.49975 15.171 6.94627 14.9449C7.19954 14.8166 7.4912 14.7862 7.76547 14.8595C8.55156 15.0699 9.36202 15.1754 10.1758 15.1733C14.7864 15.1733 18.2524 11.9346 18.2524 8.25049C18.2524 4.56638 14.7864 1.32764 10.1758 1.32764C5.56516 1.32764 2.09912 4.56753 2.09912 8.25049C2.09912 9.94428 2.81102 11.5158 4.03521 12.7434ZM3.46638 17.249C3.193 17.3032 2.91874 17.3528 2.64372 17.3979C2.41296 17.4348 2.23758 17.1948 2.32873 16.9802C2.4309 16.7385 2.5248 16.4934 2.61026 16.2452L2.61372 16.2337C2.89986 15.4029 3.13293 14.4476 3.21832 13.558C1.80259 12.1388 0.945312 10.2812 0.945312 8.25049C0.945312 3.78986 5.07825 0.173828 10.1758 0.173828C15.2733 0.173828 19.4062 3.78986 19.4062 8.25049C19.4062 12.7111 15.2733 16.3271 10.1758 16.3271C9.26151 16.3292 8.35098 16.2105 7.46779 15.9741C6.86781 16.2775 5.5767 16.8302 3.46638 17.249Z" fill="url(#paint0_linear_1077_48652)"/>
<defs>
<linearGradient id="paint0_linear_1077_48652" x1="22.0806" y1="20.2092" x2="9.54893" y2="29.0765" gradientUnits="userSpaceOnUse">
<stop stopColor="#F16522"/>
<stop offset="1" stopColor="#EB008B"/>
</linearGradient>
</defs>
</svg>
