<svg width="24" height="17" viewBox="0 0 24 17" fill="none" xmlns="http://www.w3.org/2000/svg">
<rect x="0.0515747" y="0.382812" width="23.0123" height="16.1429" rx="2.75275" fill="white"/>
<path d="M23.029 9.3125C23.029 9.3125 16.0567 14.6362 4.65356 16.5596H23.029V9.3125Z" fill="#F58220"/>
<path d="M0.0501099 16.6288V0.382812H23.4402V16.6288H0.0501099ZM0.530961 0.863666V16.1479H22.9593V0.863666H0.530961Z" fill="#231F20"/>
<path d="M12.281 4.95117C11.3537 4.95117 10.598 5.67245 10.598 6.56546C10.598 7.49282 11.3193 8.2141 12.281 8.2141C13.2084 8.2141 13.964 7.49282 13.964 6.59981C13.964 5.67245 13.2427 4.95117 12.281 4.95117Z" fill="url(#paint0_radial_1060_28164)"/>
<path d="M2.69518 5.02148H1.76782V8.14703H2.66084C3.14169 8.14703 3.48515 8.04399 3.79427 7.80356C4.17209 7.49444 4.37817 7.04794 4.37817 6.60143C4.37817 5.67407 3.69123 5.02148 2.69518 5.02148ZM3.41646 7.35706C3.21038 7.52879 2.96996 7.59748 2.5578 7.59748H2.38606V5.53668H2.5578C2.96996 5.53668 3.21038 5.60538 3.41646 5.77711C3.62254 5.94884 3.75993 6.25796 3.75993 6.56708C3.75993 6.8762 3.62254 7.18532 3.41646 7.35706Z" fill="#081923"/>
<path d="M5.27181 5.02148H4.65356V8.14703H5.27181V5.02148Z" fill="#081923"/>
<path d="M6.78435 6.22281C6.40653 6.08542 6.30349 5.98238 6.30349 5.84499C6.30349 5.63891 6.50957 5.50153 6.75 5.50153C6.92173 5.50153 7.09346 5.57022 7.2652 5.74195L7.57432 5.32979C7.29954 5.08937 6.99042 4.98633 6.64696 4.98633C6.09741 4.98633 5.65091 5.36414 5.65091 5.87934C5.65091 6.32585 5.85699 6.53193 6.44088 6.73801C6.68131 6.8067 6.81869 6.87539 6.85304 6.90974C6.99043 6.97843 7.02477 7.11582 7.02477 7.21886C7.02477 7.45929 6.81869 7.66537 6.54392 7.66537C6.2348 7.66537 6.02872 7.52798 5.85698 7.25321L5.44482 7.63102C5.7196 8.04318 6.06306 8.21491 6.54392 8.21491C7.1965 8.21491 7.64301 7.80275 7.64301 7.18451C7.71171 6.70366 7.50563 6.46323 6.78435 6.22281Z" fill="#081923"/>
<path d="M7.91821 6.56661C7.91821 7.49397 8.6395 8.1809 9.6012 8.1809C9.87598 8.1809 10.0821 8.11221 10.3912 8.00917V7.28789C10.1507 7.52831 9.91032 7.63135 9.63555 7.63135C9.01731 7.63135 8.5708 7.18485 8.5708 6.56661C8.5708 5.98272 9.01731 5.50186 9.6012 5.50186C9.91032 5.50186 10.1164 5.6049 10.3912 5.84533V5.12405C10.1164 4.98666 9.91032 4.91797 9.63555 4.91797C8.67384 4.95232 7.91821 5.6736 7.91821 6.56661Z" fill="#081923"/>
<path d="M15.3694 7.11663L14.5107 5.02148H13.8582L15.1977 8.21572H15.5068L16.8807 5.02148H16.2281L15.3694 7.11663Z" fill="#081923"/>
<path d="M17.1915 8.14703H18.9432V7.63183H17.8098V6.77316H18.8745V6.25796H17.8098V5.53668H18.9432V5.02148H17.1915V8.14703Z" fill="#081923"/>
<path d="M21.3814 5.94884C21.3814 5.36495 20.9692 5.02148 20.2479 5.02148H19.3206V8.14703H19.9388V6.8762H20.0075L20.8662 8.14703H21.6218L20.6257 6.84186C21.1066 6.73882 21.3814 6.4297 21.3814 5.94884ZM20.1449 6.46404H19.9731V5.50234H20.1792C20.557 5.50234 20.7631 5.67407 20.7631 5.94884C20.7288 6.29231 20.5227 6.46404 20.1449 6.46404Z" fill="#081923"/>
<path d="M7.29907 8.9707L8.12339 9.82937V9.00505H8.22643V10.1041L7.40211 9.24548V10.0354H7.29907V8.9707Z" fill="#221F1F"/>
<path d="M7.29901 8.96979V10.0689H7.4364C7.4364 10.0689 7.4364 9.31326 7.4364 9.27891C7.47074 9.31326 8.26071 10.1376 8.26071 10.1376V9.00414H8.12333C8.12333 9.00414 8.12333 9.75977 8.12333 9.79411C8.08898 9.75977 7.29901 8.93545 7.29901 8.96979ZM7.33335 9.00414C7.3677 9.03849 8.15768 9.86281 8.15768 9.86281C8.15768 9.86281 8.15768 9.07283 8.15768 9.03849C8.15768 9.03849 8.22637 9.03849 8.26071 9.03849C8.26071 9.07283 8.26071 10.0345 8.26071 10.1032C8.22637 10.0689 7.4364 9.24457 7.4364 9.24457C7.4364 9.24457 7.4364 10.0345 7.4364 10.0689C7.4364 10.0689 7.3677 10.0689 7.33335 10.0689C7.33335 10.0345 7.33335 9.03849 7.33335 9.00414Z" fill="#221F1F"/>
<path d="M8.84314 9.00391H9.39268V9.10695H8.94618V9.41607H9.35834V9.51911H8.94618V9.93127H9.39268V10.0343H8.84314V9.00391Z" fill="#221F1F"/>
<path d="M9.39268 9.00391H8.84314V10.0687H9.42703V9.93127C9.42703 9.93127 9.01487 9.93127 8.98052 9.93127C8.98052 9.89692 8.98052 9.55345 8.98052 9.55345C9.01487 9.55345 9.39268 9.55345 9.39268 9.55345V9.41607H8.98052C8.98052 9.38172 8.98052 9.14129 8.98052 9.14129C9.01487 9.14129 9.42703 9.14129 9.42703 9.14129L9.39268 9.00391ZM9.35834 9.00391C9.35834 9.00391 9.35834 9.0726 9.35834 9.10695C9.32399 9.10695 8.91183 9.10695 8.91183 9.10695V9.45041H9.32399C9.32399 9.45041 9.32399 9.51911 9.32399 9.55345C9.28964 9.55345 8.91183 9.55345 8.91183 9.55345V9.99996C8.91183 9.99996 9.32399 9.99996 9.35834 9.99996C9.35834 9.99996 9.35834 10.0687 9.35834 10.103C9.32399 10.103 8.84314 10.103 8.84314 10.103C8.84314 10.0687 8.84314 9.10695 8.84314 9.0726C8.87749 9.00391 9.35834 9.00391 9.35834 9.00391Z" fill="#221F1F"/>
<path d="M10.2186 10.0695H10.1155V9.1421H9.87512V9.03906H10.4934V9.1421H10.2186V10.0695Z" fill="#221F1F"/>
<path d="M10.4936 9.00391H9.84106V9.14129H10.0815C10.0815 9.17564 10.0815 10.0687 10.0815 10.0687H10.2189V9.14129C10.2532 9.14129 10.4936 9.14129 10.4936 9.14129V9.00391ZM10.4593 9.00391C10.4593 9.00391 10.4593 9.0726 10.4593 9.10695C10.425 9.10695 10.1845 9.10695 10.1845 9.10695V10.0343C10.1845 10.0343 10.1158 10.0343 10.0815 10.0343C10.0815 9.99996 10.0815 9.10695 10.0815 9.10695H9.84106C9.84106 9.10695 9.84106 9.03825 9.84106 9.00391C9.87541 9.00391 10.4593 9.00391 10.4593 9.00391Z" fill="#221F1F"/>
<path d="M11.2807 9.79502L11.6242 8.9707L11.9676 9.79502L12.2424 9.00505H12.3798L11.9676 10.1041L11.6242 9.24548L11.2807 10.1041L10.8685 9.00505H11.0059L11.2807 9.79502Z" fill="#221F1F"/>
<path d="M11.5897 8.93555C11.5897 8.93555 11.2806 9.69117 11.2463 9.75987C11.2119 9.72552 10.9715 9.00424 10.9715 9.00424H10.8341L11.2463 10.1377C11.2463 10.1377 11.5554 9.34771 11.5897 9.27901C11.6241 9.31336 11.9332 10.1377 11.9332 10.1377L12.3454 9.00424H12.208C12.208 9.00424 11.9676 9.72552 11.9332 9.75987C11.9332 9.72552 11.6241 8.93555 11.5897 8.93555ZM11.2806 9.79421C11.2806 9.79421 11.5897 9.03859 11.6241 8.96989C11.6584 9.00424 11.9675 9.79421 11.9675 9.79421L12.2423 9.00424C12.2423 9.00424 12.311 9.00424 12.3454 9.00424C12.3454 9.03859 11.9675 10.0003 11.9675 10.069C11.9332 10.0346 11.6241 9.24467 11.6241 9.24467C11.6241 9.24467 11.315 10.0346 11.2806 10.069C11.2463 10.0346 10.9028 9.03859 10.9028 9.00424C10.9372 9.00424 11.0058 9.00424 11.0058 9.00424C10.9715 9.03859 11.2806 9.82856 11.2806 9.79421Z" fill="#221F1F"/>
<path d="M13.8943 9.52025C13.8943 9.82937 13.6538 10.0698 13.3447 10.0698C13.0356 10.0698 12.7952 9.82937 12.7952 9.52025C12.7952 9.21113 13.0356 8.9707 13.3447 8.9707C13.6538 9.00505 13.8943 9.24548 13.8943 9.52025ZM12.8982 9.52025C12.8982 9.76068 13.1043 9.96676 13.3447 9.96676C13.5851 9.96676 13.7912 9.76068 13.7912 9.52025C13.7912 9.27982 13.5851 9.07374 13.3447 9.07374C13.1043 9.10809 12.8982 9.27982 12.8982 9.52025Z" fill="#221F1F"/>
<path d="M12.7611 9.52025C12.7611 9.82937 13.0015 10.0698 13.3107 10.0698C13.6198 10.0698 13.8602 9.82937 13.8602 9.52025C13.8602 9.21113 13.6198 8.9707 13.3107 8.9707C13.0359 8.9707 12.7611 9.21113 12.7611 9.52025ZM12.7955 9.52025C12.7955 9.21113 13.0359 9.00505 13.345 9.00505C13.6541 9.00505 13.8945 9.24548 13.8945 9.52025C13.8945 9.79502 13.6541 10.0354 13.345 10.0354C13.0359 10.0698 12.7955 9.82937 12.7955 9.52025Z" fill="#221F1F"/>
<path d="M12.8987 9.52073C12.8987 9.76115 13.1048 9.96723 13.3452 9.96723C13.5856 9.96723 13.7917 9.76115 13.7917 9.52073C13.7917 9.2803 13.5856 9.07422 13.3452 9.07422C13.1048 9.07422 12.8987 9.2803 12.8987 9.52073ZM12.8987 9.52073C12.8987 9.2803 13.1048 9.10857 13.3108 9.10857C13.5513 9.10857 13.723 9.31465 13.723 9.52073C13.723 9.76115 13.5513 9.93289 13.3108 9.93289C13.1048 9.96723 12.8987 9.76115 12.8987 9.52073Z" fill="#221F1F"/>
<path d="M14.5115 10.0695H14.4084V9.03906H14.5458C14.7519 9.03906 14.9236 9.10776 14.9236 9.31384C14.9236 9.48557 14.8206 9.58861 14.6489 9.58861L14.9923 10.0695H14.855L14.5458 9.62296H14.5115V10.0695ZM14.5115 9.48557H14.5458C14.6832 9.48557 14.8206 9.45122 14.8206 9.31384C14.8206 9.1421 14.6832 9.1421 14.5458 9.1421H14.5115V9.48557Z" fill="#221F1F"/>
<path d="M14.4084 9.00505V10.0698H14.5458V9.62329H14.5802L14.8893 10.0698H15.0267H15.061C15.061 10.0698 14.7519 9.62329 14.7176 9.58894C14.8893 9.5546 14.9923 9.45156 14.9923 9.27982C14.9923 9.07374 14.855 8.9707 14.5802 8.9707H14.4084V9.00505ZM14.5458 9.00505C14.7863 9.00505 14.9236 9.10809 14.9236 9.27982C14.9236 9.45156 14.8206 9.5546 14.6832 9.5546H14.6489C14.6489 9.5546 14.958 10.0011 14.9923 10.0354C14.958 10.0354 14.855 10.0354 14.855 10.0354L14.5458 9.58894H14.5115V10.0354C14.5115 10.0354 14.4428 10.0354 14.4084 10.0354C14.4084 10.0011 14.4084 9.0394 14.4084 9.00505C14.4428 9.00505 14.5458 9.00505 14.5458 9.00505Z" fill="#221F1F"/>
<path d="M14.512 9.10742V9.51958H14.5463C14.6837 9.51958 14.8211 9.48524 14.8211 9.3135C14.8211 9.14177 14.6837 9.10742 14.5463 9.10742H14.512ZM14.5463 9.14177C14.6837 9.14177 14.8211 9.14177 14.8211 9.3135C14.8211 9.48524 14.6837 9.48524 14.5463 9.48524C14.5463 9.48524 14.5463 9.48524 14.512 9.48524C14.5463 9.45089 14.5463 9.14177 14.5463 9.14177Z" fill="#221F1F"/>
<path d="M16.0894 9.00391H16.2611L15.7803 9.48476L16.2955 10.0343H16.1237L15.6772 9.55345L15.6429 9.5878V10.0343H15.5055V9.00391H15.6085V9.45041L16.0894 9.00391Z" fill="#221F1F"/>
<path d="M16.2268 9.00391H16.055C16.055 9.00391 15.6429 9.41607 15.6085 9.45041C15.6085 9.41607 15.6085 9.00391 15.6085 9.00391H15.5055V10.0687H15.6429V9.62215C15.6429 9.62215 15.6429 9.62215 15.6772 9.62215L16.0894 10.103H16.2611H16.2955C16.2955 10.103 15.7803 9.55345 15.7803 9.51911C15.7803 9.48476 16.2611 9.00391 16.2268 9.00391ZM16.2268 9.00391C16.1924 9.03825 15.7459 9.48476 15.7459 9.48476C15.7459 9.48476 16.2268 9.99996 16.2611 10.0343C16.2268 10.0343 16.1237 10.0343 16.1237 10.0343L15.7116 9.55345L15.6772 9.5878C15.6772 9.5878 15.6772 9.99996 15.6772 10.0343C15.6772 10.0343 15.6085 10.0343 15.5742 10.0343C15.5742 9.99996 15.5742 9.03825 15.5742 9.00391C15.5742 9.00391 15.6429 9.00391 15.6772 9.00391C15.6772 9.03825 15.6772 9.45041 15.6772 9.45041C15.6772 9.45041 16.1237 9.00391 16.1581 9.00391C16.0894 9.00391 16.1924 9.00391 16.2268 9.00391Z" fill="#221F1F"/>
<defs>
<radialGradient id="paint0_radial_1060_28164" cx="0" cy="0" r="1" gradientUnits="userSpaceOnUse" gradientTransform="translate(12.2811 6.58616) scale(1.67007 1.64492)">
<stop offset="0.005618" stopColor="#FFEEE1"/>
<stop offset="0.1092" stopColor="#FEE9D8"/>
<stop offset="0.2782" stopColor="#FDDBC0"/>
<stop offset="0.4917" stopColor="#FBC598"/>
<stop offset="0.7412" stopColor="#F8A661"/>
<stop offset="1" stopColor="#F48120"/>
</radialGradient>
</defs>
</svg>
