<svg width="18" height="20" viewBox="0 0 18 20" fill="none" xmlns="http://www.w3.org/2000/svg">
<path d="M8.68089 18.5996C13.2662 18.5996 16.5415 16.9777 16.5415 13.3671C16.5415 9.44335 14.5763 6.82709 10.646 4.86456L12.1919 2.87584C12.2707 2.74539 12.3134 2.5964 12.3158 2.44405C12.3183 2.2917 12.2802 2.14143 12.2057 2.00855C12.1311 1.87567 12.0227 1.76493 11.8914 1.68761C11.7601 1.61028 11.6107 1.56913 11.4583 1.56836H5.90349C5.75144 1.56994 5.6025 1.61159 5.47169 1.6891C5.34088 1.76661 5.23282 1.87725 5.15841 2.00985C5.084 2.14246 5.04588 2.29234 5.04789 2.44438C5.04989 2.59642 5.09195 2.74524 5.16983 2.87584L6.71575 4.87766C2.78546 6.85329 0.820312 9.46955 0.820312 13.3933C0.820312 16.9777 4.09555 18.5996 8.68089 18.5996Z" stroke="#828D9E" strokeWidth="1.5" stroke-linecap="round" strokeLinejoin="round"/>
<path d="M8.68089 18.5996C13.2662 18.5996 16.5415 16.9777 16.5415 13.3671C16.5415 9.44335 14.5763 6.82709 10.646 4.86456L12.1919 2.87584C12.2707 2.74539 12.3134 2.5964 12.3158 2.44405C12.3183 2.2917 12.2802 2.14143 12.2057 2.00855C12.1311 1.87567 12.0227 1.76493 11.8914 1.68761C11.7601 1.61028 11.6107 1.56913 11.4583 1.56836H5.90349C5.75144 1.56994 5.6025 1.61159 5.47169 1.6891C5.34088 1.76661 5.23282 1.87725 5.15841 2.00985C5.084 2.14246 5.04588 2.29234 5.04789 2.44438C5.04989 2.59642 5.09195 2.74524 5.16983 2.87584L6.71575 4.87766C2.78546 6.85329 0.820312 9.46955 0.820312 13.3933C0.820312 16.9777 4.09555 18.5996 8.68089 18.5996Z" stroke="url(#paint0_linear_1_5)" strokeWidth="1.5" stroke-linecap="round" strokeLinejoin="round"/>
<path d="M10.4952 9.82892C10.3976 9.55186 10.2163 9.31193 9.97648 9.14227C9.73665 8.9726 9.45007 8.88157 9.1563 8.88172H8.05843C7.74562 8.88111 7.44364 8.99624 7.21064 9.20496C6.97764 9.41368 6.8301 9.70123 6.79643 10.0122C6.76276 10.3232 6.84534 10.6357 7.02827 10.8894C7.2112 11.1432 7.48155 11.3203 7.78725 11.3866L9.46024 11.7535C9.80114 11.8295 10.1021 12.0285 10.3055 12.3124C10.5089 12.5963 10.6006 12.9452 10.563 13.2925C10.5254 13.6397 10.3611 13.9609 10.1016 14.1947C9.84212 14.4285 9.50557 14.5584 9.1563 14.5597H8.21172C7.59335 14.5597 7.068 14.164 6.8728 13.6138M8.68335 8.88172V7.46289M8.68335 15.9785V14.5597" stroke="#828D9E" strokeWidth="1.5" stroke-linecap="round" strokeLinejoin="round"/>
<path d="M10.4952 9.82892C10.3976 9.55186 10.2163 9.31193 9.97648 9.14227C9.73665 8.9726 9.45007 8.88157 9.1563 8.88172H8.05843C7.74562 8.88111 7.44364 8.99624 7.21064 9.20496C6.97764 9.41368 6.8301 9.70123 6.79643 10.0122C6.76276 10.3232 6.84534 10.6357 7.02827 10.8894C7.2112 11.1432 7.48155 11.3203 7.78725 11.3866L9.46024 11.7535C9.80114 11.8295 10.1021 12.0285 10.3055 12.3124C10.5089 12.5963 10.6006 12.9452 10.563 13.2925C10.5254 13.6397 10.3611 13.9609 10.1016 14.1947C9.84212 14.4285 9.50557 14.5584 9.1563 14.5597H8.21172C7.59335 14.5597 7.068 14.164 6.8728 13.6138M8.68335 8.88172V7.46289M8.68335 15.9785V14.5597" stroke="url(#paint1_linear_1_5)" strokeWidth="1.5" stroke-linecap="round" strokeLinejoin="round"/>
<defs>
<linearGradient id="paint0_linear_1_5" x1="18.8189" y1="21.3751" x2="7.14211" y2="28.4925" gradientUnits="userSpaceOnUse">
<stop stopColor="#F16522"/>
<stop offset="1" stopColor="#EB008B"/>
</linearGradient>
<linearGradient id="paint1_linear_1_5" x1="11.1192" y1="17.3663" x2="7.57141" y2="18.4068" gradientUnits="userSpaceOnUse">
<stop stopColor="#F16522"/>
<stop offset="1" stopColor="#EB008B"/>
</linearGradient>
</defs>
</svg>
