<svg width="16" height="17" viewBox="0 0 16 17" fill="none" xmlns="http://www.w3.org/2000/svg">
<path fillRule="evenodd" clipRule="evenodd" d="M0.296875 2.1471C0.296875 1.12633 1.12556 0.298828 2.1478 0.298828H10.4769C11.4992 0.298828 12.3279 1.12633 12.3279 2.1471V3.30227C12.3279 3.68506 12.0171 3.99537 11.6338 3.99537C11.2504 3.99537 10.9397 3.68506 10.9397 3.30227V2.81542C10.9454 1.93887 10.6598 1.7245 9.94102 1.69501L9.68518 1.69138L9.55149 1.68503H5.10465L6.73384 2.58247C7.32408 2.90767 7.69058 3.5276 7.69058 4.20075L7.69039 12.7747H9.55149C10.2731 12.7747 10.8724 12.5029 10.9397 11.8L10.946 11.6665L10.9433 11.1574C10.9415 10.8084 11.1997 10.5185 11.5365 10.4711L11.6338 10.4643C12.0171 10.4643 12.3279 10.7746 12.3279 11.1574V12.3126C12.3279 13.3334 11.4992 14.1609 10.4769 14.1609H7.69039L7.69058 15.0446C7.69058 16.0654 6.8619 16.8929 5.83966 16.8929C5.49579 16.8929 5.15872 16.7972 4.86625 16.6166L1.17438 14.3371C0.628888 14.0003 0.296875 13.4055 0.296875 12.7651V2.1471ZM2.61057 1.92474C2.43067 1.92474 2.26275 1.976 2.12067 2.0647C1.8825 2.28853 1.72431 2.59524 1.69147 2.93848L1.68511 3.07198V12.577C1.68511 12.8682 1.82231 13.14 2.0514 13.3134L2.14153 13.3737L4.91792 15.0036C5.06009 15.0871 5.22203 15.1311 5.38696 15.1311C5.86157 15.1311 6.25273 14.7744 6.30619 14.3148L6.31242 14.207V4.55844C6.31242 4.2779 6.185 4.0149 5.97006 3.8408L5.8727 3.77183L3.09632 2.06227C2.9503 1.97235 2.78212 1.92474 2.61057 1.92474ZM13.2456 5.06627L14.8816 6.69993C15.128 6.94599 15.0634 7.19053 14.9251 7.38904L14.8763 7.45262L14.5386 7.79653L13.0605 9.29543C12.7895 9.56611 12.35 9.56611 12.0789 9.29543C11.8079 9.02476 11.8079 8.58591 12.0789 8.31524L12.7246 7.6701H9.79034C9.407 7.6701 9.09625 7.49614 9.09625 7.11335C9.09625 6.73057 9.407 6.51686 9.79034 6.51686H12.7357L12.264 6.04646C11.993 5.77579 11.993 5.33694 12.264 5.06627C12.5351 4.7956 12.9746 4.7956 13.2456 5.06627Z" fill="url(#paint0_linear_2815_2628)"/>
<defs>
<linearGradient id="paint0_linear_2815_2628" x1="17.1846" y1="19.5971" x2="6.00864" y2="26.1572" gradientUnits="userSpaceOnUse">
<stop stopColor="#F16522"/>
<stop offset="1" stopColor="#EB008B"/>
</linearGradient>
</defs>
</svg>
