<svg width="23" height="17" viewBox="0 0 23 17" fill="none" xmlns="http://www.w3.org/2000/svg">
<path d="M23.0091 0.382812H0.0998535V16.6288H23.0091V0.382812Z" fill="#27235D"/>
<path d="M7.25351 14.8782C10.8007 14.8782 13.6763 12.0333 13.6763 8.52405C13.6763 5.01476 10.8007 2.16992 7.25351 2.16992C3.70628 2.16992 0.830688 5.01476 0.830688 8.52405C0.830688 12.0333 3.70628 14.8782 7.25351 14.8782Z" fill="#ED1B2E"/>
<path d="M15.9071 2.16992C14.2585 2.16992 12.7472 2.78816 11.5795 3.81856C11.339 4.02464 11.133 4.26507 10.9269 4.50549H12.232C12.4038 4.71157 12.5755 4.952 12.7129 5.19243H10.446C10.3086 5.39851 10.1712 5.63893 10.0682 5.87936H13.0907C13.1938 6.08544 13.2968 6.32587 13.3655 6.56629H9.79344C9.72474 6.77237 9.65605 7.0128 9.6217 7.25323H13.5372C13.6403 7.69973 13.6746 8.14624 13.6746 8.59275C13.6746 9.31403 13.5716 9.96661 13.3311 10.6192H9.75909C9.82778 10.8596 9.93082 11.0657 10.0339 11.3061H13.0564C12.9533 11.5466 12.8159 11.7526 12.6786 11.9931H10.446C10.5834 12.2335 10.7551 12.4396 10.9269 12.68H12.232C12.026 12.9204 11.8199 13.1609 11.5795 13.3669C12.7129 14.3973 14.2242 15.0156 15.9071 15.0156C19.4448 15.0156 22.33 12.1648 22.33 8.66144C22.33 5.02069 19.4448 2.16992 15.9071 2.16992Z" fill="#FCB131"/>
<path d="M21.4692 12.0615C21.4692 11.9585 21.5722 11.8555 21.6753 11.8555C21.7783 11.8555 21.8813 11.9585 21.8813 12.0615C21.8813 12.1646 21.7783 12.2676 21.6753 12.2676C21.5379 12.2676 21.4692 12.1646 21.4692 12.0615ZM21.6753 12.1989C21.7783 12.1989 21.847 12.1302 21.847 12.0272C21.847 11.9242 21.7783 11.8555 21.6753 11.8555C21.5722 11.8555 21.5035 11.9242 21.5035 12.0272C21.5035 12.1302 21.5722 12.1989 21.6753 12.1989ZM21.6409 12.1646H21.6066V11.9929H21.6753H21.7096L21.7439 12.0272C21.7439 12.0615 21.7439 12.0615 21.7096 12.0615L21.7439 12.1302H21.7096L21.6753 12.0615H21.6409V12.1646ZM21.6409 12.0615C21.6753 12.0615 21.6753 12.0615 21.6753 12.0615C21.6753 12.0615 21.6753 12.0615 21.6753 12.0272C21.6753 12.0272 21.6753 12.0272 21.6753 11.9929H21.6409H21.6066V12.0615H21.6409Z" fill="#FCB131"/>
<path d="M5.76666 9.21047C5.69796 9.21047 5.66362 9.21047 5.59492 9.21047C5.18276 9.21047 5.01103 9.34786 5.01103 9.62263C5.01103 9.79436 5.11407 9.89741 5.25146 9.89741C5.52623 9.86306 5.73231 9.58829 5.76666 9.21047ZM6.28185 10.3783C6.17882 10.3783 5.69796 10.3783 5.69796 10.3783V10.1035C5.52623 10.3096 5.28581 10.4126 4.97669 10.4126C4.59887 10.4126 4.3241 10.1035 4.3241 9.69133C4.3241 9.03874 4.77061 8.69527 5.56058 8.69527C5.62927 8.69527 5.73231 8.69527 5.83535 8.72962C5.8697 8.62658 5.8697 8.59223 5.8697 8.55789C5.8697 8.38615 5.73231 8.31746 5.42319 8.31746C5.07972 8.31746 4.80495 8.38615 4.70191 8.4205C4.70191 8.38615 4.80495 7.83661 4.80495 7.83661C5.14842 7.73357 5.38884 7.69922 5.62927 7.69922C6.21316 7.69922 6.55663 7.97399 6.55663 8.45485C6.55663 8.59223 6.52228 8.76397 6.48794 8.97005C6.41924 9.38221 6.28185 10.1722 6.28185 10.3783Z" fill="#003473"/>
<path d="M4.04763 10.377H3.32635L3.73851 7.90406L2.84549 10.377H2.36464L2.33029 7.90406L1.88379 10.377H1.2312L1.78075 7.14844H2.7768L2.84549 8.96881L3.46373 7.14844H4.56283L4.04763 10.377Z" fill="#003473"/>
<path d="M16.7557 9.21047C16.687 9.21047 16.6527 9.21047 16.584 9.21047C16.1718 9.21047 16.0001 9.34786 16.0001 9.62263C16.0001 9.79436 16.1031 9.89741 16.2405 9.89741C16.5153 9.86306 16.7214 9.58829 16.7557 9.21047ZM17.2366 10.3783C17.1335 10.3783 16.6527 10.3783 16.6527 10.3783V10.1035C16.4809 10.3096 16.2405 10.4126 15.9314 10.4126C15.5536 10.4126 15.2788 10.1035 15.2788 9.69133C15.2788 9.03874 15.7253 8.69527 16.5153 8.69527C16.584 8.69527 16.687 8.69527 16.7901 8.72962C16.8244 8.62658 16.8244 8.59223 16.8244 8.55789C16.8244 8.38615 16.687 8.31746 16.3779 8.31746C16.0344 8.31746 15.7597 8.38615 15.6223 8.4205C15.6223 8.38615 15.7253 7.83661 15.7253 7.83661C16.0688 7.73357 16.3092 7.69922 16.5496 7.69922C17.1335 7.69922 17.477 7.97399 17.477 8.45485C17.477 8.59223 17.4426 8.76397 17.4083 8.97005C17.4083 9.38221 17.2709 10.1722 17.2366 10.3783Z" fill="#003473"/>
<path d="M9.37138 10.3436C9.1653 10.4123 9.02792 10.4123 8.85618 10.4123C8.51272 10.4123 8.30664 10.2062 8.30664 9.82843C8.30664 9.72539 8.34099 9.41627 8.40968 9.1415C8.44403 8.90107 8.7188 7.35547 8.7188 7.35547H9.40573L9.33704 7.76763H9.7492L9.64616 8.38587H9.234C9.16531 8.90107 9.02792 9.51931 9.02792 9.588C9.02792 9.72539 9.09661 9.79408 9.26835 9.79408C9.33704 9.79408 9.40573 9.79408 9.44008 9.75973L9.37138 10.3436Z" fill="#003473"/>
<path d="M11.4993 10.3096C11.2589 10.3783 11.0184 10.4126 10.778 10.4126C9.98804 10.4126 9.61023 10.0004 9.61023 9.24482C9.61023 8.35181 10.1254 7.69922 10.8124 7.69922C11.3963 7.69922 11.7397 8.07703 11.7397 8.66093C11.7397 8.86701 11.7054 9.03874 11.6367 9.31351H10.2628C10.2285 9.69133 10.4689 9.86306 10.8811 9.86306C11.1215 9.86306 11.3619 9.82871 11.6023 9.69133L11.4993 10.3096ZM11.0871 8.76397C11.0871 8.69527 11.1558 8.28311 10.778 8.28311C10.5719 8.28311 10.4002 8.45485 10.3315 8.76397H11.0871Z" fill="#003473"/>
<path d="M6.69316 8.59223C6.69316 8.9357 6.86489 9.14178 7.20836 9.31351C7.48313 9.4509 7.51747 9.48524 7.51747 9.58828C7.51747 9.76002 7.38009 9.82871 7.10531 9.82871C6.89924 9.82871 6.69315 9.79437 6.48707 9.72567C6.48707 9.72567 6.38403 10.3096 6.38403 10.3439C6.55577 10.3783 6.69316 10.4126 7.10531 10.4126C7.82659 10.4126 8.17006 10.1378 8.17006 9.51959C8.17006 9.17613 8.03267 8.9357 7.68921 8.79831C7.38009 8.66093 7.34574 8.62658 7.34574 8.52354C7.34574 8.38615 7.44878 8.31746 7.68921 8.31746C7.82659 8.31746 7.99833 8.31746 8.20441 8.35181L8.30745 7.73357C8.13571 7.69922 7.86094 7.69922 7.68921 7.69922C6.96793 7.69922 6.69316 8.11138 6.69316 8.59223Z" fill="#003473"/>
<path d="M14.869 7.76849C15.075 7.76849 15.2468 7.80283 15.4872 7.94022L15.5902 7.25329C15.4872 7.21894 15.1437 6.97852 14.8346 6.97852C14.3538 6.97852 13.9759 7.21894 13.7012 7.59676C13.289 7.45937 13.1173 7.73414 12.9112 8.00892L12.7395 8.04326C12.7395 7.94022 12.7738 7.87153 12.7738 7.76849H12.1556C12.0525 8.59281 11.9151 9.41713 11.7778 10.2071L11.7434 10.3788H12.4303C12.5334 9.62321 12.6021 9.14235 12.6364 8.83323L12.9112 8.69585C12.9455 8.55846 13.0829 8.48977 13.3234 8.52411C13.289 8.69585 13.289 8.86758 13.289 9.07366C13.289 9.93233 13.7699 10.4819 14.4911 10.4819C14.6972 10.4819 14.8346 10.4475 15.1094 10.3788L15.2468 9.65755C15.0063 9.76059 14.8346 9.82929 14.6629 9.82929C14.2507 9.82929 14.0103 9.52017 14.0103 9.03931C14.0103 8.24934 14.3538 7.76849 14.869 7.76849Z" fill="#003473"/>
<path d="M20.7738 7.14844L20.602 8.0758C20.396 7.83537 20.2242 7.66364 19.9494 7.66364C19.606 7.66364 19.2625 7.93841 19.0564 8.31622C18.7473 8.24753 18.4725 8.14449 18.4725 8.14449C18.5069 7.93841 18.5069 7.80102 18.5069 7.76668H17.8543C17.7513 8.591 17.6139 9.41532 17.4765 10.2053L17.4421 10.377H18.1291C18.2321 9.75878 18.3008 9.27793 18.3352 8.86577C18.5756 8.65969 18.6786 8.45361 18.919 8.48796C18.816 8.72838 18.7473 9.0375 18.7473 9.34662C18.7473 9.99921 19.0908 10.4457 19.5716 10.4457C19.8121 10.4457 20.0181 10.3427 20.2242 10.1709L20.1899 10.4114H20.8425L21.3577 7.18278H20.7738V7.14844ZM19.9151 9.75878C19.6747 9.75878 19.5716 9.58705 19.5716 9.24358C19.5716 8.72838 19.8121 8.35057 20.1212 8.35057C20.3616 8.35057 20.499 8.5223 20.499 8.86577C20.4646 9.41532 20.2242 9.75878 19.9151 9.75878Z" fill="#003473"/>
<path d="M4.25515 10.1728H3.53386L3.94603 7.69979L3.05301 10.1728H2.57216L2.50346 7.73414L2.09131 10.1728H1.43872L1.98826 6.97852H2.98432L3.01866 8.97062L3.7056 6.97852H4.77035L4.25515 10.1728Z" fill="white"/>
<path d="M5.97325 9.00539C5.90455 9.00539 5.87021 9.00539 5.80151 9.00539C5.38935 9.00539 5.21762 9.14278 5.21762 9.41755C5.21762 9.58929 5.32066 9.69233 5.45805 9.69233C5.73282 9.69233 5.9389 9.41755 5.97325 9.00539ZM6.4541 10.1732C6.35106 10.1732 5.8702 10.1732 5.8702 10.1732V9.89841C5.69847 10.1045 5.45805 10.2075 5.14893 10.2075C4.77111 10.2075 4.49634 9.93275 4.49634 9.48625C4.49634 8.83366 4.94285 8.49019 5.73282 8.49019C5.80151 8.49019 5.90455 8.49019 6.00759 8.52454C6.04194 8.4215 6.04194 8.38715 6.04194 8.35281C6.04194 8.18107 5.90455 8.11238 5.59543 8.11238C5.25196 8.11238 4.97719 8.18107 4.8398 8.21542C4.8398 8.18107 4.94285 7.63153 4.94285 7.63153C5.28631 7.52849 5.52674 7.49414 5.76716 7.49414C6.35106 7.49414 6.69453 7.76891 6.69453 8.24977C6.69453 8.38715 6.66018 8.55889 6.62583 8.76497C6.62583 9.17713 6.48844 10.0014 6.4541 10.1732Z" fill="white"/>
<path d="M15.8303 7.04788L15.7273 7.73481C15.4869 7.59742 15.2808 7.56308 15.109 7.56308C14.5938 7.56308 14.216 8.04393 14.216 8.76521C14.216 9.24606 14.4565 9.55518 14.8686 9.55518C15.0404 9.55518 15.2121 9.48649 15.4525 9.38345L15.3151 10.1047C15.0747 10.1734 14.903 10.2078 14.6969 10.2078C13.9413 10.2078 13.4948 9.65822 13.4948 8.79956C13.4948 7.63177 14.1473 6.8418 15.0747 6.8418C15.3495 6.87614 15.7273 7.01353 15.8303 7.04788Z" fill="white"/>
<path d="M16.9286 9.00539C16.8599 9.00539 16.8256 9.00539 16.7569 9.00539C16.3447 9.00539 16.173 9.14278 16.173 9.41755C16.173 9.58929 16.2761 9.69233 16.4134 9.69233C16.7226 9.69233 16.9286 9.41755 16.9286 9.00539ZM17.4438 10.1732C17.3408 10.1732 16.86 10.1732 16.86 10.1732V9.89841C16.6882 10.1045 16.4478 10.2075 16.1387 10.2075C15.7609 10.2075 15.4861 9.93275 15.4861 9.48625C15.4861 8.83366 15.9326 8.49019 16.7226 8.49019C16.7913 8.49019 16.8943 8.49019 16.9973 8.52454C17.0317 8.4215 17.0317 8.38715 17.0317 8.35281C17.0317 8.18107 16.8943 8.11238 16.5852 8.11238C16.2417 8.11238 15.9669 8.18107 15.8296 8.21542C15.8296 8.18107 15.9326 7.63153 15.9326 7.63153C16.2761 7.52849 16.5165 7.49414 16.7569 7.49414C17.3408 7.49414 17.6843 7.76891 17.6843 8.24977C17.6843 8.38715 17.6499 8.55889 17.6156 8.76497C17.6156 9.17713 17.4782 10.0014 17.4438 10.1732Z" fill="white"/>
<path d="M9.57879 10.1385C9.37271 10.2072 9.23532 10.2072 9.06359 10.2072C8.72012 10.2072 8.51404 10.0012 8.51404 9.62335C8.51404 9.52031 8.54839 9.21119 8.61708 8.93642C8.65143 8.69599 8.9262 7.15039 8.9262 7.15039H9.61314L9.54444 7.56255H9.8879L9.78487 8.18079H9.4414C9.37271 8.69599 9.23532 9.31423 9.23532 9.38292C9.23532 9.52031 9.30401 9.589 9.47575 9.589C9.54444 9.589 9.61313 9.589 9.64748 9.55466L9.57879 10.1385Z" fill="white"/>
<path d="M11.7063 10.1377C11.4659 10.2064 11.2255 10.2407 10.9851 10.2407C10.1951 10.2407 9.81726 9.82857 9.81726 9.07294C9.81726 8.17993 10.3325 7.52734 11.0194 7.52734C11.6033 7.52734 11.9468 7.90516 11.9468 8.48905C11.9468 8.69513 11.9124 8.86686 11.8781 9.14164H10.5042C10.4698 9.51945 10.7103 9.69118 11.1224 9.69118C11.3629 9.69118 11.6033 9.65684 11.8437 9.51945L11.7063 10.1377ZM11.2942 8.55774C11.2942 8.48905 11.3629 8.07689 10.9851 8.07689C10.779 8.07689 10.6072 8.24862 10.5385 8.55774H11.2942Z" fill="white"/>
<path d="M6.90055 8.38715C6.90055 8.73062 7.07228 8.9367 7.41575 9.10843C7.69052 9.24582 7.72487 9.28017 7.72487 9.38321C7.72487 9.55494 7.58748 9.62363 7.31271 9.62363C7.10663 9.62363 6.90055 9.58929 6.69447 9.52059C6.69447 9.52059 6.59143 10.1045 6.59143 10.1388C6.76316 10.1732 6.90055 10.2075 7.31271 10.2075C8.03399 10.2075 8.37746 9.93275 8.37746 9.31451C8.37746 8.97105 8.24007 8.73062 7.8966 8.59323C7.58748 8.45585 7.58748 8.4215 7.58748 8.31846C7.58748 8.18107 7.69052 8.11238 7.93095 8.11238C8.06833 8.11238 8.24007 8.11238 8.44615 8.14673L8.54919 7.52849C8.37746 7.49414 8.10268 7.49414 7.93095 7.49414C7.14097 7.49414 6.8662 7.9063 6.90055 8.38715Z" fill="white"/>
<path d="M21.1556 10.1731H20.503L20.5373 9.93266C20.3312 10.1387 20.1595 10.2074 19.8847 10.2074C19.3695 10.2074 19.0261 9.76093 19.0261 9.10834C19.0261 8.24968 19.5413 7.49405 20.1595 7.49405C20.4343 7.49405 20.6404 7.59709 20.8121 7.83752L20.9838 6.91016H21.6708L21.1556 10.1731ZM20.1252 9.5892C20.4343 9.5892 20.6747 9.21138 20.6747 8.69618C20.6747 8.35272 20.5373 8.18098 20.2969 8.18098C19.9878 8.18098 19.7473 8.5588 19.7473 9.074C19.7473 9.41746 19.8847 9.5892 20.1252 9.5892Z" fill="white"/>
<path d="M18.0964 7.56305C17.9933 8.38737 17.8559 9.21169 17.7185 10.0017L17.6842 10.1734H18.3711C18.6116 8.55911 18.6803 8.24999 19.0581 8.28433C19.1268 7.94087 19.2298 7.66609 19.3328 7.52871C19.0237 7.46001 18.8863 7.63175 18.6803 7.94087C18.6803 7.80348 18.7146 7.66609 18.7146 7.52871H18.0964V7.56305Z" fill="white"/>
<path d="M12.3288 7.56305C12.2257 8.38737 12.0884 9.21169 11.951 10.0017L11.9166 10.1734H12.6036C12.844 8.55911 12.9127 8.24999 13.2905 8.28433C13.3592 7.94087 13.4622 7.66609 13.5653 7.52871C13.2905 7.46001 13.1188 7.63175 12.9127 7.94087C12.947 7.80348 12.947 7.66609 12.947 7.52871H12.3288V7.56305Z" fill="white"/>
<path d="M21.467 9.96585C21.467 9.86281 21.5701 9.75977 21.6731 9.75977C21.7762 9.75977 21.8792 9.86281 21.8792 9.96585C21.8792 10.0689 21.7762 10.1719 21.6731 10.1719C21.5357 10.1719 21.467 10.1032 21.467 9.96585ZM21.6731 10.1376C21.7762 10.1376 21.8449 10.0689 21.8449 9.96585C21.8449 9.86281 21.7762 9.79411 21.6731 9.79411C21.5701 9.79411 21.5014 9.86281 21.5014 9.96585C21.5014 10.0689 21.5701 10.1376 21.6731 10.1376ZM21.6388 10.0689H21.6044V9.89715H21.6731H21.7075L21.7418 9.9315C21.7418 9.96585 21.7418 9.96585 21.7075 9.96585L21.7418 10.0345H21.7075L21.6731 9.96585H21.6388V10.0689ZM21.6388 9.96585C21.6731 9.96585 21.6731 9.96585 21.6731 9.96585C21.6731 9.96585 21.6731 9.96585 21.6731 9.9315C21.6731 9.9315 21.6731 9.9315 21.6731 9.89715H21.6388H21.6044V9.96585H21.6388Z" fill="white"/>
</svg>
