<svg width="18" height="18" viewBox="0 0 18 18" fill="none" xmlns="http://www.w3.org/2000/svg">
<path d="M2.38184 3.29835C2.3121 3.21918 2.22396 3.15838 2.12519 3.12129C2.02641 3.0842 1.92004 3.07197 1.81542 3.08567C1.71081 3.09938 1.61117 3.13859 1.52528 3.19986C1.43939 3.26113 1.36988 3.34259 1.32288 3.43704C0.824379 4.43602 0.625178 5.55777 0.749248 6.6673C0.873318 7.77683 1.31537 8.82687 2.02222 9.69106C2.72906 10.5553 3.67058 11.1968 4.73346 11.5384C5.79635 11.8801 6.93533 11.9073 8.01332 11.6168L12.8847 17.131C13.3367 17.6426 13.9734 17.9537 14.6547 17.9959C15.3361 18.0381 16.0063 17.8078 16.5179 17.3559C17.0295 16.9039 17.3407 16.2672 17.3828 15.5858C17.425 14.9045 17.1948 14.2343 16.7428 13.7226L11.8723 8.20943C12.2941 7.17547 12.408 6.04161 12.2002 4.94442C11.9925 3.84722 11.472 2.83349 10.7014 2.0253C9.93076 1.21711 8.94295 0.64893 7.85688 0.389198C6.77082 0.129465 5.63283 0.189254 4.57996 0.561362C4.48043 0.596359 4.39103 0.655291 4.31964 0.73297C4.24824 0.81065 4.19704 0.904693 4.17054 1.00682C4.14404 1.10894 4.14306 1.21601 4.16769 1.31861C4.19231 1.4212 4.24178 1.51616 4.31174 1.59514L7.25741 4.9295C7.48339 5.1853 7.5985 5.52041 7.57742 5.86109C7.55633 6.20177 7.40078 6.52012 7.14497 6.74611C6.88916 6.97209 6.55406 7.08721 6.21338 7.06612C5.8727 7.04503 5.55435 6.88948 5.32836 6.63367L2.38184 3.29835ZM3.13177 9.00695C2.11779 7.85916 1.79506 6.34113 2.12966 4.95678L4.36213 7.48383C4.81411 7.99544 5.45081 8.30656 6.13217 8.34873C6.81353 8.3909 7.48374 8.16068 7.99535 7.7087C8.50697 7.25673 8.81808 6.62002 8.86025 5.93866C8.90242 5.2573 8.6722 4.5871 8.22023 4.07548L5.98776 1.54843C6.79423 1.45493 7.61098 1.58107 8.35167 1.91351C9.09236 2.24595 9.72946 2.77235 10.1956 3.43704C10.6618 4.10174 10.9397 4.88004 11 5.68967C11.0603 6.49931 10.9007 7.31018 10.5381 8.03658C10.4811 8.15118 10.4595 8.28017 10.4762 8.40708C10.4928 8.53398 10.547 8.65303 10.6317 8.74901L15.7783 14.5747C16.0043 14.8305 16.1194 15.1656 16.0983 15.5063C16.0772 15.847 15.9216 16.1654 15.6658 16.3913C15.41 16.6173 15.0749 16.7324 14.7342 16.7114C14.3936 16.6903 14.0752 16.5347 13.8492 16.2789L8.70262 10.4532C8.61782 10.3573 8.50635 10.2889 8.38247 10.2567C8.25859 10.2245 8.12792 10.23 8.00717 10.2725C7.1605 10.5713 6.24382 10.6104 5.37481 10.3845C4.5058 10.1587 3.72411 9.6783 3.13007 9.00502" fill="#828D9E"/>
<path d="M2.38184 3.29835C2.3121 3.21918 2.22396 3.15838 2.12519 3.12129C2.02641 3.0842 1.92004 3.07197 1.81542 3.08567C1.71081 3.09938 1.61117 3.13859 1.52528 3.19986C1.43939 3.26113 1.36988 3.34259 1.32288 3.43704C0.824379 4.43602 0.625178 5.55777 0.749248 6.6673C0.873318 7.77683 1.31537 8.82687 2.02222 9.69106C2.72906 10.5553 3.67058 11.1968 4.73346 11.5384C5.79635 11.8801 6.93533 11.9073 8.01332 11.6168L12.8847 17.131C13.3367 17.6426 13.9734 17.9537 14.6547 17.9959C15.3361 18.0381 16.0063 17.8078 16.5179 17.3559C17.0295 16.9039 17.3407 16.2672 17.3828 15.5858C17.425 14.9045 17.1948 14.2343 16.7428 13.7226L11.8723 8.20943C12.2941 7.17547 12.408 6.04161 12.2002 4.94442C11.9925 3.84722 11.472 2.83349 10.7014 2.0253C9.93076 1.21711 8.94295 0.64893 7.85688 0.389198C6.77082 0.129465 5.63283 0.189254 4.57996 0.561362C4.48043 0.596359 4.39103 0.655291 4.31964 0.73297C4.24824 0.81065 4.19704 0.904693 4.17054 1.00682C4.14404 1.10894 4.14306 1.21601 4.16769 1.31861C4.19231 1.4212 4.24178 1.51616 4.31174 1.59514L7.25741 4.9295C7.48339 5.1853 7.5985 5.52041 7.57742 5.86109C7.55633 6.20177 7.40078 6.52012 7.14497 6.74611C6.88916 6.97209 6.55406 7.08721 6.21338 7.06612C5.8727 7.04503 5.55435 6.88948 5.32836 6.63367L2.38184 3.29835ZM3.13177 9.00695C2.11779 7.85916 1.79506 6.34113 2.12966 4.95678L4.36213 7.48383C4.81411 7.99544 5.45081 8.30656 6.13217 8.34873C6.81353 8.3909 7.48374 8.16068 7.99535 7.7087C8.50697 7.25673 8.81808 6.62002 8.86025 5.93866C8.90242 5.2573 8.6722 4.5871 8.22023 4.07548L5.98776 1.54843C6.79423 1.45493 7.61098 1.58107 8.35167 1.91351C9.09236 2.24595 9.72946 2.77235 10.1956 3.43704C10.6618 4.10174 10.9397 4.88004 11 5.68967C11.0603 6.49931 10.9007 7.31018 10.5381 8.03658C10.4811 8.15118 10.4595 8.28017 10.4762 8.40708C10.4928 8.53398 10.547 8.65303 10.6317 8.74901L15.7783 14.5747C16.0043 14.8305 16.1194 15.1656 16.0983 15.5063C16.0772 15.847 15.9216 16.1654 15.6658 16.3913C15.41 16.6173 15.0749 16.7324 14.7342 16.7114C14.3936 16.6903 14.0752 16.5347 13.8492 16.2789L8.70262 10.4532C8.61782 10.3573 8.50635 10.2889 8.38247 10.2567C8.25859 10.2245 8.12792 10.23 8.00717 10.2725C7.1605 10.5713 6.24382 10.6104 5.37481 10.3845C4.5058 10.1587 3.72411 9.6783 3.13007 9.00502" fill="url(#paint0_linear_1077_48662)"/>
<defs>
<linearGradient id="paint0_linear_1077_48662" x1="24.335" y1="14.9162" x2="19.1233" y2="24.6735" gradientUnits="userSpaceOnUse">
<stop stopColor="#F16522"/>
<stop offset="1" stopColor="#EB008B"/>
</linearGradient>
</defs>
</svg>
