<svg width="24" height="17" viewBox="0 0 24 17" fill="none" xmlns="http://www.w3.org/2000/svg">
<path fillRule="evenodd" clipRule="evenodd" d="M0.137451 16.6288H23.0467V0.382812H0.137451V15.7358V16.6288Z" fill="#003473"/>
<path fillRule="evenodd" clipRule="evenodd" d="M11.5764 13.1254C12.8472 11.9919 13.6372 10.3089 13.6372 8.48856C13.6372 6.66819 12.8472 4.9852 11.5764 3.81742C10.4773 2.82136 9.00036 2.20312 7.35172 2.20312C3.88271 2.20312 1.06628 5.01955 1.06628 8.48856C1.06628 11.9576 3.88271 14.7397 7.35172 14.7397C9.00036 14.7397 10.4773 14.1214 11.5764 13.1254Z" fill="#009DDD"/>
<path fillRule="evenodd" clipRule="evenodd" d="M11.5739 13.1263C12.8447 11.9929 13.6347 10.3099 13.6347 8.4895C13.6347 6.66913 12.8447 4.98615 11.5739 3.81836V13.1263Z" fill="#009DDD"/>
<path fillRule="evenodd" clipRule="evenodd" d="M15.8338 2.20312C14.2196 2.20312 12.7426 2.82136 11.6092 3.81742C11.4031 4.0235 11.1627 4.26392 10.991 4.47H12.2618C12.4335 4.67608 12.6053 4.91651 12.7426 5.12259H10.5101C10.3727 5.32867 10.2353 5.5691 10.1323 5.77518H13.0861C13.1892 5.98126 13.2922 6.22168 13.3609 6.42776H9.85752C9.78883 6.63384 9.72014 6.87427 9.68579 7.1147H13.5326C13.6357 7.52686 13.67 7.97336 13.67 8.45422C13.67 9.14115 13.567 9.82808 13.3609 10.4463H9.85752C9.92622 10.6524 10.0293 10.8928 10.1323 11.0989H13.0861C12.9831 11.305 12.88 11.5454 12.7426 11.7515H10.5101C10.6475 11.9919 10.8192 12.198 10.991 12.4041H12.2618C12.0557 12.6445 11.8496 12.8506 11.6092 13.0567C12.7426 14.0527 14.2196 14.671 15.8338 14.671C19.3029 14.671 22.1193 11.8545 22.1193 8.41987C22.1193 5.01955 19.3029 2.20312 15.8338 2.20312Z" fill="#ED1B2E"/>
<path fillRule="evenodd" clipRule="evenodd" d="M21.2946 11.958C21.2946 11.855 21.3976 11.752 21.5006 11.752C21.6037 11.752 21.7067 11.855 21.7067 11.958C21.7067 12.0611 21.6037 12.1641 21.5006 12.1641C21.3976 12.1641 21.2946 12.0611 21.2946 11.958ZM21.5006 12.1298C21.6037 12.1298 21.6724 12.0611 21.6724 11.958C21.6724 11.855 21.6037 11.8206 21.5006 11.8206C21.3976 11.8206 21.3289 11.8893 21.3289 11.958C21.3289 12.0611 21.4319 12.1298 21.5006 12.1298ZM21.4663 12.0611H21.4319V11.8893H21.5006C21.535 11.8893 21.535 11.8893 21.535 11.8893L21.5693 11.9237C21.5693 11.958 21.5693 11.958 21.535 11.958L21.5693 12.0267H21.535L21.5006 11.958H21.4663V12.0611ZM21.4663 11.958C21.5006 11.958 21.5006 11.958 21.5006 11.958C21.5006 11.958 21.5006 11.958 21.5006 11.9237H21.4663H21.4319V11.958H21.4663Z" fill="#ED1B2E"/>
<path fillRule="evenodd" clipRule="evenodd" d="M6.38926 10.2068H5.59928L6.08013 7.76815L4.98104 10.2068H4.32846L4.19107 7.76815L3.67587 10.2068H2.95459L3.57283 7.04688H4.80931V9.00463L5.66798 7.04688H7.00749L6.38926 10.2068Z" fill="#003473"/>
<path fillRule="evenodd" clipRule="evenodd" d="M15.146 10.1716C14.9399 10.2403 14.7682 10.2747 14.5621 10.2747C14.1843 10.2747 13.9438 10.0686 13.9438 9.72511C13.9438 9.65641 13.9438 9.55337 13.9782 9.48468L14.0125 9.20991L14.0469 9.00383L14.3904 7.01172H15.1803L15.0773 7.59561H15.4551L15.3521 8.21385H14.9399L14.7338 9.2786C14.7338 9.31294 14.7338 9.38164 14.7338 9.38164C14.7338 9.51903 14.8369 9.55337 15.0086 9.55337C15.1116 9.55337 15.1803 9.55337 15.2147 9.51902L15.146 10.1716Z" fill="#003473"/>
<path fillRule="evenodd" clipRule="evenodd" d="M12.021 8.45434C12.021 8.76346 12.1928 9.00389 12.6049 9.17562C12.9484 9.31301 12.9827 9.34736 12.9827 9.48474C12.9827 9.65648 12.8454 9.72517 12.5362 9.72517C12.2958 9.72517 12.0897 9.69082 11.815 9.62213L11.7119 10.2404H11.7463L11.8836 10.2747C11.918 10.2747 11.9867 10.3091 12.0897 10.3091C12.2615 10.3091 12.4332 10.3434 12.5362 10.3434C13.3606 10.3434 13.7727 10.0686 13.7727 9.48474C13.7727 9.14128 13.601 8.9352 13.2232 8.76346C12.8797 8.62608 12.8454 8.59173 12.8454 8.48869C12.8454 8.3513 12.9827 8.28261 13.2232 8.28261C13.3949 8.28261 13.601 8.28261 13.8071 8.31696L13.9101 7.73306C13.704 7.69872 13.3949 7.66437 13.2232 7.66437C12.3302 7.56133 12.021 7.97349 12.021 8.45434Z" fill="#003473"/>
<path fillRule="evenodd" clipRule="evenodd" d="M8.9289 10.2072H8.27631V9.93242C8.07023 10.1385 7.79546 10.2415 7.45199 10.2415C7.03983 10.2415 6.73071 9.96677 6.73071 9.55461C6.73071 8.93637 7.24591 8.55855 8.10458 8.55855C8.20762 8.55855 8.31066 8.55855 8.4137 8.55855C8.44805 8.45551 8.44805 8.42117 8.44805 8.38682C8.44805 8.21509 8.31066 8.14639 7.93285 8.14639C7.72677 8.14639 7.45199 8.18074 7.28026 8.21509L7.21157 8.28378H7.14287L7.24591 7.69989C7.62373 7.59685 7.8985 7.5625 8.17327 7.5625C8.8602 7.5625 9.20367 7.83727 9.20367 8.31813C9.20367 8.45551 9.20367 8.52421 9.13498 8.83333L8.99759 9.76069L8.96325 9.93242L8.9289 10.0698V10.1728V10.2072ZM8.37935 9.07375C8.27631 9.07375 8.24196 9.07375 8.20762 9.07375C7.76111 9.07375 7.55503 9.21114 7.55503 9.45157C7.55503 9.6233 7.65807 9.72634 7.8298 9.72634C8.13892 9.69199 8.37935 9.45157 8.37935 9.07375Z" fill="#003473"/>
<path fillRule="evenodd" clipRule="evenodd" d="M11.5057 10.1377C11.2309 10.2064 10.9905 10.2407 10.7157 10.2407C9.85707 10.2407 9.37622 9.82857 9.37622 9.07294C9.37622 8.17993 9.96011 7.52734 10.7501 7.52734C11.4027 7.52734 11.8148 7.90516 11.8148 8.4547C11.8148 8.66078 11.7805 8.83252 11.7118 9.10729H10.1662C10.1662 9.14164 10.1662 9.17598 10.1662 9.21033C10.1662 9.51945 10.4066 9.65684 10.8531 9.65684C11.1279 9.65684 11.3683 9.62249 11.6774 9.4851L11.5057 10.1377ZM11.1279 8.62644C11.1279 8.55774 11.1279 8.5234 11.1279 8.48905C11.1279 8.28297 10.9905 8.14558 10.7501 8.14558C10.5097 8.14558 10.3036 8.31732 10.2349 8.62644H11.1279Z" fill="#003473"/>
<path fillRule="evenodd" clipRule="evenodd" d="M19.8528 9.0386C19.7498 9.89726 19.1316 10.2751 18.3416 10.2751C17.4486 10.2751 17.1051 9.75988 17.1051 9.07294C17.1051 8.17993 17.7233 7.52734 18.6507 7.52734C19.475 7.52734 19.8872 8.04254 19.8872 8.69513C19.8872 8.86686 19.8872 8.90121 19.8528 9.0386ZM19.0629 8.72948C19.0629 8.4547 18.9598 8.21428 18.6164 8.21428C18.2385 8.21428 17.9638 8.69513 17.9638 9.10729C17.9638 9.45076 18.1355 9.69118 18.4103 9.69118C18.582 9.69118 18.9255 9.45076 19.0285 9.0386C19.0629 8.93556 19.0629 8.83252 19.0629 8.72948Z" fill="#003473"/>
<path fillRule="evenodd" clipRule="evenodd" d="M19.9227 9.82913C19.9227 9.72609 20.0258 9.62305 20.1288 9.62305C20.2318 9.62305 20.3349 9.72609 20.3349 9.82913C20.3349 9.93217 20.2318 10.0352 20.1288 10.0352C20.0258 10.0352 19.9227 9.93217 19.9227 9.82913ZM20.1632 9.96651C20.2662 9.96651 20.3005 9.89782 20.3005 9.79478C20.3005 9.69174 20.2318 9.65739 20.1632 9.65739C20.0601 9.65739 19.9914 9.72609 19.9914 9.79478C19.9914 9.89782 20.0601 9.96651 20.1632 9.96651ZM20.1288 9.89782H20.0945V9.72609H20.1632C20.1975 9.72609 20.1975 9.72609 20.1975 9.72609L20.2318 9.76043C20.2318 9.79478 20.2319 9.79478 20.1975 9.79478L20.2318 9.86347H20.1975L20.1632 9.79478H20.1288V9.89782ZM20.1288 9.79478C20.1632 9.79478 20.1632 9.79478 20.1632 9.79478C20.1632 9.79478 20.1632 9.79478 20.1632 9.76043H20.1288V9.79478Z" fill="white"/>
<path fillRule="evenodd" clipRule="evenodd" d="M6.59568 10.0341H5.8057L6.25221 7.59547L5.18746 10.0341H4.46618L4.36314 7.59547L3.88229 10.0341H3.16101L3.77925 6.83984H5.01573L5.05008 8.7976L5.94309 6.83984H7.21392L6.59568 10.0341Z" fill="white"/>
<path fillRule="evenodd" clipRule="evenodd" d="M15.3526 9.99974C15.1466 10.0684 14.9748 10.1028 14.7688 10.1028C14.3909 10.1028 14.1505 9.8967 14.1505 9.55323C14.1505 9.48454 14.1505 9.41584 14.1849 9.3128L14.2192 9.03803L14.2536 8.83195L14.597 6.83984H15.387L15.284 7.42374H15.6961L15.5931 8.04198H15.1809L14.9748 9.10672C14.9748 9.14107 14.9405 9.20976 14.9405 9.20976C14.9405 9.34715 15.0435 9.41584 15.2153 9.41584C15.3183 9.41584 15.387 9.41584 15.4213 9.3815L15.3526 9.99974Z" fill="white"/>
<path fillRule="evenodd" clipRule="evenodd" d="M17.3469 8.1796V8.07656L17.4843 7.6644C17.45 7.6644 17.45 7.6644 17.4156 7.6644C17.3813 7.6644 17.3469 7.6644 17.3469 7.6644C17.3126 7.6644 17.3126 7.6644 17.2782 7.6644C17.0035 7.6644 16.8317 7.76744 16.5913 8.07656L16.6943 7.5957H15.87L15.3892 10.1717H16.1791C16.2822 9.55346 16.3509 9.24434 16.3852 8.96957C16.4883 8.48872 16.8317 8.28264 17.0721 8.35133C17.1065 8.35133 17.1065 8.35133 17.1752 8.35133L17.2095 8.38568L17.3469 8.1796Z" fill="#003473"/>
<path fillRule="evenodd" clipRule="evenodd" d="M17.6177 7.45932C17.549 7.42497 17.549 7.42497 17.5147 7.42497C17.4803 7.42497 17.446 7.42497 17.446 7.39062C17.4116 7.39062 17.4117 7.39062 17.343 7.39062C17.0682 7.39062 16.8965 7.49367 16.656 7.80279L16.7247 7.42497H16.0034L15.5226 10.001H16.3126C16.5873 8.42102 16.6904 8.14625 17.1025 8.14625C17.1369 8.14625 17.1712 8.14625 17.2056 8.14625L17.3086 8.1806L17.6177 7.45932Z" fill="white"/>
<path fillRule="evenodd" clipRule="evenodd" d="M12.2272 8.24923C12.2272 8.55835 12.3989 8.79878 12.8454 8.97051C13.1545 9.1079 13.2232 9.14225 13.2232 9.27963C13.2232 9.45137 13.0858 9.52006 12.7767 9.52006C12.5363 9.52006 12.3302 9.48571 12.0554 9.41702L11.9524 10.0353H11.9867L12.1241 10.0696C12.1585 10.0696 12.2615 10.0696 12.3302 10.0696C12.5019 10.104 12.6737 10.104 12.7767 10.104C13.601 10.104 14.0132 9.82918 14.0132 9.24529C14.0132 8.90182 13.8415 8.69574 13.4293 8.52401C13.0858 8.38662 13.0515 8.35227 13.0515 8.24923C13.0515 8.11185 13.1889 8.04315 13.4293 8.04315C13.5667 8.04315 13.8071 8.04315 14.0132 8.0775L14.1162 7.49361C13.9102 7.45926 13.601 7.45926 13.4293 7.45926C12.5363 7.39057 12.2272 7.76838 12.2272 8.24923Z" fill="white"/>
<path fillRule="evenodd" clipRule="evenodd" d="M9.13581 10.0345H8.48322V9.75973C8.27714 9.96581 8.00237 10.0689 7.6589 10.0689C7.24674 10.0689 6.93762 9.79408 6.93762 9.38192C6.93762 8.76368 7.45282 8.38587 8.31149 8.38587C8.41453 8.38587 8.51757 8.38587 8.62061 8.38587C8.65496 8.28283 8.65495 8.24848 8.65495 8.21414C8.65495 8.0424 8.51757 7.97371 8.13975 7.97371C7.93367 7.97371 7.6589 8.00806 7.48717 8.0424L7.38413 8.07675H7.31543L7.41848 7.49286C7.79629 7.38982 8.07106 7.35547 8.34583 7.35547C9.03277 7.35547 9.37623 7.63024 9.37623 8.1111C9.37623 8.24848 9.37624 8.35152 9.30754 8.6263L9.13581 9.55366L9.10146 9.72539L9.06711 9.86278V9.96581L9.13581 10.0345ZM8.55191 8.86672C8.44887 8.86672 8.41453 8.86672 8.38018 8.86672C7.93367 8.86672 7.7276 9.00411 7.7276 9.24453C7.7276 9.41627 7.83063 9.51931 8.00237 9.51931C8.31149 9.51931 8.55191 9.24454 8.55191 8.86672Z" fill="white"/>
<path fillRule="evenodd" clipRule="evenodd" d="M11.7121 9.96581C11.4374 10.0345 11.1969 10.0689 10.9222 10.0689C10.0635 10.0689 9.58264 9.65669 9.58264 8.90107C9.58264 8.00806 10.1665 7.35547 10.9565 7.35547C11.6091 7.35547 12.0213 7.73328 12.0213 8.28283C12.0213 8.48891 11.9869 8.66064 11.9182 8.93542H10.3383C10.3383 8.96976 10.3383 9.00411 10.3383 9.03846C10.3383 9.34758 10.5443 9.48496 11.0252 9.48496C11.3 9.48496 11.5747 9.45062 11.8495 9.31323L11.7121 9.96581ZM11.2656 8.42022C11.2656 8.38587 11.2656 8.31718 11.2656 8.28283C11.2656 8.07675 11.1282 7.93936 10.8878 7.93936C10.6474 7.93936 10.4757 8.1111 10.407 8.42022H11.2656Z" fill="white"/>
<path fillRule="evenodd" clipRule="evenodd" d="M20.0593 8.86672C19.9219 9.72539 19.338 10.1032 18.5137 10.1032C17.655 10.1032 17.2772 9.588 17.2772 8.90107C17.2772 8.00806 17.8955 7.35547 18.8228 7.35547C19.6471 7.35547 20.0593 7.87067 20.0593 8.52326C20.0936 8.69499 20.0936 8.69499 20.0593 8.86672ZM19.235 8.52326C19.235 8.24848 19.1319 8.00806 18.7885 8.00806C18.4107 8.00806 18.1359 8.48891 18.1359 8.90107C18.1359 9.24453 18.3076 9.48496 18.5824 9.48496C18.7541 9.48496 19.1319 9.24454 19.2006 8.86672C19.235 8.72934 19.235 8.6263 19.235 8.52326Z" fill="white"/>
</svg>
