<svg width="18" height="18" viewBox="0 0 18 18" fill="none" xmlns="http://www.w3.org/2000/svg">
<path d="M16.0546 9.40883C15.9146 9.24942 15.8374 9.04448 15.8374 8.83229C15.8374 8.6201 15.9146 8.41516 16.0546 8.25575L17.1728 6.99786C17.296 6.86042 17.3725 6.68749 17.3913 6.50388C17.4102 6.32026 17.3703 6.1354 17.2776 5.97581L15.5305 2.95337C15.4387 2.79396 15.2989 2.66761 15.1311 2.59232C14.9633 2.51703 14.7759 2.49664 14.5958 2.53407L12.9536 2.86601C12.7446 2.90919 12.5271 2.87439 12.342 2.76818C12.1569 2.66196 12.0171 2.49169 11.949 2.28948L11.4161 0.690898C11.3575 0.517395 11.2459 0.366697 11.097 0.260105C10.9481 0.153513 10.7694 0.0964184 10.5863 0.0968911H7.09212C6.90163 0.0869484 6.71312 0.13963 6.55539 0.24689C6.39765 0.35415 6.27936 0.510092 6.21858 0.690898L5.7294 2.28948C5.66127 2.49169 5.52147 2.66196 5.33641 2.76818C5.15134 2.87439 4.9338 2.90919 4.72483 2.86601L3.0389 2.53407C2.86817 2.50994 2.69411 2.53688 2.53866 2.6115C2.38321 2.68611 2.25333 2.80506 2.16536 2.95337L0.418279 5.97581C0.323203 6.13362 0.280454 6.31744 0.296143 6.50101C0.311832 6.68457 0.385156 6.85847 0.505633 6.99786L1.61503 8.25575C1.75507 8.41516 1.83231 8.6201 1.83231 8.83229C1.83231 9.04448 1.75507 9.24942 1.61503 9.40883L0.505633 10.6667C0.385156 10.8061 0.311832 10.98 0.296143 11.1636C0.280454 11.3471 0.323203 11.531 0.418279 11.6888L2.16536 14.7112C2.25717 14.8706 2.39695 14.997 2.56479 15.0723C2.73262 15.1476 2.91994 15.1679 3.10005 15.1305L4.7423 14.7986C4.95127 14.7554 5.16881 14.7902 5.35388 14.8964C5.53894 15.0026 5.67874 15.1729 5.74687 15.3751L6.27973 16.9737C6.34051 17.1545 6.4588 17.3104 6.61654 17.4177C6.77427 17.5249 6.96278 17.5776 7.15327 17.5677H10.6474C10.8306 17.5682 11.0092 17.5111 11.1581 17.4045C11.307 17.2979 11.4187 17.1472 11.4773 16.9737L12.0102 15.3751C12.0783 15.1729 12.2181 15.0026 12.4031 14.8964C12.5882 14.7902 12.8058 14.7554 13.0147 14.7986L14.657 15.1305C14.8371 15.1679 15.0244 15.1476 15.1922 15.0723C15.3601 14.997 15.4999 14.8706 15.5917 14.7112L17.3387 11.6888C17.4315 11.5292 17.4713 11.3443 17.4525 11.1607C17.4336 10.9771 17.3571 10.8042 17.2339 10.6667L16.0546 9.40883ZM14.7531 10.5794L15.4519 11.3656L14.3338 13.3048L13.303 13.0952C12.6738 12.9666 12.0194 13.0734 11.4638 13.3955C10.9083 13.7175 10.4903 14.2324 10.2893 14.8422L9.95733 15.8206H7.72107L7.4066 14.8248C7.20556 14.2149 6.78759 13.7001 6.23204 13.378C5.67649 13.056 5.02203 12.9491 4.39289 13.0777L3.36211 13.2873L2.22651 11.3568L2.92534 10.5706C3.35508 10.0902 3.59266 9.46817 3.59266 8.82355C3.59266 8.17894 3.35508 7.55694 2.92534 7.07647L2.22651 6.29029L3.34464 4.3685L4.37541 4.57815C5.00456 4.70676 5.65902 4.59988 6.21457 4.27783C6.77012 3.95577 7.18809 3.44094 7.38913 2.83107L7.72107 1.84397H9.95733L10.2893 2.83981C10.4903 3.44968 10.9083 3.9645 11.4638 4.28656C12.0194 4.60862 12.6738 4.71549 13.303 4.58689L14.3338 4.37724L15.4519 6.3165L14.7531 7.10268C14.3281 7.58205 14.0935 8.20044 14.0935 8.84103C14.0935 9.48161 14.3281 10.1 14.7531 10.5794ZM8.8392 5.33813C8.14812 5.33813 7.47256 5.54306 6.89795 5.927C6.32334 6.31095 5.87548 6.85666 5.61102 7.49513C5.34656 8.13361 5.27736 8.83617 5.41218 9.51397C5.54701 10.1918 5.87979 10.8144 6.36846 11.303C6.85713 11.7917 7.47973 12.1245 8.15753 12.2593C8.83533 12.3941 9.53789 12.3249 10.1764 12.0605C10.8148 11.796 11.3605 11.3482 11.7445 10.7735C12.1284 10.1989 12.3334 9.52337 12.3334 8.83229C12.3334 7.90558 11.9652 7.01683 11.3099 6.36155C10.6547 5.70626 9.76591 5.33813 8.8392 5.33813ZM8.8392 10.5794C8.49366 10.5794 8.15588 10.4769 7.86858 10.2849C7.58127 10.093 7.35734 9.82011 7.22511 9.50087C7.09288 9.18163 7.05828 8.83035 7.12569 8.49145C7.1931 8.15255 7.3595 7.84125 7.60383 7.59692C7.84816 7.35258 8.15946 7.18619 8.49836 7.11878C8.83727 7.05137 9.18854 7.08597 9.50778 7.2182C9.82702 7.35043 10.0999 7.57436 10.2918 7.86166C10.4838 8.14897 10.5863 8.48675 10.5863 8.83229C10.5863 9.29564 10.4022 9.74002 10.0746 10.0677C9.74693 10.3953 9.30256 10.5794 8.8392 10.5794Z" fill="white"/>
<path d="M16.0546 9.40883C15.9146 9.24942 15.8374 9.04448 15.8374 8.83229C15.8374 8.6201 15.9146 8.41516 16.0546 8.25575L17.1728 6.99786C17.296 6.86042 17.3725 6.68749 17.3913 6.50388C17.4102 6.32026 17.3703 6.1354 17.2776 5.97581L15.5305 2.95337C15.4387 2.79396 15.2989 2.66761 15.1311 2.59232C14.9633 2.51703 14.7759 2.49664 14.5958 2.53407L12.9536 2.86601C12.7446 2.90919 12.5271 2.87439 12.342 2.76818C12.1569 2.66196 12.0171 2.49169 11.949 2.28948L11.4161 0.690898C11.3575 0.517395 11.2459 0.366697 11.097 0.260105C10.9481 0.153513 10.7694 0.0964184 10.5863 0.0968911H7.09212C6.90163 0.0869484 6.71312 0.13963 6.55539 0.24689C6.39765 0.35415 6.27936 0.510092 6.21858 0.690898L5.7294 2.28948C5.66127 2.49169 5.52147 2.66196 5.33641 2.76818C5.15134 2.87439 4.9338 2.90919 4.72483 2.86601L3.0389 2.53407C2.86817 2.50994 2.69411 2.53688 2.53866 2.6115C2.38321 2.68611 2.25333 2.80506 2.16536 2.95337L0.418279 5.97581C0.323203 6.13362 0.280454 6.31744 0.296143 6.50101C0.311832 6.68457 0.385156 6.85847 0.505633 6.99786L1.61503 8.25575C1.75507 8.41516 1.83231 8.6201 1.83231 8.83229C1.83231 9.04448 1.75507 9.24942 1.61503 9.40883L0.505633 10.6667C0.385156 10.8061 0.311832 10.98 0.296143 11.1636C0.280454 11.3471 0.323203 11.531 0.418279 11.6888L2.16536 14.7112C2.25717 14.8706 2.39695 14.997 2.56479 15.0723C2.73262 15.1476 2.91994 15.1679 3.10005 15.1305L4.7423 14.7986C4.95127 14.7554 5.16881 14.7902 5.35388 14.8964C5.53894 15.0026 5.67874 15.1729 5.74687 15.3751L6.27973 16.9737C6.34051 17.1545 6.4588 17.3104 6.61654 17.4177C6.77427 17.5249 6.96278 17.5776 7.15327 17.5677H10.6474C10.8306 17.5682 11.0092 17.5111 11.1581 17.4045C11.307 17.2979 11.4187 17.1472 11.4773 16.9737L12.0102 15.3751C12.0783 15.1729 12.2181 15.0026 12.4031 14.8964C12.5882 14.7902 12.8058 14.7554 13.0147 14.7986L14.657 15.1305C14.8371 15.1679 15.0244 15.1476 15.1922 15.0723C15.3601 14.997 15.4999 14.8706 15.5917 14.7112L17.3387 11.6888C17.4315 11.5292 17.4713 11.3443 17.4525 11.1607C17.4336 10.9771 17.3571 10.8042 17.2339 10.6667L16.0546 9.40883ZM14.7531 10.5794L15.4519 11.3656L14.3338 13.3048L13.303 13.0952C12.6738 12.9666 12.0194 13.0734 11.4638 13.3955C10.9083 13.7175 10.4903 14.2324 10.2893 14.8422L9.95733 15.8206H7.72107L7.4066 14.8248C7.20556 14.2149 6.78759 13.7001 6.23204 13.378C5.67649 13.056 5.02203 12.9491 4.39289 13.0777L3.36211 13.2873L2.22651 11.3568L2.92534 10.5706C3.35508 10.0902 3.59266 9.46817 3.59266 8.82355C3.59266 8.17894 3.35508 7.55694 2.92534 7.07647L2.22651 6.29029L3.34464 4.3685L4.37541 4.57815C5.00456 4.70676 5.65902 4.59988 6.21457 4.27783C6.77012 3.95577 7.18809 3.44094 7.38913 2.83107L7.72107 1.84397H9.95733L10.2893 2.83981C10.4903 3.44968 10.9083 3.9645 11.4638 4.28656C12.0194 4.60862 12.6738 4.71549 13.303 4.58689L14.3338 4.37724L15.4519 6.3165L14.7531 7.10268C14.3281 7.58205 14.0935 8.20044 14.0935 8.84103C14.0935 9.48161 14.3281 10.1 14.7531 10.5794ZM8.8392 5.33813C8.14812 5.33813 7.47256 5.54306 6.89795 5.927C6.32334 6.31095 5.87548 6.85666 5.61102 7.49513C5.34656 8.13361 5.27736 8.83617 5.41218 9.51397C5.54701 10.1918 5.87979 10.8144 6.36846 11.303C6.85713 11.7917 7.47973 12.1245 8.15753 12.2593C8.83533 12.3941 9.53789 12.3249 10.1764 12.0605C10.8148 11.796 11.3605 11.3482 11.7445 10.7735C12.1284 10.1989 12.3334 9.52337 12.3334 8.83229C12.3334 7.90558 11.9652 7.01683 11.3099 6.36155C10.6547 5.70626 9.76591 5.33813 8.8392 5.33813ZM8.8392 10.5794C8.49366 10.5794 8.15588 10.4769 7.86858 10.2849C7.58127 10.093 7.35734 9.82011 7.22511 9.50087C7.09288 9.18163 7.05828 8.83035 7.12569 8.49145C7.1931 8.15255 7.3595 7.84125 7.60383 7.59692C7.84816 7.35258 8.15946 7.18619 8.49836 7.11878C8.83727 7.05137 9.18854 7.08597 9.50778 7.2182C9.82702 7.35043 10.0999 7.57436 10.2918 7.86166C10.4838 8.14897 10.5863 8.48675 10.5863 8.83229C10.5863 9.29564 10.4022 9.74002 10.0746 10.0677C9.74693 10.3953 9.30256 10.5794 8.8392 10.5794Z" fill="url(#paint0_linear_1077_48650)"/>
<defs>
<linearGradient id="paint0_linear_1077_48650" x1="19.9435" y1="20.4164" x2="7.63657" y2="28.3993" gradientUnits="userSpaceOnUse">
<stop stopColor="#F16522"/>
<stop offset="1" stopColor="#EB008B"/>
</linearGradient>
</defs>
</svg>
