<svg width="20" height="20" viewBox="0 0 20 20" fill="none" xmlns="http://www.w3.org/2000/svg">
<path d="M10.3036 0.464844C8.45273 0.464844 6.6434 1.0137 5.10443 2.042C3.56546 3.07031 2.36598 4.53188 1.65768 6.24189C0.949367 7.9519 0.764041 9.83354 1.12513 11.6489C1.48623 13.4642 2.37752 15.1317 3.6863 16.4405C4.99509 17.7493 6.66258 18.6406 8.47792 19.0017C10.2933 19.3628 12.1749 19.1774 13.8849 18.4691C15.5949 17.7608 17.0565 16.5613 18.0848 15.0224C19.1131 13.4834 19.6619 11.6741 19.6619 9.82316C19.6619 7.34118 18.676 4.96086 16.921 3.20583C15.1659 1.45081 12.7856 0.464844 10.3036 0.464844ZM10.3036 17.8446C8.71715 17.8446 7.16629 17.3741 5.84717 16.4927C4.52806 15.6113 3.49993 14.3585 2.89281 12.8928C2.28569 11.4271 2.12684 9.81426 2.43635 8.25826C2.74586 6.70226 3.50982 5.27298 4.63164 4.15116C5.75345 3.02935 7.18273 2.26538 8.73873 1.95588C10.2947 1.64637 11.9076 1.80522 13.3733 2.41234C14.839 3.01946 16.0918 4.04759 16.9732 5.3667C17.8546 6.68582 18.325 8.23667 18.325 9.82316C18.325 11.9506 17.4799 13.9908 15.9756 15.4952C14.4713 16.9995 12.431 17.8446 10.3036 17.8446Z" fill="white"/>
<path d="M10.3036 0.464844C8.45273 0.464844 6.6434 1.0137 5.10443 2.042C3.56546 3.07031 2.36598 4.53188 1.65768 6.24189C0.949367 7.9519 0.764041 9.83354 1.12513 11.6489C1.48623 13.4642 2.37752 15.1317 3.6863 16.4405C4.99509 17.7493 6.66258 18.6406 8.47792 19.0017C10.2933 19.3628 12.1749 19.1774 13.8849 18.4691C15.5949 17.7608 17.0565 16.5613 18.0848 15.0224C19.1131 13.4834 19.6619 11.6741 19.6619 9.82316C19.6619 7.34118 18.676 4.96086 16.921 3.20583C15.1659 1.45081 12.7856 0.464844 10.3036 0.464844ZM10.3036 17.8446C8.71715 17.8446 7.16629 17.3741 5.84717 16.4927C4.52806 15.6113 3.49993 14.3585 2.89281 12.8928C2.28569 11.4271 2.12684 9.81426 2.43635 8.25826C2.74586 6.70226 3.50982 5.27298 4.63164 4.15116C5.75345 3.02935 7.18273 2.26538 8.73873 1.95588C10.2947 1.64637 11.9076 1.80522 13.3733 2.41234C14.839 3.01946 16.0918 4.04759 16.9732 5.3667C17.8546 6.68582 18.325 8.23667 18.325 9.82316C18.325 11.9506 17.4799 13.9908 15.9756 15.4952C14.4713 16.9995 12.431 17.8446 10.3036 17.8446Z" fill="url(#paint0_linear_1077_48656)"/>
<path d="M9.86224 16.5604C10.442 16.5604 10.912 16.0904 10.912 15.5107C10.912 14.9309 10.442 14.4609 9.86224 14.4609C9.28249 14.4609 8.8125 14.9309 8.8125 15.5107C8.8125 16.0904 9.28249 16.5604 9.86224 16.5604Z" fill="white"/>
<path d="M9.86224 16.5604C10.442 16.5604 10.912 16.0904 10.912 15.5107C10.912 14.9309 10.442 14.4609 9.86224 14.4609C9.28249 14.4609 8.8125 14.9309 8.8125 15.5107C8.8125 16.0904 9.28249 16.5604 9.86224 16.5604Z" fill="url(#paint1_linear_1077_48656)"/>
<path d="M10.9717 4.47462H9.96897C9.57371 4.47374 9.18216 4.55094 8.81681 4.70179C8.45146 4.85265 8.11951 5.07419 7.84001 5.35368C7.56051 5.63318 7.33898 5.96513 7.18812 6.33048C7.03727 6.69583 6.96006 7.08738 6.96094 7.48265V7.81687H8.29785V7.48265C8.29785 7.03944 8.47391 6.61438 8.78731 6.30098C9.10071 5.98758 9.52576 5.81152 9.96897 5.81152H10.9717C11.4149 5.81152 11.8399 5.98758 12.1533 6.30098C12.4667 6.61438 12.6428 7.03944 12.6428 7.48265C12.6428 7.92586 12.4667 8.35091 12.1533 8.66431C11.8399 8.97771 11.4149 9.15377 10.9717 9.15377H9.63475V12.1618H10.9717V10.4907C11.7694 10.4907 12.5345 10.1738 13.0986 9.60964C13.6628 9.04553 13.9797 8.28043 13.9797 7.48265C13.9797 6.68487 13.6628 5.91976 13.0986 5.35565C12.5345 4.79153 11.7694 4.47462 10.9717 4.47462Z" fill="white"/>
<path d="M10.9717 4.47462H9.96897C9.57371 4.47374 9.18216 4.55094 8.81681 4.70179C8.45146 4.85265 8.11951 5.07419 7.84001 5.35368C7.56051 5.63318 7.33898 5.96513 7.18812 6.33048C7.03727 6.69583 6.96006 7.08738 6.96094 7.48265V7.81687H8.29785V7.48265C8.29785 7.03944 8.47391 6.61438 8.78731 6.30098C9.10071 5.98758 9.52576 5.81152 9.96897 5.81152H10.9717C11.4149 5.81152 11.8399 5.98758 12.1533 6.30098C12.4667 6.61438 12.6428 7.03944 12.6428 7.48265C12.6428 7.92586 12.4667 8.35091 12.1533 8.66431C11.8399 8.97771 11.4149 9.15377 10.9717 9.15377H9.63475V12.1618H10.9717V10.4907C11.7694 10.4907 12.5345 10.1738 13.0986 9.60964C13.6628 9.04553 13.9797 8.28043 13.9797 7.48265C13.9797 6.68487 13.6628 5.91976 13.0986 5.35565C12.5345 4.79153 11.7694 4.47462 10.9717 4.47462Z" fill="url(#paint2_linear_1077_48656)"/>
<defs>
<linearGradient id="paint0_linear_1077_48656" x1="22.3733" y1="22.2316" x2="9.09608" y2="30.999" gradientUnits="userSpaceOnUse">
<stop stopColor="#F16522"/>
<stop offset="1" stopColor="#EB008B"/>
</linearGradient>
<linearGradient id="paint1_linear_1077_48656" x1="11.2161" y1="16.9026" x2="9.72679" y2="17.886" gradientUnits="userSpaceOnUse">
<stop stopColor="#F16522"/>
<stop offset="1" stopColor="#EB008B"/>
</linearGradient>
<linearGradient id="paint2_linear_1077_48656" x1="14.9965" y1="13.4145" x2="9.75261" y2="16.5761" gradientUnits="userSpaceOnUse">
<stop stopColor="#F16522"/>
<stop offset="1" stopColor="#EB008B"/>
</linearGradient>
</defs>
</svg>
