<svg width="24" height="17" viewBox="0 0 24 17" fill="none" xmlns="http://www.w3.org/2000/svg">
<rect x="0.710266" y="0.382812" width="23.0123" height="16.1429" rx="2.75275" fill="white"/>
<path d="M8.81424 5.63672L7.33733 9.55224L7.1656 8.76226C6.82213 7.80056 6.1352 6.94189 5.1048 6.358L6.44432 11.3726H8.02426L10.3598 5.63672H8.81424Z" fill="#0058A0"/>
<path d="M9.70258 11.407L10.6299 5.63672H12.1412L11.1795 11.407H9.70258Z" fill="#0058A0"/>
<path d="M16.2322 5.77558C15.923 5.67254 15.4765 5.53516 14.8926 5.53516C13.4157 5.53516 12.3853 6.32513 12.3853 7.45857C12.3853 8.28289 13.141 8.7294 13.6905 9.03852C14.2744 9.31329 14.4805 9.48502 14.4805 9.75979C14.4805 10.1376 13.9996 10.3093 13.5875 10.3093C13.0036 10.3093 12.6601 10.2406 12.1792 10.0002L11.9732 9.89718L11.7671 11.168C12.1106 11.3397 12.7631 11.4771 13.4157 11.4771C14.9957 11.4771 15.9917 10.7215 16.0261 9.51937C16.0261 8.86678 15.6483 8.35158 14.7552 7.97377C14.24 7.699 13.8966 7.52726 13.9309 7.25249C13.9309 7.01206 14.2057 6.77164 14.7896 6.77164C15.2704 6.77164 15.6139 6.87468 15.923 6.97772L16.0604 7.04641L16.2322 5.77558Z" fill="#0058A0"/>
<path d="M19.8766 5.63672H18.7088C18.3654 5.63672 18.0906 5.73976 17.9189 6.11757L15.6863 11.3726H17.2663C17.2663 11.3726 17.5067 10.6513 17.5754 10.5139C17.7471 10.5139 19.2584 10.5139 19.4988 10.5139C19.5332 10.72 19.6706 11.3726 19.6706 11.3726H21.0444L19.8766 5.63672ZM18.0219 9.34616C18.1593 9.00269 18.6058 7.73186 18.6058 7.73186C18.6058 7.73186 18.7432 7.3884 18.8119 7.18232L18.9149 7.66317C18.9149 7.66317 19.1897 9.03704 19.2584 9.31181C19.0523 9.34616 18.331 9.34616 18.0219 9.34616Z" fill="#0058A0"/>
<path d="M5.99576 5.63672H3.59149V5.73976C5.48056 6.22061 6.68269 7.3884 7.19789 8.76226L6.68269 6.11757C6.57965 5.77411 6.33922 5.67107 5.99576 5.63672Z" fill="#FAA61A"/>
<path d="M2.15173 16.6288C1.36175 16.6288 0.709167 15.9762 0.709167 15.1862V1.79103C0.709167 1.0354 1.36175 0.382812 2.15173 0.382812H22.5193C23.3093 0.382812 23.9619 1.0354 23.9619 1.82537V15.2206C23.9619 16.0105 23.3093 16.6631 22.5193 16.6631L2.15173 16.6288ZM22.5193 0.726279H2.15173C1.53349 0.726279 1.05263 1.20713 1.05263 1.82537V15.2206C1.05263 15.8388 1.53349 16.3197 2.15173 16.3197H22.5193C23.1375 16.3197 23.6184 15.8388 23.6184 15.2206V1.82537C23.6184 1.20713 23.1375 0.726279 22.5193 0.726279Z" fill="#929497"/>
</svg>
