<svg width="19" height="16" viewBox="0 0 19 16" fill="none" xmlns="http://www.w3.org/2000/svg">
<path fillRule="evenodd" clipRule="evenodd" d="M7.60828 0.677734H10.2016C11.7333 0.677734 12.9466 0.677734 13.8958 0.805234C14.8724 0.936901 15.6633 1.21357 16.2874 1.8369C17.0574 2.60773 17.3033 3.6394 17.3924 4.97857C17.8733 5.1894 18.2366 5.6369 18.2758 6.20357C18.2799 6.2544 18.2799 6.30857 18.2799 6.35857V9.58023C18.2799 9.63023 18.2799 9.6844 18.2766 9.7344C18.2366 10.3011 17.8733 10.7494 17.3924 10.9611C17.3033 12.2994 17.0574 13.3311 16.2874 14.1019C15.6633 14.7252 14.8724 15.0019 13.8958 15.1336C12.9458 15.2611 11.7333 15.2611 10.2016 15.2611H7.60828C6.07661 15.2611 4.86328 15.2611 3.91411 15.1336C2.93745 15.0019 2.14661 14.7252 1.52245 14.1019C0.899115 13.4777 0.622448 12.6869 0.490781 11.7102C0.363281 10.7602 0.363281 9.54773 0.363281 8.01607V7.92273C0.363281 6.39107 0.363281 5.17773 0.490781 4.22857C0.622448 3.2519 0.899115 2.46107 1.52245 1.8369C2.14661 1.21357 2.93745 0.936901 3.91411 0.805234C4.86411 0.677734 6.07661 0.677734 7.60828 0.677734ZM16.1283 11.0944H14.5133C12.7258 11.0944 11.1958 9.73773 11.1958 7.9694C11.1958 6.20107 12.7258 4.8444 14.5124 4.8444H16.1274C16.0324 3.7269 15.8183 3.13607 15.4024 2.72107C15.0499 2.36857 14.5666 2.1569 13.7283 2.0444C12.8724 1.9294 11.7433 1.92773 10.1541 1.92773H7.65411C6.06495 1.92773 4.93661 1.9294 4.07911 2.0444C3.24161 2.1569 2.75828 2.36857 2.40578 2.72107C2.05328 3.07357 1.84161 3.5569 1.72911 4.39523C1.61411 5.2519 1.61245 6.38023 1.61245 7.9694C1.61245 9.55857 1.61411 10.6877 1.72911 11.5444C1.84161 12.3819 2.05328 12.8652 2.40578 13.2177C2.75828 13.5702 3.24161 13.7819 4.07995 13.8944C4.93661 14.0094 6.06495 14.0111 7.65411 14.0111H10.1541C11.7433 14.0111 12.8724 14.0094 13.7291 13.8944C14.5666 13.7819 15.0499 13.5702 15.4024 13.2177C15.8183 12.8027 16.0333 12.2127 16.1283 11.0944ZM3.69661 4.63607C3.69661 4.47031 3.76246 4.31134 3.87967 4.19413C3.99688 4.07692 4.15585 4.01107 4.32161 4.01107H7.65495C7.82071 4.01107 7.97968 4.07692 8.09689 4.19413C8.2141 4.31134 8.27995 4.47031 8.27995 4.63607C8.27995 4.80183 8.2141 4.9608 8.09689 5.07801C7.97968 5.19522 7.82071 5.26107 7.65495 5.26107H4.32161C4.15585 5.26107 3.99688 5.19522 3.87967 5.07801C3.76246 4.9608 3.69661 4.80183 3.69661 4.63607ZM16.7583 6.0944H14.5133C13.3266 6.0944 12.4458 6.9769 12.4458 7.9694C12.4458 8.9619 13.3266 9.8444 14.5124 9.8444H16.7774C16.9491 9.83357 17.0233 9.71773 17.0291 9.64773V6.29107C17.0233 6.22107 16.9491 6.10523 16.7774 6.09523L16.7583 6.0944Z" fill="#828D9E"/>
<path fillRule="evenodd" clipRule="evenodd" d="M7.60828 0.677734H10.2016C11.7333 0.677734 12.9466 0.677734 13.8958 0.805234C14.8724 0.936901 15.6633 1.21357 16.2874 1.8369C17.0574 2.60773 17.3033 3.6394 17.3924 4.97857C17.8733 5.1894 18.2366 5.6369 18.2758 6.20357C18.2799 6.2544 18.2799 6.30857 18.2799 6.35857V9.58023C18.2799 9.63023 18.2799 9.6844 18.2766 9.7344C18.2366 10.3011 17.8733 10.7494 17.3924 10.9611C17.3033 12.2994 17.0574 13.3311 16.2874 14.1019C15.6633 14.7252 14.8724 15.0019 13.8958 15.1336C12.9458 15.2611 11.7333 15.2611 10.2016 15.2611H7.60828C6.07661 15.2611 4.86328 15.2611 3.91411 15.1336C2.93745 15.0019 2.14661 14.7252 1.52245 14.1019C0.899115 13.4777 0.622448 12.6869 0.490781 11.7102C0.363281 10.7602 0.363281 9.54773 0.363281 8.01607V7.92273C0.363281 6.39107 0.363281 5.17773 0.490781 4.22857C0.622448 3.2519 0.899115 2.46107 1.52245 1.8369C2.14661 1.21357 2.93745 0.936901 3.91411 0.805234C4.86411 0.677734 6.07661 0.677734 7.60828 0.677734ZM16.1283 11.0944H14.5133C12.7258 11.0944 11.1958 9.73773 11.1958 7.9694C11.1958 6.20107 12.7258 4.8444 14.5124 4.8444H16.1274C16.0324 3.7269 15.8183 3.13607 15.4024 2.72107C15.0499 2.36857 14.5666 2.1569 13.7283 2.0444C12.8724 1.9294 11.7433 1.92773 10.1541 1.92773H7.65411C6.06495 1.92773 4.93661 1.9294 4.07911 2.0444C3.24161 2.1569 2.75828 2.36857 2.40578 2.72107C2.05328 3.07357 1.84161 3.5569 1.72911 4.39523C1.61411 5.2519 1.61245 6.38023 1.61245 7.9694C1.61245 9.55857 1.61411 10.6877 1.72911 11.5444C1.84161 12.3819 2.05328 12.8652 2.40578 13.2177C2.75828 13.5702 3.24161 13.7819 4.07995 13.8944C4.93661 14.0094 6.06495 14.0111 7.65411 14.0111H10.1541C11.7433 14.0111 12.8724 14.0094 13.7291 13.8944C14.5666 13.7819 15.0499 13.5702 15.4024 13.2177C15.8183 12.8027 16.0333 12.2127 16.1283 11.0944ZM3.69661 4.63607C3.69661 4.47031 3.76246 4.31134 3.87967 4.19413C3.99688 4.07692 4.15585 4.01107 4.32161 4.01107H7.65495C7.82071 4.01107 7.97968 4.07692 8.09689 4.19413C8.2141 4.31134 8.27995 4.47031 8.27995 4.63607C8.27995 4.80183 8.2141 4.9608 8.09689 5.07801C7.97968 5.19522 7.82071 5.26107 7.65495 5.26107H4.32161C4.15585 5.26107 3.99688 5.19522 3.87967 5.07801C3.76246 4.9608 3.69661 4.80183 3.69661 4.63607ZM16.7583 6.0944H14.5133C13.3266 6.0944 12.4458 6.9769 12.4458 7.9694C12.4458 8.9619 13.3266 9.8444 14.5124 9.8444H16.7774C16.9491 9.83357 17.0233 9.71773 17.0291 9.64773V6.29107C17.0233 6.22107 16.9491 6.10523 16.7774 6.09523L16.7583 6.0944Z" fill="url(#paint0_linear_1077_48648)"/>
<defs>
<linearGradient id="paint0_linear_1077_48648" x1="20.8754" y1="17.6376" x2="9.86817" y2="26.5674" gradientUnits="userSpaceOnUse">
<stop stopColor="#F16522"/>
<stop offset="1" stopColor="#EB008B"/>
</linearGradient>
</defs>
</svg>
 