<svg width="7" height="14" viewBox="0 0 7 14" fill="none" xmlns="http://www.w3.org/2000/svg">
<path d="M0.344039 2.3556L4.1859 7.33719L0.201748 12.3095C0.127004 12.4033 0.070705 12.5115 0.036064 12.628C0.00142304 12.7445 -0.0108812 12.867 -0.000145632 12.9885C0.0105899 13.1099 0.0441548 13.228 0.0986325 13.3359C0.15311 13.4439 0.227434 13.5395 0.31736 13.6175C0.407286 13.6955 0.511053 13.7542 0.622738 13.7903C0.734422 13.8265 0.851835 13.8393 0.968274 13.8281C1.08471 13.8169 1.1979 13.7819 1.30137 13.7251C1.40483 13.6682 1.49656 13.5907 1.5713 13.4969L6.0179 7.9309C6.1487 7.76491 6.22021 7.5567 6.22021 7.34183C6.22021 7.12696 6.1487 6.91875 6.0179 6.75276L1.72248 1.18674C1.64909 1.09145 1.55837 1.01222 1.45554 0.953613C1.3527 0.895009 1.23977 0.858183 1.12325 0.845252C1.00672 0.832321 0.888891 0.843539 0.776535 0.878263C0.664179 0.912988 0.55951 0.970532 0.468543 1.04759C0.377842 1.12481 0.302649 1.21995 0.247279 1.32755C0.191909 1.43515 0.157452 1.5531 0.145884 1.67463C0.134317 1.79615 0.145867 1.91887 0.179871 2.03572C0.213875 2.15258 0.269665 2.26129 0.344039 2.3556Z" fill="#1E1E1E"/>
<path d="M0.344039 2.3556L4.1859 7.33719L0.201748 12.3095C0.127004 12.4033 0.070705 12.5115 0.036064 12.628C0.00142304 12.7445 -0.0108812 12.867 -0.000145632 12.9885C0.0105899 13.1099 0.0441548 13.228 0.0986325 13.3359C0.15311 13.4439 0.227434 13.5395 0.31736 13.6175C0.407286 13.6955 0.511053 13.7542 0.622738 13.7903C0.734422 13.8265 0.851835 13.8393 0.968274 13.8281C1.08471 13.8169 1.1979 13.7819 1.30137 13.7251C1.40483 13.6682 1.49656 13.5907 1.5713 13.4969L6.0179 7.9309C6.1487 7.76491 6.22021 7.5567 6.22021 7.34183C6.22021 7.12696 6.1487 6.91875 6.0179 6.75276L1.72248 1.18674C1.64909 1.09145 1.55837 1.01222 1.45554 0.953613C1.3527 0.895009 1.23977 0.858183 1.12325 0.845252C1.00672 0.832321 0.888891 0.843539 0.776535 0.878263C0.664179 0.912988 0.55951 0.970532 0.468543 1.04759C0.377842 1.12481 0.302649 1.21995 0.247279 1.32755C0.191909 1.43515 0.157452 1.5531 0.145884 1.67463C0.134317 1.79615 0.145867 1.91887 0.179871 2.03572C0.213875 2.15258 0.269665 2.26129 0.344039 2.3556Z" fill="white"/>
</svg>
