<svg width="17" height="18" viewBox="0 0 17 18" fill="none" xmlns="http://www.w3.org/2000/svg">
<path d="M1.45117 4.3123L3.85117 1.1123H13.4512L15.8512 4.3123M1.45117 4.3123V15.5123C1.45117 15.9367 1.61974 16.3436 1.9198 16.6437C2.21986 16.9437 2.62683 17.1123 3.05117 17.1123H14.2512C14.6755 17.1123 15.0825 16.9437 15.3825 16.6437C15.6826 16.3436 15.8512 15.9367 15.8512 15.5123V4.3123M1.45117 4.3123H15.8512M11.8512 7.5123C11.8512 8.361 11.514 9.17493 10.9139 9.77505C10.3138 10.3752 9.49986 10.7123 8.65117 10.7123C7.80248 10.7123 6.98855 10.3752 6.38843 9.77505C5.78831 9.17493 5.45117 8.361 5.45117 7.5123" stroke="white" strokeWidth="1.6" stroke-linecap="round" strokeLinejoin="round"/>
</svg>
