<svg width="34" height="33" viewBox="0 0 34 33" fill="none" xmlns="http://www.w3.org/2000/svg">
<g clip-path="url(#clip0_287_4604)">
<path d="M19.8497 5.56735C17.8083 5.07953 15.6567 5.42262 13.8683 6.52115C12.0799 7.61968 10.8011 9.38367 10.3133 11.425L9.38629 15.3043C9.34569 15.475 9.26595 15.6338 9.15338 15.7683L6.36336 19.0919C6.22706 19.2543 6.13454 19.4488 6.09458 19.657C6.05462 19.8652 6.06856 20.0802 6.13505 20.2815C6.20155 20.4828 6.3184 20.6638 6.47452 20.8072C6.63063 20.9506 6.82082 21.0518 7.02702 21.101L24.2639 25.2201C24.4701 25.2694 24.6855 25.2651 24.8896 25.2078C25.0937 25.1504 25.2797 25.0418 25.4301 24.8924C25.5804 24.7429 25.69 24.5574 25.7485 24.3537C25.807 24.1499 25.8124 23.9345 25.7642 23.7281L24.7794 19.5024C24.7394 19.3315 24.7397 19.1537 24.7803 18.983L25.7074 15.1037C26.1952 13.0623 25.8521 10.9108 24.7535 9.12235C23.655 7.33394 21.891 6.05517 19.8497 5.56735ZM14.8572 26.4593C14.1747 26.2965 13.5594 25.9261 13.0962 25.3991C12.633 24.872 12.3447 24.2143 12.2709 23.5165L18.4945 25.0037C18.1133 25.5928 17.5587 26.0491 16.9073 26.3098C16.2558 26.5705 15.5396 26.6227 14.8572 26.4593Z" fill="#4A4A4A"/>
</g>
<defs>
<clipPath id="clip0_287_4604">
<rect width="27.1328" height="27.1328" fill="white" transform="translate(7.18066 0.214844) rotate(13.4397)"/>
</clipPath>
</defs>
</svg>
