<svg width="19" height="19" viewBox="0 0 19 19" fill="none" xmlns="http://www.w3.org/2000/svg">
<g clip-path="url(#clip0_7_16667)">
<path d="M3.22369 13.8274C3.34345 13.9476 3.43522 14.0928 3.49246 14.2525C3.5497 14.4123 3.57099 14.5827 3.55483 14.7516C3.47354 15.5334 3.31981 16.3059 3.09562 17.0592C4.70518 16.6865 5.68822 16.255 6.13475 16.0289C6.38801 15.9006 6.67968 15.8702 6.95395 15.9435C7.74004 16.1539 8.5505 16.2594 9.36426 16.2573C13.9749 16.2573 17.4409 13.0186 17.4409 9.33447C17.4409 5.65036 13.9749 2.41162 9.36426 2.41162C4.75364 2.41162 1.2876 5.65152 1.2876 9.33447C1.2876 11.0283 1.9995 12.5998 3.22369 13.8274ZM2.65486 18.333C2.38147 18.3872 2.10722 18.4368 1.8322 18.4819C1.60143 18.5188 1.42605 18.2788 1.51721 18.0642C1.61938 17.8225 1.71328 17.5773 1.79873 17.3292L1.8022 17.3177C2.08834 16.4869 2.32141 15.5316 2.40679 14.642C0.991069 13.2228 0.133789 11.3652 0.133789 9.33447C0.133789 4.87385 4.26673 1.25781 9.36426 1.25781C14.4618 1.25781 18.5947 4.87385 18.5947 9.33447C18.5947 13.7951 14.4618 17.4111 9.36426 17.4111C8.44999 17.4132 7.53945 17.2945 6.65627 17.0581C6.05629 17.3615 4.76518 17.9142 2.65486 18.333Z" fill="#828D9E"/>
</g>
<defs>
<clipPath id="clip0_7_16667">
<rect width="18.4609" height="18.4609" fill="white" transform="translate(0.133789 0.103516)"/>
</clipPath>
</defs>
</svg>
