<svg width="27" height="25" viewBox="0 0 27 25" fill="none" xmlns="http://www.w3.org/2000/svg">
<path fill-rule="evenodd" clip-rule="evenodd" d="M1.67182 0.0625C1.37864 0.0625 1.09748 0.178962 0.890173 0.386267C0.682869 0.593572 0.566406 0.874737 0.566406 1.16791C0.566406 1.46108 0.682869 1.74225 0.890173 1.94955C1.09748 2.15686 1.37864 2.27332 1.67182 2.27332H3.69693L6.47962 17.5781C6.52588 17.8329 6.66011 18.0633 6.85889 18.2292C7.05768 18.3952 7.30841 18.486 7.56734 18.486H22.3061C22.5527 18.4861 22.7923 18.4038 22.9867 18.2521C23.1812 18.1004 23.3193 17.8881 23.3791 17.6488L26.3269 5.8578C26.3677 5.69477 26.3707 5.52459 26.3359 5.3602C26.301 5.1958 26.2291 5.04152 26.1257 4.90909C26.0222 4.77665 25.8899 4.66954 25.7389 4.59591C25.5878 4.52227 25.422 4.48405 25.2539 4.48414H6.34549L5.7073 0.970411C5.66104 0.715643 5.52681 0.485201 5.32802 0.319276C5.12924 0.153352 4.87851 0.0624766 4.61958 0.0625H1.67182ZM8.48999 16.2752L6.74786 6.69496H23.839L21.4439 16.2752H8.48999ZM12.1953 10.3797C11.9022 10.3797 11.621 10.4961 11.4137 10.7034C11.2064 10.9107 11.0899 11.1919 11.0899 11.4851C11.0899 11.7782 11.2064 12.0594 11.4137 12.2667C11.621 12.474 11.9022 12.5905 12.1953 12.5905H18.0908C18.384 12.5905 18.6652 12.474 18.8725 12.2667C19.0798 12.0594 19.1963 11.7782 19.1963 11.4851C19.1963 11.1919 19.0798 10.9107 18.8725 10.7034C18.6652 10.4961 18.384 10.3797 18.0908 10.3797H12.1953ZM10.1466 19.9599C9.56028 19.9599 8.99795 20.1928 8.58334 20.6074C8.16873 21.022 7.93581 21.5844 7.93581 22.1707C7.93581 22.7571 8.16873 23.3194 8.58334 23.734C8.99795 24.1486 9.56028 24.3815 10.1466 24.3815C10.733 24.3815 11.2953 24.1486 11.7099 23.734C12.1245 23.3194 12.3575 22.7571 12.3575 22.1707C12.3575 21.5844 12.1245 21.022 11.7099 20.6074C11.2953 20.1928 10.733 19.9599 10.1466 19.9599ZM17.516 22.1707C17.516 21.5844 17.749 21.022 18.1636 20.6074C18.5782 20.1928 19.1405 19.9599 19.7269 19.9599C20.3132 19.9599 20.8755 20.1928 21.2901 20.6074C21.7048 21.022 21.9377 21.5844 21.9377 22.1707C21.9377 22.7571 21.7048 23.3194 21.2901 23.734C20.8755 24.1486 20.3132 24.3815 19.7269 24.3815C19.1405 24.3815 18.5782 24.1486 18.1636 23.734C17.749 23.3194 17.516 22.7571 17.516 22.1707Z" fill="#A7A7A7"/>
<path fill-rule="evenodd" clip-rule="evenodd" d="M1.67182 0.0625C1.37864 0.0625 1.09748 0.178962 0.890173 0.386267C0.682869 0.593572 0.566406 0.874737 0.566406 1.16791C0.566406 1.46108 0.682869 1.74225 0.890173 1.94955C1.09748 2.15686 1.37864 2.27332 1.67182 2.27332H3.69693L6.47962 17.5781C6.52588 17.8329 6.66011 18.0633 6.85889 18.2292C7.05768 18.3952 7.30841 18.486 7.56734 18.486H22.3061C22.5527 18.4861 22.7923 18.4038 22.9867 18.2521C23.1812 18.1004 23.3193 17.8881 23.3791 17.6488L26.3269 5.8578C26.3677 5.69477 26.3707 5.52459 26.3359 5.3602C26.301 5.1958 26.2291 5.04152 26.1257 4.90909C26.0222 4.77665 25.8899 4.66954 25.7389 4.59591C25.5878 4.52227 25.422 4.48405 25.2539 4.48414H6.34549L5.7073 0.970411C5.66104 0.715643 5.52681 0.485201 5.32802 0.319276C5.12924 0.153352 4.87851 0.0624766 4.61958 0.0625H1.67182ZM8.48999 16.2752L6.74786 6.69496H23.839L21.4439 16.2752H8.48999ZM12.1953 10.3797C11.9022 10.3797 11.621 10.4961 11.4137 10.7034C11.2064 10.9107 11.0899 11.1919 11.0899 11.4851C11.0899 11.7782 11.2064 12.0594 11.4137 12.2667C11.621 12.474 11.9022 12.5905 12.1953 12.5905H18.0908C18.384 12.5905 18.6652 12.474 18.8725 12.2667C19.0798 12.0594 19.1963 11.7782 19.1963 11.4851C19.1963 11.1919 19.0798 10.9107 18.8725 10.7034C18.6652 10.4961 18.384 10.3797 18.0908 10.3797H12.1953ZM10.1466 19.9599C9.56028 19.9599 8.99795 20.1928 8.58334 20.6074C8.16873 21.022 7.93581 21.5844 7.93581 22.1707C7.93581 22.7571 8.16873 23.3194 8.58334 23.734C8.99795 24.1486 9.56028 24.3815 10.1466 24.3815C10.733 24.3815 11.2953 24.1486 11.7099 23.734C12.1245 23.3194 12.3575 22.7571 12.3575 22.1707C12.3575 21.5844 12.1245 21.022 11.7099 20.6074C11.2953 20.1928 10.733 19.9599 10.1466 19.9599ZM17.516 22.1707C17.516 21.5844 17.749 21.022 18.1636 20.6074C18.5782 20.1928 19.1405 19.9599 19.7269 19.9599C20.3132 19.9599 20.8755 20.1928 21.2901 20.6074C21.7048 21.022 21.9377 21.5844 21.9377 22.1707C21.9377 22.7571 21.7048 23.3194 21.2901 23.734C20.8755 24.1486 20.3132 24.3815 19.7269 24.3815C19.1405 24.3815 18.5782 24.1486 18.1636 23.734C17.749 23.3194 17.516 22.7571 17.516 22.1707Z" fill="#4A4A4A"/>
</svg>
