<svg width="27" height="23" viewBox="0 0 27 23" fill="none" xmlns="http://www.w3.org/2000/svg">
<path d="M8.59093 22.3778H5.20515V8.47512L3.01788 3.2017H0.411133V0.804688H4.63586L6.6134 5.59871H26.2689L21.9842 14.0182C23.003 14.178 23.8571 14.6474 24.5466 15.4265C25.2354 16.2055 25.5797 17.1243 25.5797 18.183C25.5797 19.3416 25.1754 20.3303 24.3669 21.1493C23.5575 21.9683 22.5735 22.3778 21.4149 22.3778C20.2364 22.3778 19.2428 21.9683 18.4343 21.1493C17.6249 20.3303 17.2202 19.3416 17.2202 18.183C17.2202 17.7835 17.2701 17.414 17.37 17.0744C17.4699 16.7348 17.6097 16.4052 17.7895 16.0856L13.8644 15.7261L8.59093 22.3778ZM19.4074 13.8384L22.3737 7.99572L7.60216 8.02568L9.66958 12.9396L19.4074 13.8384ZM7.60216 13.6287V19.9508L11.1677 15.4864L8.26134 15.2167L7.60216 13.6287ZM21.385 19.9808C21.9043 19.9808 22.3338 19.8058 22.6734 19.4558C23.0129 19.1067 23.1827 18.6824 23.1827 18.183C23.1827 17.6637 23.0129 17.2342 22.6734 16.8946C22.3338 16.555 21.9043 16.3853 21.385 16.3853C20.8856 16.3853 20.4613 16.555 20.1122 16.8946C19.7622 17.2342 19.5872 17.6637 19.5872 18.183C19.5872 18.6824 19.7622 19.1067 20.1122 19.4558C20.4613 19.8058 20.8856 19.9808 21.385 19.9808ZM19.4074 13.8384L9.66958 12.9396L19.4074 13.8384Z" fill="white"/>
</svg>
