<svg width="24" height="24" viewBox="0 0 24 24" fill="none" xmlns="http://www.w3.org/2000/svg">
<g clip-path="url(#clip0_1_2)">
<path d="M19.698 16.147L19.695 16.143C19.874 15.833 19.908 15.46 19.789 15.122C19.6767 14.8146 19.4472 14.5642 19.1506 14.4257C18.8541 14.2872 18.5148 14.2718 18.207 14.383H18.2L17.017 14.824C17.0317 14.5818 16.9727 14.3409 16.848 14.1328C16.7232 13.9247 16.5385 13.7592 16.318 13.658C16.1701 13.5891 16.0101 13.55 15.8471 13.543C15.6841 13.5359 15.5213 13.5611 15.368 13.617H15.367L13.163 14.44C13.173 14.213 13.1154 13.9882 12.9976 13.794C12.8797 13.5998 12.7069 13.4449 12.501 13.349C12.3583 13.2812 12.2035 13.2426 12.0457 13.2353C11.8879 13.2281 11.7303 13.2525 11.582 13.307L7.548 14.803C7.40031 14.7481 7.25394 14.6898 7.109 14.628C6.59355 14.3825 6.03014 14.2542 5.45923 14.2523C4.88832 14.2504 4.32407 14.375 3.807 14.617C3.765 14.3963 3.64754 14.1971 3.47476 14.0535C3.30199 13.9099 3.08465 13.8309 2.86 13.83H0.966C0.710044 13.8308 0.464798 13.9328 0.283809 14.1138C0.10282 14.2948 0.000791214 14.54 0 14.796V20.331C0.000528457 20.587 0.102473 20.8324 0.283519 21.0135C0.464564 21.1945 0.709963 21.2965 0.966 21.297H2.86C3.07352 21.2964 3.28083 21.2251 3.44961 21.0944C3.61838 20.9636 3.73912 20.7806 3.793 20.574C4.76628 20.5955 5.73037 20.7675 6.651 21.084L8.821 21.733C9.305 21.86 9.804 21.92 10.304 21.913C10.8296 21.921 11.3538 21.855 11.861 21.717C12.973 21.373 14.742 20.696 15.442 20.414L19.771 18.653C19.9306 18.5858 20.0734 18.4843 20.1894 18.3557C20.3053 18.2272 20.3916 18.0746 20.442 17.909C20.5066 17.7013 20.5265 17.4822 20.5003 17.2662C20.4741 17.0502 20.4024 16.8423 20.29 16.656C20.1496 16.4296 19.9429 16.2519 19.698 16.147ZM3.101 20.331C3.10049 20.3949 3.07499 20.4561 3.02996 20.5016C2.98493 20.547 2.92394 20.573 2.86 20.574H0.966C0.901726 20.5737 0.840174 20.548 0.794819 20.5025C0.749464 20.4569 0.723999 20.3953 0.724 20.331V14.796C0.724 14.662 0.832 14.554 0.966 14.554H2.86C2.993 14.556 3.1 14.663 3.102 14.796L3.101 20.331ZM16.355 15.846C16.3713 15.8409 16.3873 15.8349 16.403 15.828L18.451 15.063C18.5138 15.0394 18.5806 15.0285 18.6476 15.0308C18.7146 15.033 18.7805 15.0485 18.8415 15.0763C18.9025 15.104 18.9575 15.1436 19.0032 15.1926C19.0489 15.2416 19.0845 15.2992 19.108 15.362C19.1522 15.4874 19.1448 15.6263 19.0874 15.7463C19.03 15.8663 18.9274 15.9586 18.802 16.003L13.595 17.943C13.5937 17.6007 13.4798 17.2683 13.271 16.997L16.355 15.846ZM15.612 14.299C15.7423 14.2522 15.8858 14.2579 16.012 14.315C16.132 14.371 16.225 14.472 16.269 14.597C16.3041 14.6994 16.3056 14.8104 16.2734 14.9137C16.2412 15.0171 16.177 15.1076 16.09 15.172L12.496 16.511L11.032 16.007L15.612 14.299ZM11.824 13.993C11.8786 13.9724 11.9368 13.9629 11.9951 13.9648C12.0534 13.9667 12.1108 13.9801 12.164 14.0042C12.2172 14.0283 12.2651 14.0626 12.3049 14.1052C12.3448 14.1478 12.3759 14.1979 12.3965 14.2525C12.4171 14.3071 12.4266 14.3653 12.4247 14.4236C12.4228 14.4819 12.4094 14.5393 12.3853 14.5925C12.3612 14.6457 12.3269 14.6935 12.2843 14.7334C12.2417 14.7733 12.1916 14.8044 12.137 14.825L12.114 14.835L9.956 15.635L8.629 15.175L11.824 13.993ZM19.762 17.686L19.756 17.687C19.7377 17.7522 19.7052 17.8126 19.661 17.8639C19.6168 17.9153 19.5618 17.9562 19.5 17.984L15.172 19.746C14.482 20.026 12.74 20.69 11.649 21.027C10.7899 21.2431 9.89132 21.2479 9.03 21.041L6.86 20.392C5.88315 20.0582 4.861 19.8758 3.829 19.851V15.375C5.556 14.762 6.075 14.976 6.834 15.294C7.02 15.371 12.389 17.234 12.389 17.234H12.401C12.515 17.2731 12.6165 17.3417 12.6952 17.4329C12.7739 17.5241 12.827 17.6346 12.849 17.753C12.8951 17.9491 12.8658 18.1554 12.767 18.331C12.7332 18.3894 12.6904 18.4421 12.64 18.487C12.4408 18.6142 12.2123 18.6879 11.9763 18.701C11.7404 18.7142 11.505 18.6663 11.293 18.562L8.24 17.554C8.14998 17.5278 8.05331 17.5376 7.97033 17.5812C7.88736 17.6249 7.82455 17.699 7.79514 17.788C7.76572 17.877 7.772 17.974 7.81263 18.0585C7.85327 18.143 7.92509 18.2084 8.013 18.241L11.066 19.248C11.368 19.354 11.685 19.41 12.005 19.415C12.416 19.432 12.817 19.292 13.128 19.023C13.2 18.958 13.265 18.885 13.321 18.807L18.63 16.833H18.644C18.8133 16.7405 19.0096 16.7103 19.1989 16.7475C19.3882 16.7848 19.5584 16.8872 19.68 17.037C19.7383 17.1334 19.7758 17.241 19.7899 17.3528C19.804 17.4646 19.7945 17.5781 19.762 17.686ZM23.312 2.822H21.185C21.014 2.82104 20.8487 2.88363 20.7212 2.99763C20.5937 3.11164 20.5131 3.26893 20.495 3.439C19.9688 3.31378 19.4459 3.17473 18.927 3.022C17.189 2.534 15.028 1.921 13.599 2.126C11.568 2.416 9.898 4.017 7.932 6.079C7.00435 6.18062 6.15148 6.6356 5.55044 7.34947C4.94941 8.06334 4.64639 8.98126 4.70429 9.91266C4.7622 10.8441 5.17659 11.7174 5.86142 12.3513C6.54625 12.9852 7.44891 13.3311 8.382 13.317C9.07519 13.3176 9.75413 13.1201 10.3389 12.7479C10.9237 12.3757 11.39 11.8442 11.683 11.216C12.0301 11.1687 12.3797 11.1413 12.73 11.134C13.075 11.148 13.4189 11.182 13.76 11.236C14.467 11.339 15.181 11.395 15.896 11.404C16.353 11.405 16.81 11.374 17.263 11.31C18.0826 11.1312 18.873 10.838 19.611 10.439C19.918 10.294 20.233 10.144 20.511 10.031C20.5439 10.1854 20.6288 10.3238 20.7515 10.4231C20.8741 10.5225 21.0271 10.5768 21.185 10.577H23.312C23.4944 10.5767 23.6692 10.5042 23.7982 10.3752C23.9272 10.2462 23.9997 10.0714 24 9.889V3.511C23.9997 3.32852 23.9272 3.15357 23.7983 3.02444C23.6693 2.89532 23.4945 2.82252 23.312 2.822ZM8.378 12.591C7.99138 12.5978 7.60727 12.5275 7.24813 12.3842C6.88898 12.2409 6.562 12.0275 6.28629 11.7563C6.01058 11.4852 5.79167 11.1619 5.64234 10.8052C5.49302 10.4485 5.41628 10.0656 5.41662 9.67895C5.41695 9.29227 5.49434 8.90953 5.64428 8.5531C5.79421 8.19667 6.01368 7.8737 6.28986 7.60305C6.56604 7.33241 6.89339 7.11952 7.25278 6.97683C7.61217 6.83414 7.99639 6.7645 8.383 6.772V6.776C8.88655 6.77944 9.38082 6.91187 9.81865 7.16063C10.2565 7.40939 10.6233 7.76619 10.884 8.197C10.6871 8.23324 10.4921 8.27964 10.3 8.336C9.90866 8.43763 9.56451 8.6715 9.32593 8.99793C9.08735 9.32436 8.96902 9.72327 8.991 10.127C8.98741 10.3945 9.07722 10.6549 9.24497 10.8634C9.41271 11.0718 9.64789 11.2153 9.91 11.269C10.204 11.312 10.501 11.323 10.797 11.302C10.5307 11.699 10.1707 12.0243 9.74877 12.2491C9.32686 12.474 8.85607 12.5914 8.378 12.591ZM20.49 9.163C20.068 9.32 19.655 9.5 19.253 9.702C18.5868 10.0622 17.875 10.3309 17.137 10.501C16.043 10.63 14.937 10.604 13.851 10.424C13.4764 10.367 13.0987 10.333 12.72 10.322C12.323 10.332 11.927 10.366 11.534 10.422L11.544 10.516L11.531 10.422C11.04 10.505 10.541 10.522 10.046 10.474C9.873 10.445 9.813 10.216 9.805 10.084C9.79779 9.86442 9.86659 9.64908 9.99977 9.47436C10.133 9.29963 10.3224 9.17623 10.536 9.125C10.795 9.047 11.169 8.98 11.612 8.9C12.935 8.66 14.581 8.363 15.193 7.401C15.434 7.015 15.495 6.543 15.36 6.109C15.3167 5.91781 15.2267 5.74033 15.0981 5.59237C14.9695 5.4444 14.8063 5.33056 14.623 5.261C13.795 4.943 12.383 5.425 10.426 6.69C10.0056 6.40394 9.53072 6.20784 9.031 6.114C10.837 4.259 12.196 3.148 13.713 2.932C15.4149 2.93907 17.1032 3.23494 18.706 3.807C19.405 4.004 20.016 4.177 20.491 4.27L20.49 9.163ZM11.065 7.247H11.067C12.599 6.283 13.812 5.824 14.332 6.019C14.458 6.069 14.548 6.182 14.569 6.316C14.6046 6.42209 14.617 6.53461 14.6052 6.6459C14.5935 6.75719 14.5579 6.86466 14.501 6.961C14.093 7.603 12.636 7.881 11.63 8.064C11.4803 7.76686 11.2902 7.4919 11.065 7.247ZM23.27 9.855H21.212L21.214 3.546H23.27V9.855Z" fill="white"/>
</g>
<defs>
<clipPath id="clip0_1_2">
<rect width="24" height="24" fill="white"/>
</clipPath>
</defs>
</svg>
