<svg width="27" height="28" viewBox="0 0 27 28" fill="none" xmlns="http://www.w3.org/2000/svg">
<path d="M13.4922 2.33203C12.3931 2.33203 11.0114 2.39458 9.97302 2.81018C8.93472 3.22583 8.24207 3.87536 8.24207 5.34695V7.99635C8.57876 7.93953 8.91947 7.90994 9.26089 7.90785C9.4318 7.90683 9.60205 7.91311 9.77122 7.92599V5.96016C9.77122 5.14255 10.3414 4.52143 11.0443 4.16909C11.7471 3.81685 12.6193 3.66064 13.4922 3.66064C14.3651 3.66064 15.2373 3.81685 15.9401 4.16909C16.643 4.52143 17.2131 5.1426 17.2131 5.96021V7.92645C17.7238 7.88801 18.2373 7.91164 18.7423 7.99681V5.34695C18.7423 3.87536 18.0496 3.22578 17.0113 2.81018C15.973 2.39458 14.5913 2.33203 13.4922 2.33203ZM9.25539 8.82653C8.86277 8.83026 8.47168 8.87621 8.08884 8.96358C6.01948 9.43508 4.16431 11.0574 4.16431 14.1362C4.16431 16.3335 6.08697 18.7339 8.30389 20.8554C9.41238 21.9161 10.5793 22.9083 11.5788 23.7947C12.3485 24.4772 13.0124 25.0853 13.4922 25.6496C13.972 25.0853 14.6359 24.4772 15.4055 23.7947C16.4051 22.9083 17.572 21.9161 18.6805 20.8554C20.8974 18.7339 22.8201 16.3335 22.8201 14.1362C22.8201 11.0574 20.9649 9.43508 18.8955 8.96358C16.8262 8.49208 14.6318 9.2477 13.9181 11.0366L13.4922 12.104L13.0663 11.0366C12.4864 9.58312 10.929 8.81181 9.25539 8.82653ZM13.4922 12.9098C14.0936 12.9098 14.6704 13.1494 15.0956 13.5757C15.5209 14.002 15.7598 14.5802 15.7598 15.1832C15.7596 15.5215 15.684 15.8556 15.5386 16.161C15.3932 16.4664 15.1817 16.7353 14.9194 16.9483L15.7598 22.0033H11.2245L12.0651 16.9476C11.8029 16.7347 11.5913 16.4658 11.4459 16.1606C11.3005 15.8554 11.2249 15.5214 11.2245 15.1832C11.2246 14.5802 11.4635 14.002 11.8887 13.5757C12.314 13.1494 12.8908 12.9098 13.4922 12.9098Z" fill="white"/>
</svg>
