<svg width="17" height="16" viewBox="0 0 17 16" fill="none" xmlns="http://www.w3.org/2000/svg">
<path d="M8.3122 8.16529C8.61857 7.61223 9.20745 7.28596 9.54963 6.79656C9.91171 6.28328 9.70879 5.32437 8.68224 5.32437C8.0098 5.32437 7.67956 5.83367 7.5403 6.25543L6.50977 5.82173C6.79227 4.97423 7.56019 4.24609 8.67826 4.24609C9.61329 4.24609 10.2539 4.67183 10.5802 5.205C10.8587 5.66258 11.0218 6.51804 10.5921 7.15466C10.1146 7.85892 9.65706 8.07378 9.41037 8.52737C9.3109 8.7104 9.27111 8.82977 9.27111 9.41864H8.12121C8.11723 9.10829 8.06949 8.60297 8.3122 8.16529ZM9.47801 11.0102C9.47801 11.4479 9.11991 11.806 8.68224 11.806C8.24456 11.806 7.88646 11.4479 7.88646 11.0102C7.88646 10.5725 8.24456 10.2144 8.68224 10.2144C9.11991 10.2144 9.47801 10.5725 9.47801 11.0102Z" fill="#D9D9D9"/>
<circle cx="8.68274" cy="8.026" r="7.33557" stroke="#D9D9D9"/>
</svg>
