<svg width="22" height="21" viewBox="0 0 22 21" fill="none" xmlns="http://www.w3.org/2000/svg">
<path fillRule="evenodd" clipRule="evenodd" d="M16.4521 1.91797C17.4597 1.91797 18.2765 2.73476 18.2765 3.74232V16.5128C18.2765 17.5204 17.4597 18.3372 16.4521 18.3372H5.50599C4.49843 18.3372 3.68164 17.5204 3.68164 16.5128V3.74232C3.68164 2.73476 4.49843 1.91797 5.50599 1.91797H16.4521ZM15.5399 3.28623H6.41817C5.70695 3.28623 5.12247 3.82888 5.05617 4.52273L5.04991 4.6545V15.6006C5.04991 16.3118 5.59255 16.8963 6.2864 16.9626L6.41817 16.9689H15.5399C16.2512 16.9689 16.8356 16.4262 16.9019 15.7324L16.9082 15.6006V4.6545C16.9082 3.94328 16.3656 3.3588 15.6717 3.2925L15.5399 3.28623ZM10.2949 11.9519C10.6728 11.9519 10.9791 12.2582 10.9791 12.636C10.9791 13.0139 10.6728 13.3202 10.2949 13.3202H7.1023C6.72447 13.3202 6.41817 13.0139 6.41817 12.636C6.41817 12.2582 6.72447 11.9519 7.1023 11.9519H10.2949ZM14.8558 9.21539C15.2336 9.21539 15.5399 9.52168 15.5399 9.89952C15.5399 10.2774 15.2336 10.5837 14.8558 10.5837H7.1023C6.72447 10.5837 6.41817 10.2774 6.41817 9.89952C6.41817 9.52168 6.72447 9.21539 7.1023 9.21539H14.8558ZM14.8558 6.47885C15.2336 6.47885 15.5399 6.78515 15.5399 7.16299C15.5399 7.54082 15.2336 7.84712 14.8558 7.84712H7.1023C6.72447 7.84712 6.41817 7.54082 6.41817 7.16299C6.41817 6.78515 6.72447 6.47885 7.1023 6.47885H14.8558Z" fill="white"/>
<path fillRule="evenodd" clipRule="evenodd" d="M16.4521 1.91797C17.4597 1.91797 18.2765 2.73476 18.2765 3.74232V16.5128C18.2765 17.5204 17.4597 18.3372 16.4521 18.3372H5.50599C4.49843 18.3372 3.68164 17.5204 3.68164 16.5128V3.74232C3.68164 2.73476 4.49843 1.91797 5.50599 1.91797H16.4521ZM15.5399 3.28623H6.41817C5.70695 3.28623 5.12247 3.82888 5.05617 4.52273L5.04991 4.6545V15.6006C5.04991 16.3118 5.59255 16.8963 6.2864 16.9626L6.41817 16.9689H15.5399C16.2512 16.9689 16.8356 16.4262 16.9019 15.7324L16.9082 15.6006V4.6545C16.9082 3.94328 16.3656 3.3588 15.6717 3.2925L15.5399 3.28623ZM10.2949 11.9519C10.6728 11.9519 10.9791 12.2582 10.9791 12.636C10.9791 13.0139 10.6728 13.3202 10.2949 13.3202H7.1023C6.72447 13.3202 6.41817 13.0139 6.41817 12.636C6.41817 12.2582 6.72447 11.9519 7.1023 11.9519H10.2949ZM14.8558 9.21539C15.2336 9.21539 15.5399 9.52168 15.5399 9.89952C15.5399 10.2774 15.2336 10.5837 14.8558 10.5837H7.1023C6.72447 10.5837 6.41817 10.2774 6.41817 9.89952C6.41817 9.52168 6.72447 9.21539 7.1023 9.21539H14.8558ZM14.8558 6.47885C15.2336 6.47885 15.5399 6.78515 15.5399 7.16299C15.5399 7.54082 15.2336 7.84712 14.8558 7.84712H7.1023C6.72447 7.84712 6.41817 7.54082 6.41817 7.16299C6.41817 6.78515 6.72447 6.47885 7.1023 6.47885H14.8558Z" fill="url(#paint0_linear_1077_48642)"/>
<defs>
<linearGradient id="paint0_linear_1077_48642" x1="20.3908" y1="21.0129" x2="9.33275" y2="27.5035" gradientUnits="userSpaceOnUse">
<stop stopColor="#F16522"/>
<stop offset="1" stopColor="#EB008B"/>
</linearGradient>
</defs>
</svg>
