<svg width="15" height="18" viewBox="0 0 15 18" fill="none" xmlns="http://www.w3.org/2000/svg">
<path fillRule="evenodd" clipRule="evenodd" d="M0.208008 2.42249C0.208008 1.40172 1.03669 0.574219 2.05893 0.574219H10.3881C11.4103 0.574219 12.239 1.40172 12.239 2.42249V3.57766C12.239 3.96045 11.9282 4.27076 11.5449 4.27076C11.1616 4.27076 10.8508 3.96045 10.8508 3.57766V3.09081C10.8565 2.21426 10.571 1.99989 9.85216 1.9704L9.59631 1.96677L9.46262 1.96042H5.01578L6.64498 2.85786C7.23521 3.18306 7.60172 3.80299 7.60172 4.47614L7.60152 13.05H9.46262C10.1842 13.05 10.7835 12.7783 10.8508 12.0753L10.8572 11.9418L10.8545 11.4328C10.8526 11.0838 11.1109 10.7939 11.4476 10.7465L11.5449 10.7397C11.9282 10.7397 12.239 11.05 12.239 11.4328V12.588C12.239 13.6087 11.4103 14.4362 10.3881 14.4362H7.60152L7.60172 15.32C7.60172 16.3407 6.77303 17.1682 5.75079 17.1682C5.40692 17.1682 5.06985 17.0726 4.77738 16.892L1.08552 14.6125C0.54002 14.2757 0.208008 13.6809 0.208008 13.0405V2.42249ZM2.52171 2.20013C2.3418 2.20013 2.17388 2.25139 2.0318 2.34009C1.79363 2.56392 1.63544 2.87063 1.6026 3.21387L1.59624 3.34737V12.8524C1.59624 13.1436 1.73344 13.4154 1.96254 13.5888L2.05267 13.6491L4.82905 15.279C4.97123 15.3625 5.13316 15.4065 5.29809 15.4065C5.7727 15.4065 6.16387 15.0498 6.21732 14.5901L6.22355 14.4824V4.83383C6.22355 4.55329 6.09614 4.29029 5.8812 4.11619L5.78384 4.04722L3.00745 2.33766C2.86143 2.24775 2.69326 2.20013 2.52171 2.20013ZM13.1568 5.34166L14.7928 6.97532C15.0392 7.22138 14.9746 7.46592 14.8362 7.66443L14.7874 7.72801L14.4497 8.07192L12.9717 9.57082C12.7006 9.8415 12.2611 9.8415 11.9901 9.57082C11.719 9.30015 11.719 8.8613 11.9901 8.59063L12.6357 7.94549H9.70148C9.31814 7.94549 9.00738 7.77153 9.00738 7.38875C9.00738 7.00596 9.31814 6.79225 9.70148 6.79225H12.6468L12.1752 6.32185C11.9041 6.05118 11.9041 5.61233 12.1752 5.34166C12.4462 5.07099 12.8857 5.07099 13.1568 5.34166Z" fill="#828D9E"/>
</svg>
