<svg width="69" height="108" viewBox="0 0 69 108" fill="none" xmlns="http://www.w3.org/2000/svg">
<path fillRule="evenodd" clipRule="evenodd" d="M30.6591 52.3026L30.6588 52.3023C27.832 49.8276 25.0193 47.3652 22.1469 44.873C22.8303 43.8308 23.5137 42.808 24.2027 41.777C24.7207 41.0019 25.2418 40.222 25.7685 39.4256C25.6673 39.3724 25.569 39.3211 25.4731 39.271L25.4727 39.2708C25.0292 39.0392 24.6356 38.8336 24.242 38.5876C21.5782 36.9414 19.9919 34.547 19.9021 31.4342C19.8183 28.061 19.8371 24.6878 19.856 21.3147C19.864 19.869 19.8721 18.4234 19.8721 16.9777C19.8721 16.9342 19.8862 16.8837 19.904 16.8194L19.904 16.8194C19.9231 16.7509 19.9465 16.6667 19.9619 16.5587H22.3863C23.7011 16.5587 25.0159 16.562 26.3318 16.5653H26.3328H26.3339H26.3349C28.9721 16.572 31.6138 16.5786 34.2687 16.5587C38.2196 16.5287 41.4521 13.2364 41.2725 9.46513H38.0101C37.893 9.69933 37.7894 9.9498 37.6855 10.201L37.6855 10.2011C37.4443 10.7846 37.2014 11.3723 36.7829 11.7698C36.1544 12.3684 35.1966 12.9371 34.3585 12.9371C30.3015 13.0398 26.2225 13.0103 22.1593 12.981L22.1584 12.981L22.1575 12.981L22.1566 12.981C21.4844 12.9761 20.8127 12.9713 20.1415 12.967C20.1116 12.967 20.0816 12.952 20.0143 12.9184C19.947 12.8847 19.8422 12.8323 19.6626 12.7575C19.7141 12.1995 19.7484 11.6268 19.7831 11.047V11.047C19.8693 9.60534 19.9582 8.12037 20.3211 6.71152C21.3088 3.03006 24.7807 0.51589 28.6119 0.456029C32.3532 0.396168 36.0646 0.396168 39.8059 0.456029C44.5948 0.54582 48.4858 4.40686 48.5157 9.19576C48.5756 16.4988 48.6055 23.8318 48.5157 31.1349C48.4858 34.5769 46.7498 37.1509 43.7268 38.827C43.5771 38.9168 43.3976 39.0066 43.218 39.0665C43.1553 39.1041 43.0873 39.1364 43.012 39.1724L43.0119 39.1724L43.0119 39.1724C42.9073 39.2222 42.7884 39.2788 42.6493 39.3658L44.4555 42.0975L46.2709 44.8431C42.9081 47.8073 39.5868 50.7093 36.238 53.6354C35.5629 54.2252 34.8867 54.8161 34.2089 55.4086C33.0196 54.3691 31.8381 53.3347 30.6591 52.3026ZM0.460755 61.888C0.355998 62.2397 0.251241 62.5914 0.146484 62.9505C0.146484 77.9458 0.146484 92.9709 0.176415 107.936H12.7473V79.3226H16.3389V107.846H31.843C31.3891 107.277 30.9414 106.715 30.4978 106.157L30.4971 106.156L30.4964 106.155C28.9802 104.249 27.5112 102.402 26.0065 100.573C25.4079 99.825 25.1984 99.0468 25.348 98.089C25.5476 96.6324 25.7205 95.1758 25.8934 93.7192C25.9799 92.9909 26.0664 92.2626 26.1562 91.5342C26.6201 87.6882 27.0915 83.8347 27.5629 79.9812C28.0343 76.1276 28.5057 72.274 28.9696 68.4278L29.1192 67.1881L29.1193 67.1876C29.3687 65.1215 29.6181 63.0554 29.8675 60.8853C27.6003 61.5331 25.4015 62.1535 23.2341 62.7651C22.1969 63.0577 21.167 63.3483 20.1401 63.6389C18.2545 64.1777 17.3266 63.4594 17.3865 61.5139C17.4613 59.5385 17.5436 57.563 17.6259 55.5876C17.7082 53.6122 17.7906 51.6368 17.8654 49.6614C17.8654 49.4248 17.8499 49.2038 17.8301 48.9205V48.9204L17.8301 48.9199C17.8224 48.809 17.8139 48.6886 17.8055 48.5539C16.5309 49.1526 15.2656 49.7295 14.0106 50.3017L14.0104 50.3018C11.3756 51.5031 8.78651 52.6835 6.25232 54.0013C3.49871 55.438 1.7328 57.8623 0.775026 60.8255C0.670269 61.1846 0.565512 61.5363 0.460755 61.888ZM39.5982 60.8987L38.5179 60.6472C38.8428 63.3479 39.1631 66.0364 39.4823 68.7154L39.4828 68.7195C40.5748 77.8853 41.6536 86.9403 42.8578 95.9952C43.1871 98.4795 42.9476 100.425 41.1518 102.281C40.035 103.438 39.056 104.719 38.0465 106.041C37.5679 106.667 37.0826 107.302 36.5724 107.938H52.1663V79.4137H55.7579V107.938H68.239C68.239 107.794 68.2474 107.66 68.2553 107.534V107.533C68.2623 107.422 68.2689 107.317 68.2689 107.219C68.2689 103.172 68.2738 99.1249 68.2787 95.0778L68.2787 95.0589C68.2909 84.9252 68.3031 74.7916 68.239 64.6579C68.209 59.45 65.635 55.6189 60.9658 53.3442C58.9306 52.3664 56.8687 51.4419 54.8068 50.5174L54.8061 50.5171C53.7754 50.0549 52.7447 49.5928 51.7173 49.124C51.4348 48.9936 51.1523 48.879 50.8239 48.7458L50.6264 48.6655C50.5629 48.6397 50.4977 48.613 50.4303 48.5852V50.2613C50.4501 51.4308 50.4732 52.6036 50.4963 53.7775C50.543 56.1486 50.5898 58.5244 50.6099 60.8867C50.6099 62.473 49.682 63.1913 48.1256 62.8621C47.3774 62.7124 46.659 62.5329 45.9407 62.3533C43.8584 61.8905 41.7761 61.4057 39.5989 60.8988L39.5982 60.8987ZM50.2507 72.2304V75.7023H43.2469V72.2304H50.2507ZM29.2096 98.7789C30.8258 100.874 32.472 102.939 34.208 105.094C34.6224 104.578 35.0273 104.065 35.4287 103.556L35.4288 103.555C36.4478 102.263 37.4444 100.999 38.518 99.7966C39.3261 98.8687 39.5057 97.9409 39.356 96.7436C38.6078 90.7275 37.867 84.7115 37.1262 78.6954C36.3854 72.6794 35.6446 66.6634 34.8964 60.6474C34.8665 60.2882 34.5672 59.7494 34.2978 59.6896C33.6692 59.5699 33.5794 60.0787 33.5196 60.6174C32.8312 66.4537 32.1129 72.2601 31.3946 78.0665L31.3945 78.067C30.5865 84.6211 29.8083 91.1753 29.0302 97.7295L29.03 97.7313C29.0001 98.0905 29.03 98.5395 29.2096 98.7789ZM21.2502 54.6648L21.2503 54.6641C21.329 52.8253 21.4078 50.9865 21.4866 49.0648C23.5637 50.8976 25.5717 52.6473 27.614 54.4269L27.6149 54.4277C28.574 55.2635 29.5406 56.1058 30.5256 56.9664C28.3867 57.5861 26.3145 58.1791 24.2111 58.7811L24.2084 58.7818C23.1632 59.0809 22.1103 59.3822 21.0376 59.6901C21.1085 57.9747 21.1794 56.3197 21.2502 54.6648ZM43.0846 58.0212C44.3336 58.3108 45.5617 58.5956 46.7786 58.8804V49.1829L46.471 49.454C43.5662 52.0138 40.8724 54.3876 38.0389 56.8452C39.7713 57.2528 41.4459 57.6411 43.0846 58.0212Z" fill="white"/>
<path fillRule="evenodd" clipRule="evenodd" d="M30.6591 52.3026L30.6588 52.3023C27.832 49.8276 25.0193 47.3652 22.1469 44.873C22.8303 43.8308 23.5137 42.808 24.2027 41.777C24.7207 41.0019 25.2418 40.222 25.7685 39.4256C25.6673 39.3724 25.569 39.3211 25.4731 39.271L25.4727 39.2708C25.0292 39.0392 24.6356 38.8336 24.242 38.5876C21.5782 36.9414 19.9919 34.547 19.9021 31.4342C19.8183 28.061 19.8371 24.6878 19.856 21.3147C19.864 19.869 19.8721 18.4234 19.8721 16.9777C19.8721 16.9342 19.8862 16.8837 19.904 16.8194L19.904 16.8194C19.9231 16.7509 19.9465 16.6667 19.9619 16.5587H22.3863C23.7011 16.5587 25.0159 16.562 26.3318 16.5653H26.3328H26.3339H26.3349C28.9721 16.572 31.6138 16.5786 34.2687 16.5587C38.2196 16.5287 41.4521 13.2364 41.2725 9.46513H38.0101C37.893 9.69933 37.7894 9.9498 37.6855 10.201L37.6855 10.2011C37.4443 10.7846 37.2014 11.3723 36.7829 11.7698C36.1544 12.3684 35.1966 12.9371 34.3585 12.9371C30.3015 13.0398 26.2225 13.0103 22.1593 12.981L22.1584 12.981L22.1575 12.981L22.1566 12.981C21.4844 12.9761 20.8127 12.9713 20.1415 12.967C20.1116 12.967 20.0816 12.952 20.0143 12.9184C19.947 12.8847 19.8422 12.8323 19.6626 12.7575C19.7141 12.1995 19.7484 11.6268 19.7831 11.047V11.047C19.8693 9.60534 19.9582 8.12037 20.3211 6.71152C21.3088 3.03006 24.7807 0.51589 28.6119 0.456029C32.3532 0.396168 36.0646 0.396168 39.8059 0.456029C44.5948 0.54582 48.4858 4.40686 48.5157 9.19576C48.5756 16.4988 48.6055 23.8318 48.5157 31.1349C48.4858 34.5769 46.7498 37.1509 43.7268 38.827C43.5771 38.9168 43.3976 39.0066 43.218 39.0665C43.1553 39.1041 43.0873 39.1364 43.012 39.1724L43.0119 39.1724L43.0119 39.1724C42.9073 39.2222 42.7884 39.2788 42.6493 39.3658L44.4555 42.0975L46.2709 44.8431C42.9081 47.8073 39.5868 50.7093 36.238 53.6354C35.5629 54.2252 34.8867 54.8161 34.2089 55.4086C33.0196 54.3691 31.8381 53.3347 30.6591 52.3026ZM0.460755 61.888C0.355998 62.2397 0.251241 62.5914 0.146484 62.9505C0.146484 77.9458 0.146484 92.9709 0.176415 107.936H12.7473V79.3226H16.3389V107.846H31.843C31.3891 107.277 30.9414 106.715 30.4978 106.157L30.4971 106.156L30.4964 106.155C28.9802 104.249 27.5112 102.402 26.0065 100.573C25.4079 99.825 25.1984 99.0468 25.348 98.089C25.5476 96.6324 25.7205 95.1758 25.8934 93.7192C25.9799 92.9909 26.0664 92.2626 26.1562 91.5342C26.6201 87.6882 27.0915 83.8347 27.5629 79.9812C28.0343 76.1276 28.5057 72.274 28.9696 68.4278L29.1192 67.1881L29.1193 67.1876C29.3687 65.1215 29.6181 63.0554 29.8675 60.8853C27.6003 61.5331 25.4015 62.1535 23.2341 62.7651C22.1969 63.0577 21.167 63.3483 20.1401 63.6389C18.2545 64.1777 17.3266 63.4594 17.3865 61.5139C17.4613 59.5385 17.5436 57.563 17.6259 55.5876C17.7082 53.6122 17.7906 51.6368 17.8654 49.6614C17.8654 49.4248 17.8499 49.2038 17.8301 48.9205V48.9204L17.8301 48.9199C17.8224 48.809 17.8139 48.6886 17.8055 48.5539C16.5309 49.1526 15.2656 49.7295 14.0106 50.3017L14.0104 50.3018C11.3756 51.5031 8.78651 52.6835 6.25232 54.0013C3.49871 55.438 1.7328 57.8623 0.775026 60.8255C0.670269 61.1846 0.565512 61.5363 0.460755 61.888ZM39.5982 60.8987L38.5179 60.6472C38.8428 63.3479 39.1631 66.0364 39.4823 68.7154L39.4828 68.7195C40.5748 77.8853 41.6536 86.9403 42.8578 95.9952C43.1871 98.4795 42.9476 100.425 41.1518 102.281C40.035 103.438 39.056 104.719 38.0465 106.041C37.5679 106.667 37.0826 107.302 36.5724 107.938H52.1663V79.4137H55.7579V107.938H68.239C68.239 107.794 68.2474 107.66 68.2553 107.534V107.533C68.2623 107.422 68.2689 107.317 68.2689 107.219C68.2689 103.172 68.2738 99.1249 68.2787 95.0778L68.2787 95.0589C68.2909 84.9252 68.3031 74.7916 68.239 64.6579C68.209 59.45 65.635 55.6189 60.9658 53.3442C58.9306 52.3664 56.8687 51.4419 54.8068 50.5174L54.8061 50.5171C53.7754 50.0549 52.7447 49.5928 51.7173 49.124C51.4348 48.9936 51.1523 48.879 50.8239 48.7458L50.6264 48.6655C50.5629 48.6397 50.4977 48.613 50.4303 48.5852V50.2613C50.4501 51.4308 50.4732 52.6036 50.4963 53.7775C50.543 56.1486 50.5898 58.5244 50.6099 60.8867C50.6099 62.473 49.682 63.1913 48.1256 62.8621C47.3774 62.7124 46.659 62.5329 45.9407 62.3533C43.8584 61.8905 41.7761 61.4057 39.5989 60.8988L39.5982 60.8987ZM50.2507 72.2304V75.7023H43.2469V72.2304H50.2507ZM29.2096 98.7789C30.8258 100.874 32.472 102.939 34.208 105.094C34.6224 104.578 35.0273 104.065 35.4287 103.556L35.4288 103.555C36.4478 102.263 37.4444 100.999 38.518 99.7966C39.3261 98.8687 39.5057 97.9409 39.356 96.7436C38.6078 90.7275 37.867 84.7115 37.1262 78.6954C36.3854 72.6794 35.6446 66.6634 34.8964 60.6474C34.8665 60.2882 34.5672 59.7494 34.2978 59.6896C33.6692 59.5699 33.5794 60.0787 33.5196 60.6174C32.8312 66.4537 32.1129 72.2601 31.3946 78.0665L31.3945 78.067C30.5865 84.6211 29.8083 91.1753 29.0302 97.7295L29.03 97.7313C29.0001 98.0905 29.03 98.5395 29.2096 98.7789ZM21.2502 54.6648L21.2503 54.6641C21.329 52.8253 21.4078 50.9865 21.4866 49.0648C23.5637 50.8976 25.5717 52.6473 27.614 54.4269L27.6149 54.4277C28.574 55.2635 29.5406 56.1058 30.5256 56.9664C28.3867 57.5861 26.3145 58.1791 24.2111 58.7811L24.2084 58.7818C23.1632 59.0809 22.1103 59.3822 21.0376 59.6901C21.1085 57.9747 21.1794 56.3197 21.2502 54.6648ZM43.0846 58.0212C44.3336 58.3108 45.5617 58.5956 46.7786 58.8804V49.1829L46.471 49.454C43.5662 52.0138 40.8724 54.3876 38.0389 56.8452C39.7713 57.2528 41.4459 57.6411 43.0846 58.0212Z" fill="url(#paint0_linear_252_4283)"/>
<defs>
<linearGradient id="paint0_linear_252_4283" x1="0.149766" y1="54.1703" x2="68.2885" y2="54.1703" gradientUnits="userSpaceOnUse">
<stop stopColor="#F16522"/>
<stop offset="1" stopColor="#EB008B"/>
</linearGradient>
</defs>
</svg>
