<svg width="25" height="25" viewBox="0 0 25 25" fill="none" xmlns="http://www.w3.org/2000/svg">
<path d="M12.6504 6.55273V9.88273" stroke="white" strokeWidth="1.5" stroke-miterlimit="10" stroke-linecap="round"/>
<path d="M12.6713 2.1123C8.99127 2.1123 6.01127 5.0923 6.01127 8.7723V10.8723C6.01127 11.5523 5.73126 12.5723 5.38126 13.1523L4.11126 15.2723C3.33126 16.5823 3.87126 18.0423 5.31126 18.5223C10.0913 20.1123 15.2613 20.1123 20.0413 18.5223C21.3913 18.0723 21.9713 16.4923 21.2413 15.2723L19.9713 13.1523C19.6213 12.5723 19.3413 11.5423 19.3413 10.8723V8.7723C19.3313 5.1123 16.3313 2.1123 12.6713 2.1123Z" stroke="white" strokeWidth="1.5" stroke-miterlimit="10" stroke-linecap="round"/>
<path d="M15.9803 18.9326C15.9803 20.7626 14.4803 22.2626 12.6503 22.2626C11.7403 22.2626 10.9003 21.8826 10.3003 21.2826C9.70031 20.6826 9.32031 19.8426 9.32031 18.9326" stroke="white" strokeWidth="1.5" stroke-miterlimit="10"/>
</svg>
