<svg width="24" height="24" viewBox="0 0 24 24" fill="none" xmlns="http://www.w3.org/2000/svg">
<path d="M20.1892 14.0598L19.0592 12.1798C18.8092 11.7698 18.5892 10.9798 18.5892 10.4998V8.6298C18.5892 4.9998 15.6392 2.0498 12.0192 2.0498C8.38923 2.0598 5.43923 4.9998 5.43923 8.6298V10.4898C5.43923 10.9698 5.21923 11.7598 4.97923 12.1698L3.84923 14.0498C3.41923 14.7798 3.31923 15.6098 3.58923 16.3298C3.85923 17.0598 4.46923 17.6398 5.26923 17.8998C6.34923 18.2598 7.43923 18.5198 8.54923 18.7098C8.65923 18.7298 8.76923 18.7398 8.87923 18.7598C9.01923 18.7798 9.16923 18.7998 9.31923 18.8198C9.57923 18.8598 9.83923 18.8898 10.1092 18.9098C10.7392 18.9698 11.3792 18.9998 12.0192 18.9998C12.6492 18.9998 13.2792 18.9698 13.8992 18.9098C14.1292 18.8898 14.3592 18.8698 14.5792 18.8398C14.7592 18.8198 14.9392 18.7998 15.1192 18.7698C15.2292 18.7598 15.3392 18.7398 15.4492 18.7198C16.5692 18.5398 17.6792 18.2598 18.7592 17.8998C19.5292 17.6398 20.1192 17.0598 20.3992 16.3198C20.6792 15.5698 20.5992 14.7498 20.1892 14.0598ZM12.7492 9.9998C12.7492 10.4198 12.4092 10.7598 11.9892 10.7598C11.5692 10.7598 11.2292 10.4198 11.2292 9.9998V6.89981C11.2292 6.4798 11.5692 6.1398 11.9892 6.1398C12.4092 6.1398 12.7492 6.4798 12.7492 6.89981V9.9998Z" fill="black" fill-opacity="0.7"/>
<path d="M5.40777 12.4274L5.4078 12.4274L5.41073 12.4224C5.5609 12.1659 5.69 11.8204 5.78129 11.4888C5.87247 11.1576 5.93923 10.792 5.93923 10.4898V8.6298C5.93923 5.27743 8.66404 2.55942 12.0199 2.5498C15.363 2.55018 18.0892 5.27568 18.0892 8.6298V10.4998C18.0892 10.8022 18.156 11.1681 18.2489 11.5006C18.3416 11.8323 18.4739 12.1797 18.6315 12.4387C18.6317 12.4392 18.632 12.4396 18.6323 12.4401L19.7594 14.3152C19.7596 14.3155 19.7598 14.3159 19.76 14.3162C20.0936 14.8783 20.1565 15.5393 19.9313 16.1436C19.7037 16.7445 19.2261 17.2141 18.6001 17.4258C17.5439 17.7778 16.4606 18.0508 15.3699 18.2261L15.3699 18.226L15.3598 18.2279C15.2459 18.2486 15.158 18.2642 15.074 18.2719L15.0554 18.2735L15.037 18.2766C14.8727 18.304 14.7062 18.3226 14.524 18.3429L14.524 18.3427L14.5117 18.3444C14.3059 18.3725 14.0883 18.3915 13.8559 18.4117L13.8559 18.4117L13.8511 18.4121C13.2474 18.4706 12.6335 18.4998 12.0192 18.4998C11.3948 18.4998 10.7706 18.4705 10.1566 18.4121L10.1566 18.4119L10.1462 18.4112C9.88957 18.3922 9.64262 18.3637 9.39526 18.3256L9.39527 18.3255L9.38531 18.3242C9.238 18.3046 9.09348 18.2853 8.95872 18.2661C8.89624 18.255 8.83572 18.2467 8.78587 18.2399L8.78178 18.2394C8.72501 18.2316 8.68097 18.2256 8.63867 18.2179L8.63868 18.2178L8.63358 18.217C7.54484 18.0306 6.47989 17.7763 5.42734 17.4254L5.42377 17.4243C4.76106 17.2089 4.27219 16.735 4.05818 16.1564L4.05739 16.1542C3.84779 15.5953 3.91557 14.9234 4.27897 14.3054L5.40777 12.4274ZM11.9892 11.2598C12.6854 11.2598 13.2492 10.6959 13.2492 9.9998V6.89981C13.2492 6.20366 12.6854 5.6398 11.9892 5.6398C11.2931 5.6398 10.7292 6.20366 10.7292 6.89981V9.9998C10.7292 10.6959 11.2931 11.2598 11.9892 11.2598Z" stroke="black" stroke-opacity="0.7"/>
<path d="M14.8297 20.01C14.4097 21.17 13.2997 22 11.9997 22C11.2097 22 10.4297 21.68 9.87969 21.11C9.55969 20.81 9.31969 20.41 9.17969 20C9.30969 20.02 9.43969 20.03 9.57969 20.05C9.80969 20.08 10.0497 20.11 10.2897 20.13C10.8597 20.18 11.4397 20.21 12.0197 20.21C12.5897 20.21 13.1597 20.18 13.7197 20.13C13.9297 20.11 14.1397 20.1 14.3397 20.07C14.4997 20.05 14.6597 20.03 14.8297 20.01Z" fill="black" fill-opacity="0.7"/>
<path d="M10.0952 20.6143C10.1457 20.6193 10.1963 20.6239 10.2471 20.6282C10.8286 20.6792 11.423 20.71 12.0197 20.71C12.607 20.71 13.1921 20.6791 13.7642 20.628L13.7642 20.628L13.7671 20.6277C13.8101 20.6237 13.8577 20.6197 13.9083 20.6156C13.4471 21.1572 12.7618 21.5 11.9997 21.5C11.3408 21.5 10.6921 21.2319 10.2395 20.7628L10.2308 20.7538L10.2217 20.7452C10.1779 20.7042 10.1357 20.6604 10.0952 20.6143Z" stroke="black" stroke-opacity="0.7"/>
</svg>
