<svg width="19" height="19" viewBox="0 0 19 19" fill="none" xmlns="http://www.w3.org/2000/svg">
<path d="M17.1656 9.62668L18.1638 7.90149C18.2838 7.69393 18.3164 7.44722 18.2546 7.2156C18.1927 6.98399 18.0413 6.78643 17.8338 6.66638L16.1068 5.66816V3.67895C16.1068 3.43914 16.0116 3.20916 15.842 3.03959C15.6724 2.87003 15.4424 2.77476 15.2026 2.77476H13.2143L12.217 1.04867C12.0966 0.841541 11.8994 0.69017 11.6682 0.627325C11.5535 0.596235 11.4338 0.588219 11.316 0.60374C11.1982 0.619261 11.0846 0.658011 10.9819 0.717743L9.25491 1.71596L7.52792 0.716839C7.32025 0.596942 7.07345 0.56445 6.84182 0.626512C6.6102 0.688573 6.41271 0.840104 6.2928 1.04777L5.29458 2.77476H3.30628C3.06647 2.77476 2.83649 2.87003 2.66692 3.03959C2.49736 3.20916 2.40209 3.43914 2.40209 3.67895V5.66725L0.675102 6.66547C0.572054 6.72475 0.481733 6.8038 0.40933 6.89808C0.336926 6.99237 0.283867 7.10003 0.253199 7.21489C0.222532 7.32975 0.214861 7.44953 0.230628 7.56736C0.246395 7.68519 0.285288 7.79874 0.345074 7.90149L1.34329 9.62668L0.345074 11.3519C0.225712 11.5596 0.193327 11.8061 0.25498 12.0377C0.316633 12.2692 0.467324 12.467 0.674198 12.5879L2.40119 13.5861V15.5744C2.40119 15.8142 2.49645 16.0442 2.66602 16.2138C2.83559 16.3833 3.06557 16.4786 3.30538 16.4786H5.29458L6.2928 18.2056C6.37285 18.3424 6.48714 18.4561 6.62444 18.5353C6.76173 18.6146 6.91729 18.6568 7.07583 18.6577C7.23315 18.6577 7.38958 18.6161 7.52882 18.5356L9.25401 17.5374L10.981 18.5356C11.1886 18.6553 11.4352 18.6878 11.6668 18.626C11.8983 18.5641 12.0959 18.4129 12.2161 18.2056L13.2134 16.4786H15.2017C15.4415 16.4786 15.6715 16.3833 15.8411 16.2138C16.0107 16.0442 16.1059 15.8142 16.1059 15.5744V13.5861L17.8329 12.5879C17.9358 12.5284 18.0259 12.4493 18.0982 12.355C18.1705 12.2607 18.2234 12.1531 18.2541 12.0383C18.2847 11.9235 18.2925 11.8038 18.2768 11.686C18.2612 11.5682 18.2225 11.4547 18.1629 11.3519L17.1656 9.62668ZM6.99354 5.09671C7.35337 5.09683 7.69841 5.23989 7.95276 5.49441C8.20712 5.74893 8.34994 6.09407 8.34982 6.45389C8.3497 6.81372 8.20665 7.15876 7.95213 7.41311C7.69761 7.66746 7.35247 7.81029 6.99264 7.81017C6.63281 7.81005 6.28777 7.66699 6.03342 7.41247C5.77907 7.15795 5.63624 6.81281 5.63636 6.45299C5.63648 6.09316 5.77954 5.74812 6.03406 5.49377C6.28858 5.23942 6.63372 5.09659 6.99354 5.09671ZM7.2648 13.7769L5.81811 12.6928L11.2432 5.45929L12.6899 6.54341L7.2648 13.7769ZM11.5145 14.1386C11.3363 14.1385 11.1599 14.1033 10.9953 14.0351C10.8307 13.9669 10.6812 13.8669 10.5552 13.7409C10.4293 13.6148 10.3294 13.4652 10.2613 13.3006C10.1932 13.136 10.1581 12.9595 10.1582 12.7814C10.1583 12.6032 10.1934 12.4268 10.2616 12.2622C10.3299 12.0976 10.4299 11.9481 10.5559 11.8222C10.6819 11.6962 10.8315 11.5963 10.9961 11.5282C11.1608 11.4601 11.3372 11.425 11.5154 11.4251C11.8752 11.4252 12.2202 11.5683 12.4746 11.8228C12.7289 12.0773 12.8718 12.4225 12.8717 12.7823C12.8715 13.1421 12.7285 13.4871 12.474 13.7415C12.2194 13.9959 11.8743 14.1387 11.5145 14.1386Z" fill="black"/>
<path d="M17.1656 9.62668L18.1638 7.90149C18.2838 7.69393 18.3164 7.44722 18.2546 7.2156C18.1927 6.98399 18.0413 6.78643 17.8338 6.66638L16.1068 5.66816V3.67895C16.1068 3.43914 16.0116 3.20916 15.842 3.03959C15.6724 2.87003 15.4424 2.77476 15.2026 2.77476H13.2143L12.217 1.04867C12.0966 0.841541 11.8994 0.69017 11.6682 0.627325C11.5535 0.596235 11.4338 0.588219 11.316 0.60374C11.1982 0.619261 11.0846 0.658011 10.9819 0.717743L9.25491 1.71596L7.52792 0.716839C7.32025 0.596942 7.07345 0.56445 6.84182 0.626512C6.6102 0.688573 6.41271 0.840104 6.2928 1.04777L5.29458 2.77476H3.30628C3.06647 2.77476 2.83649 2.87003 2.66692 3.03959C2.49736 3.20916 2.40209 3.43914 2.40209 3.67895V5.66725L0.675102 6.66547C0.572054 6.72475 0.481733 6.8038 0.40933 6.89808C0.336926 6.99237 0.283867 7.10003 0.253199 7.21489C0.222532 7.32975 0.214861 7.44953 0.230628 7.56736C0.246395 7.68519 0.285288 7.79874 0.345074 7.90149L1.34329 9.62668L0.345074 11.3519C0.225712 11.5596 0.193327 11.8061 0.25498 12.0377C0.316633 12.2692 0.467324 12.467 0.674198 12.5879L2.40119 13.5861V15.5744C2.40119 15.8142 2.49645 16.0442 2.66602 16.2138C2.83559 16.3833 3.06557 16.4786 3.30538 16.4786H5.29458L6.2928 18.2056C6.37285 18.3424 6.48714 18.4561 6.62444 18.5353C6.76173 18.6146 6.91729 18.6568 7.07583 18.6577C7.23315 18.6577 7.38958 18.6161 7.52882 18.5356L9.25401 17.5374L10.981 18.5356C11.1886 18.6553 11.4352 18.6878 11.6668 18.626C11.8983 18.5641 12.0959 18.4129 12.2161 18.2056L13.2134 16.4786H15.2017C15.4415 16.4786 15.6715 16.3833 15.8411 16.2138C16.0107 16.0442 16.1059 15.8142 16.1059 15.5744V13.5861L17.8329 12.5879C17.9358 12.5284 18.0259 12.4493 18.0982 12.355C18.1705 12.2607 18.2234 12.1531 18.2541 12.0383C18.2847 11.9235 18.2925 11.8038 18.2768 11.686C18.2612 11.5682 18.2225 11.4547 18.1629 11.3519L17.1656 9.62668ZM6.99354 5.09671C7.35337 5.09683 7.69841 5.23989 7.95276 5.49441C8.20712 5.74893 8.34994 6.09407 8.34982 6.45389C8.3497 6.81372 8.20665 7.15876 7.95213 7.41311C7.69761 7.66746 7.35247 7.81029 6.99264 7.81017C6.63281 7.81005 6.28777 7.66699 6.03342 7.41247C5.77907 7.15795 5.63624 6.81281 5.63636 6.45299C5.63648 6.09316 5.77954 5.74812 6.03406 5.49377C6.28858 5.23942 6.63372 5.09659 6.99354 5.09671ZM7.2648 13.7769L5.81811 12.6928L11.2432 5.45929L12.6899 6.54341L7.2648 13.7769ZM11.5145 14.1386C11.3363 14.1385 11.1599 14.1033 10.9953 14.0351C10.8307 13.9669 10.6812 13.8669 10.5552 13.7409C10.4293 13.6148 10.3294 13.4652 10.2613 13.3006C10.1932 13.136 10.1581 12.9595 10.1582 12.7814C10.1583 12.6032 10.1934 12.4268 10.2616 12.2622C10.3299 12.0976 10.4299 11.9481 10.5559 11.8222C10.6819 11.6962 10.8315 11.5963 10.9961 11.5282C11.1608 11.4601 11.3372 11.425 11.5154 11.4251C11.8752 11.4252 12.2202 11.5683 12.4746 11.8228C12.7289 12.0773 12.8718 12.4225 12.8717 12.7823C12.8715 13.1421 12.7285 13.4871 12.474 13.7415C12.2194 13.9959 11.8743 14.1387 11.5145 14.1386Z" fill="white"/>
</svg>
