<svg width="22" height="19" viewBox="0 0 22 19" fill="none" xmlns="http://www.w3.org/2000/svg">
<path d="M13.0917 5.82037H11.6075V10.7677L15.8424 13.2809L16.5548 12.0837L13.0917 10.0256V5.82037ZM12.597 0.873047C10.2352 0.873047 7.97009 1.81127 6.30005 3.48131C4.63 5.15136 3.69178 7.41642 3.69178 9.77822H0.723389L4.64167 13.7658L8.6391 9.77822H5.67071C5.67071 7.94127 6.40044 6.17955 7.69936 4.88063C8.99828 3.5817 10.76 2.85197 12.597 2.85197C14.4339 2.85197 16.1956 3.5817 17.4946 4.88063C18.7935 6.17955 19.5232 7.94127 19.5232 9.77822C19.5232 11.6152 18.7935 13.3769 17.4946 14.6758C16.1956 15.9747 14.4339 16.7045 12.597 16.7045C10.6873 16.7045 8.95573 15.9228 7.709 14.6662L6.30396 16.0712C7.12681 16.9028 8.1071 17.5621 9.18759 18.0106C10.2681 18.4591 11.4271 18.6878 12.597 18.6834C14.9588 18.6834 17.2238 17.7452 18.8939 16.0751C20.5639 14.4051 21.5021 12.14 21.5021 9.77822C21.5021 7.41642 20.5639 5.15136 18.8939 3.48131C17.2238 1.81127 14.9588 0.873047 12.597 0.873047Z" fill="#828D9E"/>
</svg>
