<svg width="19" height="16" viewBox="0 0 19 16" fill="none" xmlns="http://www.w3.org/2000/svg">
<path d="M18.3866 8.94863C18.6664 8.66856 18.8235 8.28891 18.8235 7.89308C18.8235 7.49724 18.6664 7.1176 18.3866 6.83753L12.7544 1.20228C12.4742 0.922071 12.0941 0.764648 11.6978 0.764648C11.3016 0.764648 10.9215 0.92207 10.6413 1.20228C10.3611 1.4825 10.2037 1.86255 10.2037 2.25883C10.2037 2.65511 10.3611 3.03516 10.6413 3.31537L13.7243 6.39937L2.23773 6.39937C1.84158 6.39937 1.46165 6.55674 1.18153 6.83687C0.901401 7.11699 0.74403 7.49692 0.74403 7.89307C0.74403 8.28923 0.901401 8.66916 1.18153 8.94928C1.46165 9.22941 1.84158 9.38678 2.23773 9.38678L13.7243 9.38678L10.6413 12.4698C10.5026 12.6085 10.3925 12.7732 10.3174 12.9545C10.2423 13.1358 10.2037 13.3301 10.2037 13.5263C10.2037 13.7225 10.2423 13.9168 10.3174 14.0981C10.3925 14.2794 10.5026 14.4441 10.6413 14.5829C10.78 14.7216 10.9448 14.8317 11.126 14.9068C11.3073 14.9819 11.5016 15.0205 11.6978 15.0205C11.8941 15.0205 12.0884 14.9819 12.2696 14.9068C12.4509 14.8317 12.6156 14.7216 12.7544 14.5829L18.3866 8.94863Z" fill="black"/>
<path d="M18.3866 8.94863C18.6664 8.66856 18.8235 8.28891 18.8235 7.89308C18.8235 7.49724 18.6664 7.1176 18.3866 6.83753L12.7544 1.20228C12.4742 0.922071 12.0941 0.764648 11.6978 0.764648C11.3016 0.764648 10.9215 0.92207 10.6413 1.20228C10.3611 1.4825 10.2037 1.86255 10.2037 2.25883C10.2037 2.65511 10.3611 3.03516 10.6413 3.31537L13.7243 6.39937L2.23773 6.39937C1.84158 6.39937 1.46165 6.55674 1.18153 6.83687C0.901401 7.11699 0.74403 7.49692 0.74403 7.89307C0.74403 8.28923 0.901401 8.66916 1.18153 8.94928C1.46165 9.22941 1.84158 9.38678 2.23773 9.38678L13.7243 9.38678L10.6413 12.4698C10.5026 12.6085 10.3925 12.7732 10.3174 12.9545C10.2423 13.1358 10.2037 13.3301 10.2037 13.5263C10.2037 13.7225 10.2423 13.9168 10.3174 14.0981C10.3925 14.2794 10.5026 14.4441 10.6413 14.5829C10.78 14.7216 10.9448 14.8317 11.126 14.9068C11.3073 14.9819 11.5016 15.0205 11.6978 15.0205C11.8941 15.0205 12.0884 14.9819 12.2696 14.9068C12.4509 14.8317 12.6156 14.7216 12.7544 14.5829L18.3866 8.94863Z" fill="url(#paint0_linear_886_4215)"/>
<defs>
<linearGradient id="paint0_linear_886_4215" x1="9.78445" y1="0.765335" x2="9.78444" y2="15.0205" gradientUnits="userSpaceOnUse">
<stop stopColor="#F16522"/>
<stop offset="1" stopColor="#EB008B"/>
</linearGradient>
</defs>
</svg>
