<svg width="20" height="14" viewBox="0 0 20 14" fill="none" xmlns="http://www.w3.org/2000/svg">
<path d="M15.8239 5.85476C15.9317 5.53149 16.0394 5.20821 16.0394 4.77717C16.0394 2.40647 14.0998 0.466797 11.7291 0.466797C10.1127 0.466797 8.60404 1.43663 7.95748 2.8375C7.63421 2.72974 7.20317 2.62198 6.87989 2.62198C5.37126 2.62198 4.18591 3.80734 4.18591 5.31597C4.18591 5.53149 4.18591 5.74701 4.29367 5.85476C2.354 6.17804 0.953125 7.68667 0.953125 9.62634C0.953125 11.6738 2.67727 13.3979 4.7247 13.3979H15.5006C17.5481 13.3979 19.2722 11.6738 19.2722 9.62634C19.2722 7.68667 17.7636 6.07028 15.8239 5.85476ZM9.03508 12.2126L5.58678 8.76427L7.09541 7.25564L9.03508 9.1953L13.1299 5.10045L14.6386 6.60908L9.03508 12.2126Z" fill="#828D9E"/>
</svg>
