<svg width="21" height="21" viewBox="0 0 21 21" fill="none" xmlns="http://www.w3.org/2000/svg">
<path d="M19.7673 13.002L18.2789 11.7295C18.3493 11.2977 18.3857 10.8569 18.3857 10.416C18.3857 9.97516 18.3493 9.53431 18.2789 9.10254L19.7673 7.82998C19.8796 7.73387 19.96 7.60587 19.9977 7.46298C20.0355 7.3201 20.0288 7.16911 19.9787 7.03009L19.9582 6.971C19.5485 5.82575 18.9349 4.76408 18.1471 3.83732L18.1062 3.7896C18.0106 3.67723 17.8833 3.59645 17.7409 3.55792C17.5985 3.51938 17.4478 3.52489 17.3086 3.57372L15.4611 4.23045C14.7793 3.67143 14.0181 3.23058 13.1955 2.92153L12.8387 0.989959C12.8118 0.844619 12.7413 0.71091 12.6365 0.606595C12.5318 0.502279 12.3978 0.432296 12.2524 0.405944L12.191 0.394582C11.0071 0.180973 9.76182 0.180973 8.57788 0.394582L8.51652 0.405944C8.37108 0.432296 8.2371 0.502279 8.13238 0.606595C8.02765 0.71091 7.95715 0.844619 7.93023 0.989959L7.57119 2.93062C6.75514 3.23975 5.99519 3.68036 5.32148 4.23499L3.46036 3.57372C3.32121 3.5245 3.17038 3.51879 3.0279 3.55735C2.88543 3.59591 2.75807 3.67692 2.66274 3.7896L2.62183 3.83732C1.83499 4.76475 1.2215 5.82623 0.810703 6.971L0.790251 7.03009C0.687992 7.31414 0.772072 7.63228 1.00159 7.82998L2.50821 9.11618C2.43777 9.5434 2.40368 9.9797 2.40368 10.4137C2.40368 10.85 2.43777 11.2864 2.50821 11.7113L1.00159 12.9975C0.889319 13.0936 0.808968 13.2216 0.771217 13.3645C0.733466 13.5074 0.740105 13.6584 0.790251 13.7974L0.810703 13.8565C1.22201 15.0018 1.83103 16.0585 2.62183 16.9902L2.66274 17.0379C2.7583 17.1502 2.88567 17.231 3.02806 17.2696C3.17044 17.3081 3.32117 17.3026 3.46036 17.2538L5.32148 16.5925C5.99867 17.1492 6.75539 17.5901 7.57119 17.8969L7.93023 19.8375C7.95715 19.9829 8.02765 20.1166 8.13238 20.2209C8.2371 20.3252 8.37108 20.3952 8.51652 20.4215L8.57788 20.4329C9.77269 20.6476 10.9962 20.6476 12.191 20.4329L12.2524 20.4215C12.3978 20.3952 12.5318 20.3252 12.6365 20.2209C12.7413 20.1166 12.8118 19.9829 12.8387 19.8375L13.1955 17.906C14.0177 17.5977 14.7833 17.1554 15.4611 16.597L17.3086 17.2538C17.4477 17.303 17.5985 17.3087 17.741 17.2701C17.8835 17.2316 18.0109 17.1506 18.1062 17.0379L18.1471 16.9902C18.9379 16.0562 19.5469 15.0018 19.9582 13.8565L19.9787 13.7974C20.0809 13.5179 19.9969 13.1997 19.7673 13.002ZM16.6655 9.37069C16.7223 9.71383 16.7518 10.0661 16.7518 10.4183C16.7518 10.7705 16.7223 11.1227 16.6655 11.4659L16.5155 12.3771L18.213 13.8292C17.9557 14.4221 17.6308 14.9833 17.2449 15.5017L15.1361 14.7541L14.4226 15.3404C13.8795 15.7858 13.275 16.1357 12.6205 16.3811L11.7547 16.7061L11.348 18.9104C10.7062 18.9831 10.0582 18.9831 9.41641 18.9104L9.00964 16.7016L8.15066 16.3721C7.50302 16.1266 6.90082 15.7767 6.36226 15.3336L5.64871 14.745L3.52626 15.4994C3.13995 14.9791 2.81726 14.4178 2.5582 13.8269L4.27389 12.3612L4.12618 11.4522C4.07164 11.1136 4.0421 10.7637 4.0421 10.4183C4.0421 10.0706 4.06937 9.72292 4.12618 9.38433L4.27389 8.47535L2.5582 7.00963C2.81499 6.41653 3.13995 5.85751 3.52626 5.33712L5.64871 6.09157L6.36226 5.50301C6.90082 5.05989 7.50302 4.70993 8.15066 4.46451L9.01191 4.13955L9.41868 1.93075C10.0572 1.85803 10.7094 1.85803 11.3502 1.93075L11.757 4.13501L12.6228 4.45996C13.275 4.70539 13.8817 5.05534 14.4248 5.50074L15.1384 6.08703L17.2472 5.3394C17.6335 5.85978 17.9562 6.42107 18.2153 7.01191L16.5178 8.46399L16.6655 9.37069ZM10.3867 6.19156C8.17793 6.19156 6.38725 7.98224 6.38725 10.191C6.38725 12.3998 8.17793 14.1905 10.3867 14.1905C12.5955 14.1905 14.3862 12.3998 14.3862 10.191C14.3862 7.98224 12.5955 6.19156 10.3867 6.19156ZM12.1865 11.9908C11.9504 12.2275 11.6699 12.4153 11.361 12.5432C11.0522 12.6711 10.721 12.7367 10.3867 12.7362C9.70728 12.7362 9.06872 12.4703 8.58697 11.9908C8.35023 11.7548 8.16251 11.4742 8.03459 11.1653C7.90667 10.8565 7.84109 10.5254 7.84161 10.191C7.84161 9.51158 8.10748 8.87303 8.58697 8.39127C9.06872 7.90952 9.70728 7.64592 10.3867 7.64592C11.0662 7.64592 11.7047 7.90952 12.1865 8.39127C12.4232 8.62733 12.611 8.90786 12.7389 9.21674C12.8668 9.52561 12.9324 9.85673 12.9319 10.191C12.9319 10.8705 12.666 11.5091 12.1865 11.9908Z" fill="#828D9E"/>
</svg>
