<svg width="19" height="19" viewBox="0 0 19 19" fill="currentColor" xmlns="http://www.w3.org/2000/svg">
<path fillRule="evenodd" clipRule="evenodd" d="M14.761 11.6126C16.6942 11.6126 18.7257 13.1798 18.7257 15.113V16.6132C18.7257 17.7179 17.8302 18.6134 16.7255 18.6134H2.72387C1.61917 18.6134 0.723633 17.7179 0.723633 16.6132V15.113C0.723633 13.1798 2.79358 11.6126 4.7268 11.6126H14.761ZM4.72036 13.1128C3.10729 13.1128 2.30565 13.9288 2.22929 14.9638L2.22381 15.1131V16.1132C2.22381 16.6261 2.60989 17.0488 3.10729 17.1066L3.22393 17.1133H16.2254C16.7383 17.1133 17.1611 16.7272 17.2188 16.2298L17.2256 16.1132V15.1131C17.2256 14.0586 16.2254 13.1049 14.7508 13.1128C13.2762 13.1208 4.72036 13.1128 4.72036 13.1128ZM9.72469 0.611328C12.4864 0.611328 14.7253 2.85017 14.7253 5.61191C14.7253 8.37366 12.4864 10.6125 9.72469 10.6125C6.96294 10.6125 4.7241 8.37366 4.7241 5.61191C4.7241 2.85017 6.96294 0.611328 9.72469 0.611328ZM9.72428 2.1115C7.79128 2.1115 6.22428 3.67851 6.22428 5.6115C6.22428 7.5445 7.79128 9.1115 9.72428 9.1115C11.6573 9.1115 13.2243 7.5445 13.2243 5.6115C13.2243 3.67851 11.6573 2.1115 9.72428 2.1115Z"/>
</svg>
