<svg width="32" height="32" viewBox="0 0 32 32" fill="none" xmlns="http://www.w3.org/2000/svg">
<path d="M23.4298 8.46027C23.9609 8.45957 24.437 8.2728 24.8141 7.89694L24.3548 7.43599L24.8141 7.89694C25.1933 7.51907 25.3803 7.0404 25.3791 6.50649C25.3778 5.97427 25.1908 5.49707 24.8128 5.1204L24.3535 5.58135L24.8128 5.1204C24.4362 4.74503 23.9605 4.55827 23.4299 4.55578C22.8945 4.55326 22.4152 4.74204 22.0376 5.1236C21.6639 5.50125 21.4758 5.97597 21.4746 6.50648C21.4733 7.0394 21.6623 7.51587 22.0384 7.89455C22.4164 8.27515 22.8948 8.46457 23.4298 8.46027ZM23.4298 8.46027C23.4309 8.46026 23.4319 8.46025 23.433 8.46024L23.4268 7.80952V8.46027C23.4278 8.46027 23.4288 8.46027 23.4298 8.46027ZM23.4284 26.6813C23.9607 26.6809 24.4376 26.4932 24.8149 26.1159C25.1927 25.7381 25.3803 25.2606 25.3791 24.7275C25.3778 24.1961 25.1903 23.7202 24.8144 23.343L24.3535 23.8024L24.8144 23.343C24.4373 22.9646 23.9598 22.7768 23.4268 22.7768C22.8938 22.7768 22.4164 22.9646 22.0392 23.343C21.6634 23.7202 21.4758 24.1961 21.4746 24.7275C21.4733 25.2613 21.6618 25.739 22.04 26.1172C22.4179 26.4951 22.8951 26.6835 23.4284 26.6813ZM23.4284 26.6813C23.4289 26.6813 23.4294 26.6813 23.4299 26.6813L23.4268 26.0305V26.6813C23.4273 26.6813 23.4278 26.6813 23.4284 26.6813ZM7.81034 17.5708C8.34271 17.5704 8.81957 17.3827 9.19692 17.0054C9.57472 16.6276 9.76231 16.1501 9.76105 15.617C9.7598 15.0856 9.57228 14.6097 9.19642 14.2325C8.81927 13.854 8.34181 13.6663 7.8088 13.6663C7.27579 13.6663 6.79834 13.854 6.42118 14.2325C6.04533 14.6097 5.8578 15.0856 5.85655 15.617C5.85529 16.1508 6.04379 16.6285 6.42198 17.0067C6.79989 17.3846 7.27708 17.5729 7.81034 17.5708ZM7.81034 17.5708C7.80983 17.5708 7.80932 17.5708 7.8088 17.5708V16.92L7.81034 17.5708ZM20.2694 24.025L20.4382 23.5221L19.9796 23.2555L10.804 17.9193L10.3983 17.6833L10.0463 17.9939C9.73258 18.2707 9.38329 18.4869 8.9958 18.6441L9.24045 19.2471L8.9958 18.6441C8.61953 18.7968 8.22588 18.873 7.80993 18.8723H7.8088C6.89484 18.8723 6.13905 18.5599 5.50326 17.9241L5.04311 18.3842L5.50326 17.9241C4.86748 17.2883 4.55505 16.5325 4.55505 15.6185C4.55505 14.7046 4.86748 13.9488 5.50326 13.313C6.13905 12.6772 6.89484 12.3648 7.8088 12.3648C8.22513 12.3648 8.61917 12.4415 8.9958 12.5943C9.38364 12.7516 9.73314 12.9676 10.047 13.2438L10.3988 13.5534L10.804 13.3178L19.9796 7.98161L20.4372 7.71548L20.2698 7.21328C20.2416 7.12862 20.2171 7.02338 20.1999 6.89424C20.1817 6.75854 20.1731 6.62992 20.1731 6.50802C20.1731 5.59406 20.4855 4.83826 21.1213 4.20248C21.7571 3.5667 22.5129 3.25427 23.4268 3.25427C24.3408 3.25427 25.0966 3.5667 25.7324 4.20248C26.3681 4.83826 26.6806 5.59406 26.6806 6.50802C26.6806 7.42198 26.3681 8.17778 25.7324 8.81356C25.0966 9.44935 24.3408 9.76178 23.4268 9.76178C23.0101 9.76178 22.6157 9.68538 22.2388 9.5332C21.8521 9.37704 21.5034 9.16123 21.1899 8.88394L20.8379 8.57249L20.4316 8.80879L11.256 14.1449L10.7984 14.4111L10.9658 14.9133C10.9939 14.9976 11.0184 15.1031 11.0357 15.2332C11.0539 15.3704 11.0626 15.4987 11.0626 15.6185C11.0626 15.7384 11.0539 15.8673 11.0356 16.0056C11.0183 16.1366 10.994 16.2404 10.9666 16.3213L10.7965 16.8249L11.256 17.0921L20.4316 22.4283L20.8373 22.6642L21.1893 22.3537C21.5028 22.0771 21.8518 21.8615 22.2388 21.7052C22.6158 21.553 23.0102 21.4761 23.4269 21.4753C24.3409 21.4753 25.0966 21.7878 25.7324 22.4235C26.3681 23.0593 26.6806 23.8151 26.6806 24.729C26.6806 25.643 26.3681 26.3988 25.7324 27.0346C25.0966 27.6704 24.3408 27.9828 23.4268 27.9828C22.5129 27.9828 21.7571 27.6704 21.1213 27.0346C20.4855 26.3988 20.1731 25.643 20.1731 24.729C20.1731 24.6082 20.1817 24.4794 20.1999 24.3424C20.2172 24.2123 20.2416 24.1078 20.2694 24.025Z" fill="black" stroke="url(#paint0_linear_1614_15482)" strokeWidth="1.3015"/>
<defs>
<linearGradient id="paint0_linear_1614_15482" x1="30.7251" y1="32.8755" x2="13.0889" y2="43.3567" gradientUnits="userSpaceOnUse">
<stop stopColor="#F16522"/>
<stop offset="1" stopColor="#EB008B"/>
</linearGradient>
</defs>
</svg>
