<svg width="25" height="25" viewBox="0 0 25 25" fill="none" xmlns="http://www.w3.org/2000/svg">
<path d="M2.65039 2.1123H4.3904C5.4704 2.1123 6.32039 3.0423 6.23039 4.1123L5.40039 14.0723C5.26039 15.7023 6.55038 17.1023 8.19038 17.1023H18.8404C20.2804 17.1023 21.5404 15.9223 21.6504 14.4923L22.1904 6.99231C22.3104 5.33231 21.0504 3.9823 19.3804 3.9823H6.4704" stroke="white" strokeWidth="1.5" stroke-miterlimit="10" stroke-linecap="round" strokeLinejoin="round"/>
<path d="M16.9004 22.1123C17.5907 22.1123 18.1504 21.5527 18.1504 20.8623C18.1504 20.1719 17.5907 19.6123 16.9004 19.6123C16.21 19.6123 15.6504 20.1719 15.6504 20.8623C15.6504 21.5527 16.21 22.1123 16.9004 22.1123Z" stroke="white" strokeWidth="1.5" stroke-miterlimit="10" stroke-linecap="round" strokeLinejoin="round"/>
<path d="M8.90039 22.1123C9.59075 22.1123 10.1504 21.5527 10.1504 20.8623C10.1504 20.1719 9.59075 19.6123 8.90039 19.6123C8.21003 19.6123 7.65039 20.1719 7.65039 20.8623C7.65039 21.5527 8.21003 22.1123 8.90039 22.1123Z" stroke="white" strokeWidth="1.5" stroke-miterlimit="10" stroke-linecap="round" strokeLinejoin="round"/>
<path d="M9.65039 8.1123H21.6504" stroke="white" strokeWidth="1.5" stroke-miterlimit="10" stroke-linecap="round" strokeLinejoin="round"/>
</svg>
