<svg width="17" height="19" viewBox="0 0 17 19" fill="none" xmlns="http://www.w3.org/2000/svg">
<path d="M5.39258 2.96729C5.12736 2.96729 4.87301 3.07265 4.68547 3.26019C4.49794 3.44772 4.39258 3.70208 4.39258 3.96729C4.39258 4.23251 4.49794 4.48686 4.68547 4.6744C4.87301 4.86194 5.12736 4.96729 5.39258 4.96729C5.65779 4.96729 5.91215 4.86194 6.09968 4.6744C6.28722 4.48686 6.39258 4.23251 6.39258 3.96729C6.39258 3.70208 6.28722 3.44772 6.09968 3.26019C5.91215 3.07265 5.65779 2.96729 5.39258 2.96729ZM2.56258 2.96729C2.76918 2.38176 3.15232 1.87473 3.65918 1.51608C4.16604 1.15744 4.77167 0.964844 5.39258 0.964844C6.01349 0.964844 6.61912 1.15744 7.12598 1.51608C7.63284 1.87473 8.01598 2.38176 8.22258 2.96729H15.3926C15.6578 2.96729 15.9121 3.07265 16.0997 3.26019C16.2872 3.44772 16.3926 3.70208 16.3926 3.96729C16.3926 4.23251 16.2872 4.48686 16.0997 4.6744C15.9121 4.86194 15.6578 4.96729 15.3926 4.96729H8.22258C8.01598 5.55283 7.63284 6.05986 7.12598 6.41851C6.61912 6.77715 6.01349 6.96975 5.39258 6.96975C4.77167 6.96975 4.16604 6.77715 3.65918 6.41851C3.15232 6.05986 2.76918 5.55283 2.56258 4.96729H1.39258C1.12736 4.96729 0.873008 4.86194 0.685472 4.6744C0.497935 4.48686 0.392578 4.23251 0.392578 3.96729C0.392578 3.70208 0.497935 3.44772 0.685472 3.26019C0.873008 3.07265 1.12736 2.96729 1.39258 2.96729H2.56258ZM11.3926 8.96729C11.1274 8.96729 10.873 9.07265 10.6855 9.26019C10.4979 9.44772 10.3926 9.70208 10.3926 9.96729C10.3926 10.2325 10.4979 10.4869 10.6855 10.6744C10.873 10.8619 11.1274 10.9673 11.3926 10.9673C11.6578 10.9673 11.9121 10.8619 12.0997 10.6744C12.2872 10.4869 12.3926 10.2325 12.3926 9.96729C12.3926 9.70208 12.2872 9.44772 12.0997 9.26019C11.9121 9.07265 11.6578 8.96729 11.3926 8.96729ZM8.56258 8.96729C8.76918 8.38176 9.15232 7.87473 9.65918 7.51608C10.166 7.15744 10.7717 6.96484 11.3926 6.96484C12.0135 6.96484 12.6191 7.15744 13.126 7.51608C13.6328 7.87473 14.016 8.38176 14.2226 8.96729H15.3926C15.6578 8.96729 15.9121 9.07265 16.0997 9.26019C16.2872 9.44772 16.3926 9.70208 16.3926 9.96729C16.3926 10.2325 16.2872 10.4869 16.0997 10.6744C15.9121 10.8619 15.6578 10.9673 15.3926 10.9673H14.2226C14.016 11.5528 13.6328 12.0599 13.126 12.4185C12.6191 12.7771 12.0135 12.9697 11.3926 12.9697C10.7717 12.9697 10.166 12.7771 9.65918 12.4185C9.15232 12.0599 8.76918 11.5528 8.56258 10.9673H1.39258C1.12736 10.9673 0.873008 10.8619 0.685472 10.6744C0.497935 10.4869 0.392578 10.2325 0.392578 9.96729C0.392578 9.70208 0.497935 9.44772 0.685472 9.26019C0.873008 9.07265 1.12736 8.96729 1.39258 8.96729H8.56258ZM5.39258 14.9673C5.12736 14.9673 4.87301 15.0727 4.68547 15.2602C4.49794 15.4477 4.39258 15.7021 4.39258 15.9673C4.39258 16.2325 4.49794 16.4869 4.68547 16.6744C4.87301 16.8619 5.12736 16.9673 5.39258 16.9673C5.65779 16.9673 5.91215 16.8619 6.09968 16.6744C6.28722 16.4869 6.39258 16.2325 6.39258 15.9673C6.39258 15.7021 6.28722 15.4477 6.09968 15.2602C5.91215 15.0727 5.65779 14.9673 5.39258 14.9673ZM2.56258 14.9673C2.76918 14.3818 3.15232 13.8747 3.65918 13.5161C4.16604 13.1574 4.77167 12.9648 5.39258 12.9648C6.01349 12.9648 6.61912 13.1574 7.12598 13.5161C7.63284 13.8747 8.01598 14.3818 8.22258 14.9673H15.3926C15.6578 14.9673 15.9121 15.0727 16.0997 15.2602C16.2872 15.4477 16.3926 15.7021 16.3926 15.9673C16.3926 16.2325 16.2872 16.4869 16.0997 16.6744C15.9121 16.8619 15.6578 16.9673 15.3926 16.9673H8.22258C8.01598 17.5528 7.63284 18.0599 7.12598 18.4185C6.61912 18.7771 6.01349 18.9697 5.39258 18.9697C4.77167 18.9697 4.16604 18.7771 3.65918 18.4185C3.15232 18.0599 2.76918 17.5528 2.56258 16.9673H1.39258C1.12736 16.9673 0.873008 16.8619 0.685472 16.6744C0.497935 16.4869 0.392578 16.2325 0.392578 15.9673C0.392578 15.7021 0.497935 15.4477 0.685472 15.2602C0.873008 15.0727 1.12736 14.9673 1.39258 14.9673H2.56258Z" fill="url(#paint0_linear_93_4600)"/>
<defs>
<linearGradient id="paint0_linear_93_4600" x1="0.393349" y1="9.96661" x2="16.3926" y2="9.96661" gradientUnits="userSpaceOnUse">
<stop stopColor="#F16522"/>
<stop offset="1" stopColor="#EB008B"/>
</linearGradient>
</defs>
</svg>
