<svg width="23" height="24" viewBox="0 0 23 24" fill="none" xmlns="http://www.w3.org/2000/svg">
<path d="M22.1623 10.2934C22.8135 9.80086 22.4652 8.76284 21.6486 8.76284H15.0127C14.6393 8.76284 14.3095 8.51957 14.1992 8.16284L12.1594 1.56496C11.912 0.764961 10.7797 0.764962 10.5323 1.56496L8.49255 8.16284C8.38227 8.51957 8.05243 8.76284 7.67904 8.76284H1.01755C0.203639 8.76284 -0.146387 9.79532 0.499719 10.2903L5.95434 14.4689C6.23664 14.6852 6.35481 15.0541 6.2507 15.3942L4.20615 22.0717C3.96359 22.8639 4.88048 23.5008 5.53817 22.9969L10.828 18.9445C11.1336 18.7104 11.5581 18.7104 11.8637 18.9445L17.1436 22.9893C17.8023 23.4939 18.72 22.8546 18.475 22.0619L16.4014 15.3548C16.2956 15.0124 16.4154 14.6404 16.7012 14.4242L22.1623 10.2934Z" fill="#FFAD33"/>
</svg>
