<svg width="18" height="18" viewBox="0 0 18 18" fill="none" xmlns="http://www.w3.org/2000/svg">
<path d="M2.38672 3.25342C2.31698 3.17426 2.22884 3.11345 2.13007 3.07637C2.0313 3.03928 1.92492 3.02705 1.82031 3.04075C1.71569 3.05445 1.61606 3.09367 1.53016 3.15494C1.44427 3.21621 1.37477 3.29766 1.32776 3.39212C0.829262 4.3911 0.630061 5.51284 0.754131 6.62238C0.878201 7.73191 1.32026 8.78195 2.0271 9.64614C2.73394 10.5103 3.67546 11.1519 4.73835 11.4935C5.80124 11.8352 6.94021 11.8624 8.01821 11.5719L12.8896 17.0861C13.3416 17.5977 13.9783 17.9088 14.6596 17.951C15.341 17.9931 16.0112 17.7629 16.5228 17.3109C17.0344 16.859 17.3455 16.2223 17.3877 15.5409C17.4299 14.8595 17.1997 14.1893 16.7477 13.6777L11.8772 8.16451C12.299 7.13055 12.4128 5.99669 12.2051 4.8995C11.9973 3.8023 11.4768 2.78857 10.7062 1.98038C9.93564 1.17218 8.94783 0.604008 7.86177 0.344276C6.77571 0.0845434 5.63771 0.144332 4.58485 0.516441C4.48531 0.551437 4.39591 0.610369 4.32452 0.688049C4.25312 0.765728 4.20192 0.859771 4.17542 0.961895C4.14893 1.06402 4.14795 1.17109 4.17257 1.27369C4.19719 1.37628 4.24666 1.47124 4.31662 1.55022L7.26229 4.88457C7.48828 5.14038 7.60339 5.47549 7.5823 5.81617C7.56122 6.15685 7.40566 6.4752 7.14985 6.70118C6.89404 6.92717 6.55894 7.04228 6.21826 7.0212C5.87758 7.00011 5.55923 6.84456 5.33324 6.58875L2.38672 3.25342ZM3.13666 8.96202C2.12267 7.81424 1.79995 6.2962 2.13455 4.91185L4.36701 7.43891C4.81899 7.95052 5.45569 8.26163 6.13705 8.30381C6.81841 8.34598 7.48862 8.11575 8.00023 7.66378C8.51185 7.2118 8.82296 6.5751 8.86514 5.89374C8.90731 5.21238 8.67708 4.54217 8.22511 4.03056L5.99264 1.50351C6.79911 1.41001 7.61586 1.53615 8.35655 1.86859C9.09724 2.20103 9.73434 2.72742 10.2005 3.39212C10.6667 4.05682 10.9446 4.83512 11.0049 5.64475C11.0652 6.45438 10.9056 7.26526 10.543 7.99166C10.4859 8.10625 10.4644 8.23525 10.4811 8.36215C10.4977 8.48906 10.5519 8.60811 10.6366 8.70409L15.7832 14.5298C16.0091 14.7856 16.1243 15.1207 16.1032 15.4614C16.0821 15.8021 15.9265 16.1204 15.6707 16.3464C15.4149 16.5724 15.0798 16.6875 14.7391 16.6664C14.3985 16.6454 14.0801 16.4898 13.8541 16.234L8.7075 10.4083C8.6227 10.3124 8.51124 10.244 8.38736 10.2118C8.26347 10.1796 8.13281 10.1851 8.01206 10.2275C7.16538 10.5264 6.24871 10.5654 5.37969 10.3396C4.51068 10.1138 3.72899 9.63337 3.13495 8.9601" fill="#828D9E"/>
</svg>
