<svg width="112" height="105" viewBox="0 0 112 105" fill="none" xmlns="http://www.w3.org/2000/svg">
<path fillRule="evenodd" clipRule="evenodd" d="M5.30868 0.291992C4.05173 0.291992 2.84626 0.791314 1.95746 1.68011C1.06866 2.56891 0.569336 3.77439 0.569336 5.03134C0.569336 6.28829 1.06866 7.49376 1.95746 8.38256C2.84626 9.27136 4.05173 9.77069 5.30868 9.77069H13.9912L25.9217 75.3885C26.12 76.4808 26.6955 77.4688 27.5478 78.1802C28.4001 78.8916 29.475 79.2812 30.5852 79.2811H93.7765C94.8338 79.2817 95.8609 78.9287 96.6945 78.2784C97.5281 77.628 98.1202 76.7175 98.3768 75.6918L111.015 25.1388C111.19 24.4398 111.203 23.7102 111.054 23.0054C110.904 22.3006 110.596 21.6391 110.152 21.0713C109.709 20.5035 109.142 20.0443 108.494 19.7286C107.846 19.4129 107.135 19.249 106.415 19.2494H25.3466L22.6105 4.18458C22.4121 3.09228 21.8366 2.10428 20.9843 1.3929C20.1321 0.681513 19.0571 0.291892 17.9469 0.291992H5.30868ZM34.541 69.8024L27.0718 28.7281H100.348L90.0798 69.8024H34.541ZM50.4273 44.5259C49.1703 44.5259 47.9648 45.0252 47.076 45.914C46.1872 46.8028 45.6879 48.0083 45.6879 49.2652C45.6879 50.5222 46.1872 51.7277 47.076 52.6165C47.9648 53.5053 49.1703 54.0046 50.4273 54.0046H75.7038C76.9607 54.0046 78.1662 53.5053 79.055 52.6165C79.9438 51.7277 80.4431 50.5222 80.4431 49.2652C80.4431 48.0083 79.9438 46.8028 79.055 45.914C78.1662 45.0252 76.9607 44.5259 75.7038 44.5259H50.4273ZM41.6437 85.6002C39.1298 85.6002 36.7188 86.5989 34.9412 88.3765C33.1636 90.1541 32.165 92.565 32.165 95.0789C32.165 97.5928 33.1636 100.004 34.9412 101.781C36.7188 103.559 39.1298 104.558 41.6437 104.558C44.1576 104.558 46.5685 103.559 48.3461 101.781C50.1237 100.004 51.1224 97.5928 51.1224 95.0789C51.1224 92.565 50.1237 90.1541 48.3461 88.3765C46.5685 86.5989 44.1576 85.6002 41.6437 85.6002ZM73.2393 95.0789C73.2393 92.565 74.238 90.1541 76.0156 88.3765C77.7932 86.5989 80.2041 85.6002 82.718 85.6002C85.2319 85.6002 87.6429 86.5989 89.4205 88.3765C91.1981 90.1541 92.1967 92.565 92.1967 95.0789C92.1967 97.5928 91.1981 100.004 89.4205 101.781C87.6429 103.559 85.2319 104.558 82.718 104.558C80.2041 104.558 77.7932 103.559 76.0156 101.781C74.238 100.004 73.2393 97.5928 73.2393 95.0789Z" fill="#A7A7A7"/>
<path fillRule="evenodd" clipRule="evenodd" d="M5.30868 0.291992C4.05173 0.291992 2.84626 0.791314 1.95746 1.68011C1.06866 2.56891 0.569336 3.77439 0.569336 5.03134C0.569336 6.28829 1.06866 7.49376 1.95746 8.38256C2.84626 9.27136 4.05173 9.77069 5.30868 9.77069H13.9912L25.9217 75.3885C26.12 76.4808 26.6955 77.4688 27.5478 78.1802C28.4001 78.8916 29.475 79.2812 30.5852 79.2811H93.7765C94.8338 79.2817 95.8609 78.9287 96.6945 78.2784C97.5281 77.628 98.1202 76.7175 98.3768 75.6918L111.015 25.1388C111.19 24.4398 111.203 23.7102 111.054 23.0054C110.904 22.3006 110.596 21.6391 110.152 21.0713C109.709 20.5035 109.142 20.0443 108.494 19.7286C107.846 19.4129 107.135 19.249 106.415 19.2494H25.3466L22.6105 4.18458C22.4121 3.09228 21.8366 2.10428 20.9843 1.3929C20.1321 0.681513 19.0571 0.291892 17.9469 0.291992H5.30868ZM34.541 69.8024L27.0718 28.7281H100.348L90.0798 69.8024H34.541ZM50.4273 44.5259C49.1703 44.5259 47.9648 45.0252 47.076 45.914C46.1872 46.8028 45.6879 48.0083 45.6879 49.2652C45.6879 50.5222 46.1872 51.7277 47.076 52.6165C47.9648 53.5053 49.1703 54.0046 50.4273 54.0046H75.7038C76.9607 54.0046 78.1662 53.5053 79.055 52.6165C79.9438 51.7277 80.4431 50.5222 80.4431 49.2652C80.4431 48.0083 79.9438 46.8028 79.055 45.914C78.1662 45.0252 76.9607 44.5259 75.7038 44.5259H50.4273ZM41.6437 85.6002C39.1298 85.6002 36.7188 86.5989 34.9412 88.3765C33.1636 90.1541 32.165 92.565 32.165 95.0789C32.165 97.5928 33.1636 100.004 34.9412 101.781C36.7188 103.559 39.1298 104.558 41.6437 104.558C44.1576 104.558 46.5685 103.559 48.3461 101.781C50.1237 100.004 51.1224 97.5928 51.1224 95.0789C51.1224 92.565 50.1237 90.1541 48.3461 88.3765C46.5685 86.5989 44.1576 85.6002 41.6437 85.6002ZM73.2393 95.0789C73.2393 92.565 74.238 90.1541 76.0156 88.3765C77.7932 86.5989 80.2041 85.6002 82.718 85.6002C85.2319 85.6002 87.6429 86.5989 89.4205 88.3765C91.1981 90.1541 92.1967 92.565 92.1967 95.0789C92.1967 97.5928 91.1981 100.004 89.4205 101.781C87.6429 103.559 85.2319 104.558 82.718 104.558C80.2041 104.558 77.7932 103.559 76.0156 101.781C74.238 100.004 73.2393 97.5928 73.2393 95.0789Z" fill="white"/>
<path fillRule="evenodd" clipRule="evenodd" d="M5.30868 0.291992C4.05173 0.291992 2.84626 0.791314 1.95746 1.68011C1.06866 2.56891 0.569336 3.77439 0.569336 5.03134C0.569336 6.28829 1.06866 7.49376 1.95746 8.38256C2.84626 9.27136 4.05173 9.77069 5.30868 9.77069H13.9912L25.9217 75.3885C26.12 76.4808 26.6955 77.4688 27.5478 78.1802C28.4001 78.8916 29.475 79.2812 30.5852 79.2811H93.7765C94.8338 79.2817 95.8609 78.9287 96.6945 78.2784C97.5281 77.628 98.1202 76.7175 98.3768 75.6918L111.015 25.1388C111.19 24.4398 111.203 23.7102 111.054 23.0054C110.904 22.3006 110.596 21.6391 110.152 21.0713C109.709 20.5035 109.142 20.0443 108.494 19.7286C107.846 19.4129 107.135 19.249 106.415 19.2494H25.3466L22.6105 4.18458C22.4121 3.09228 21.8366 2.10428 20.9843 1.3929C20.1321 0.681513 19.0571 0.291892 17.9469 0.291992H5.30868ZM34.541 69.8024L27.0718 28.7281H100.348L90.0798 69.8024H34.541ZM50.4273 44.5259C49.1703 44.5259 47.9648 45.0252 47.076 45.914C46.1872 46.8028 45.6879 48.0083 45.6879 49.2652C45.6879 50.5222 46.1872 51.7277 47.076 52.6165C47.9648 53.5053 49.1703 54.0046 50.4273 54.0046H75.7038C76.9607 54.0046 78.1662 53.5053 79.055 52.6165C79.9438 51.7277 80.4431 50.5222 80.4431 49.2652C80.4431 48.0083 79.9438 46.8028 79.055 45.914C78.1662 45.0252 76.9607 44.5259 75.7038 44.5259H50.4273ZM41.6437 85.6002C39.1298 85.6002 36.7188 86.5989 34.9412 88.3765C33.1636 90.1541 32.165 92.565 32.165 95.0789C32.165 97.5928 33.1636 100.004 34.9412 101.781C36.7188 103.559 39.1298 104.558 41.6437 104.558C44.1576 104.558 46.5685 103.559 48.3461 101.781C50.1237 100.004 51.1224 97.5928 51.1224 95.0789C51.1224 92.565 50.1237 90.1541 48.3461 88.3765C46.5685 86.5989 44.1576 85.6002 41.6437 85.6002ZM73.2393 95.0789C73.2393 92.565 74.238 90.1541 76.0156 88.3765C77.7932 86.5989 80.2041 85.6002 82.718 85.6002C85.2319 85.6002 87.6429 86.5989 89.4205 88.3765C91.1981 90.1541 92.1967 92.565 92.1967 95.0789C92.1967 97.5928 91.1981 100.004 89.4205 101.781C87.6429 103.559 85.2319 104.558 82.718 104.558C80.2041 104.558 77.7932 103.559 76.0156 101.781C74.238 100.004 73.2393 97.5928 73.2393 95.0789Z" fill="url(#paint0_linear_252_4293)"/>
<defs>
<linearGradient id="paint0_linear_252_4293" x1="0.574662" y1="52.4208" x2="111.157" y2="52.4208" gradientUnits="userSpaceOnUse">
<stop stopColor="#F16522"/>
<stop offset="1" stopColor="#EB008B"/>
</linearGradient>
</defs>
</svg>
