<svg width="19" height="16" viewBox="0 0 19 16" fill="none" xmlns="http://www.w3.org/2000/svg">
<path fillRule="evenodd" clipRule="evenodd" d="M8.01062 0.443359H10.604C12.1356 0.443359 13.349 0.443359 14.2981 0.570859C15.2748 0.702526 16.0656 0.979192 16.6898 1.60253C17.4598 2.37336 17.7056 3.40503 17.7948 4.74419C18.2756 4.95503 18.639 5.40253 18.6781 5.96919C18.6823 6.02003 18.6823 6.07419 18.6823 6.12419V9.34586C18.6823 9.39586 18.6823 9.45003 18.679 9.50003C18.639 10.0667 18.2756 10.515 17.7948 10.7267C17.7056 12.065 17.4598 13.0967 16.6898 13.8675C16.0656 14.4909 15.2748 14.7675 14.2981 14.8992C13.3481 15.0267 12.1356 15.0267 10.604 15.0267H8.01062C6.47896 15.0267 5.26562 15.0267 4.31646 14.8992C3.33979 14.7675 2.54896 14.4909 1.92479 13.8675C1.30146 13.2434 1.02479 12.4525 0.893125 11.4759C0.765625 10.5259 0.765625 9.31336 0.765625 7.78169V7.68836C0.765625 6.15669 0.765625 4.94336 0.893125 3.99419C1.02479 3.01753 1.30146 2.22669 1.92479 1.60253C2.54896 0.979192 3.33979 0.702526 4.31646 0.570859C5.26646 0.443359 6.47896 0.443359 8.01062 0.443359ZM16.5306 10.86H14.9156C13.1281 10.86 11.5981 9.50336 11.5981 7.73503C11.5981 5.96669 13.1281 4.61003 14.9148 4.61003H16.5298C16.4348 3.49253 16.2206 2.90169 15.8048 2.48669C15.4523 2.13419 14.969 1.92253 14.1306 1.81003C13.2748 1.69503 12.1456 1.69336 10.5565 1.69336H8.05646C6.46729 1.69336 5.33896 1.69503 4.48146 1.81003C3.64396 1.92253 3.16062 2.13419 2.80813 2.48669C2.45562 2.83919 2.24396 3.32253 2.13146 4.16086C2.01646 5.01753 2.01479 6.14586 2.01479 7.73503C2.01479 9.32419 2.01646 10.4534 2.13146 11.31C2.24396 12.1475 2.45562 12.6309 2.80813 12.9834C3.16062 13.3359 3.64396 13.5475 4.48229 13.66C5.33896 13.775 6.46729 13.7767 8.05646 13.7767H10.5565C12.1456 13.7767 13.2748 13.775 14.1315 13.66C14.969 13.5475 15.4523 13.3359 15.8048 12.9834C16.2206 12.5684 16.4356 11.9784 16.5306 10.86ZM4.09896 4.40169C4.09896 4.23593 4.16481 4.07696 4.28202 3.95975C4.39923 3.84254 4.5582 3.77669 4.72396 3.77669H8.05729C8.22305 3.77669 8.38202 3.84254 8.49923 3.95975C8.61644 4.07696 8.68229 4.23593 8.68229 4.40169C8.68229 4.56745 8.61644 4.72642 8.49923 4.84363C8.38202 4.96084 8.22305 5.02669 8.05729 5.02669H4.72396C4.5582 5.02669 4.39923 4.96084 4.28202 4.84363C4.16481 4.72642 4.09896 4.56745 4.09896 4.40169ZM17.1606 5.86003H14.9156C13.729 5.86003 12.8481 6.74253 12.8481 7.73503C12.8481 8.72753 13.729 9.61003 14.9148 9.61003H17.1798C17.3515 9.59919 17.4256 9.48336 17.4315 9.41336V6.05669C17.4256 5.98669 17.3515 5.87086 17.1798 5.86086L17.1606 5.86003Z" fill="#828D9E"/>
</svg>
