<svg width="37" height="32" viewBox="0 0 37 32" fill="none" xmlns="http://www.w3.org/2000/svg">
<path d="M31.0112 2.21289H5.71463C4.27698 2.21289 2.8982 2.77388 1.88163 3.77245C0.865052 4.77102 0.293945 6.12537 0.293945 7.53757V25.2865C0.293945 26.6987 0.865052 28.053 1.88163 29.0516C2.8982 30.0502 4.27698 30.6112 5.71463 30.6112H31.0112C32.4488 30.6112 33.8276 30.0502 34.8442 29.0516C35.8607 28.053 36.4318 26.6987 36.4318 25.2865V7.53757C36.4318 6.12537 35.8607 4.77102 34.8442 3.77245C33.8276 2.77388 32.4488 2.21289 31.0112 2.21289ZM29.8005 5.76267L18.3629 14.1934L6.92525 5.76267H29.8005ZM31.0112 27.0614H5.71463C5.23541 27.0614 4.77582 26.8744 4.43696 26.5415C4.0981 26.2087 3.90774 25.7572 3.90774 25.2865V7.98129L17.2788 17.8319C17.5915 18.0624 17.9719 18.1869 18.3629 18.1869C18.7539 18.1869 19.1343 18.0624 19.447 17.8319L32.8181 7.98129V25.2865C32.8181 25.7572 32.6277 26.2087 32.2888 26.5415C31.95 26.8744 31.4904 27.0614 31.0112 27.0614Z" fill="white"/>
</svg>
